<svg width="50" height="50" viewBox="0 0 50 50" fill="none" xmlns="http://www.w3.org/2000/svg">
<g clip-path="url(#clip0_38_18)">
<path d="M29.8214 29.8214C25.8929 33.875 25.6071 38.9286 25.2679 50C35.5893 50 42.7143 49.9643 46.3929 46.3929C49.9643 42.7143 50 35.25 50 25.2679C38.9286 25.625 33.875 25.8929 29.8214 29.8214ZM0 25.2679C0 35.25 0.0357143 42.7143 3.60714 46.3929C7.28571 49.9643 14.4107 50 24.7321 50C24.375 38.9286 24.1071 33.875 20.1786 29.8214C16.125 25.8929 11.0714 25.6071 0 25.2679ZM24.7321 0C14.4286 0 7.28571 0.0357143 3.60714 3.60714C0.0357143 7.28571 0 14.75 0 24.7321C11.0714 24.375 16.125 24.1071 20.1786 20.1786C24.1071 16.125 24.3929 11.0714 24.7321 0ZM29.8214 20.1786C25.8929 16.125 25.6071 11.0714 25.2679 0C35.5893 0 42.7143 0.0357143 46.3929 3.60714C49.9643 7.28571 50 14.75 50 24.7321C38.9286 24.375 33.875 24.1071 29.8214 20.1786Z" fill="#0171E1"/>
<path d="M50 25.2679V24.7321C38.9286 24.375 33.875 24.1071 29.8214 20.1786C25.8929 16.125 25.6071 11.0714 25.2679 0H24.7321C24.375 11.0714 24.1071 16.125 20.1786 20.1786C16.125 24.1071 11.0714 24.3929 0 24.7321V25.2679C11.0714 25.625 16.125 25.8929 20.1786 29.8214C24.1071 33.875 24.3929 38.9286 24.7321 50H25.2679C25.625 38.9286 25.8929 33.875 29.8214 29.8214C33.875 25.8929 38.9286 25.6071 50 25.2679Z" fill="white"/>
</g>
<defs>
<clipPath id="clip0_38_18">
<rect width="50" height="50" fill="white"/>
</clipPath>
</defs>
</svg>
