<svg width="50" height="50" viewBox="0 0 50 50" fill="none" xmlns="http://www.w3.org/2000/svg">
<path d="M0 24C0 12.6862 0 7.02944 3.51472 3.51472C7.02944 0 12.6862 0 24 0H26C37.3137 0 42.9705 0 46.4853 3.51472C50 7.02944 50 12.6862 50 24V26C50 37.3137 50 42.9705 46.4853 46.4853C42.9705 50 37.3137 50 26 50H24C12.6862 50 7.02944 50 3.51472 46.4853C0 42.9705 0 37.3137 0 26V24Z" fill="#0171E1"/>
<path d="M26.6041 36.0208C15.2082 36.0208 8.70833 28.2083 8.4375 15.2083H14.1458C14.3333 24.7499 18.5416 28.7916 21.8749 29.6249V15.2083H27.2501V23.4374C30.5418 23.0833 33.9997 19.3333 35.1664 15.2083H40.5415C39.6456 20.2916 35.8956 24.0416 33.229 25.5833C35.8956 26.8333 40.1667 30.1041 41.7917 36.0208H35.8748C34.604 32.0624 31.4376 28.9999 27.2501 28.5833V36.0208H26.6041Z" fill="white"/>
</svg>
