<svg width="600" height="406" viewBox="0 0 600 406" fill="none" xmlns="http://www.w3.org/2000/svg">
<path d="M600 405.859H0L107.705 341.231H493.943L600 405.859Z" fill="#D0F0E4"/>
<path d="M344.008 89.9063H236.062V26.4816C236.062 22.1872 239.488 18.7061 243.715 18.7061H336.356C340.582 18.7061 344.008 22.1872 344.008 26.4816V89.9063Z" fill="white"/>
<path fill-rule="evenodd" clip-rule="evenodd" d="M243.714 19.1943C239.753 19.1943 236.543 22.4569 236.543 26.4818V89.4185H343.528V26.4818C343.528 22.4569 340.317 19.1943 336.356 19.1943H243.714ZM344.008 89.9065H344.488V26.4818C344.488 21.9179 340.847 18.2183 336.356 18.2183H243.714C239.223 18.2183 235.582 21.9179 235.582 26.4818V90.3945H344.008V89.9065Z" fill="#66B0F0"/>
<path d="M335.86 85.7747H244.659C242.258 85.7747 240.305 83.7901 240.305 81.3501V26.9861C240.305 24.5461 242.258 22.5615 244.659 22.5615H335.86C338.261 22.5615 340.214 24.5461 340.214 26.9861V81.3664C340.214 83.8064 338.261 85.7747 335.86 85.7747Z" fill="#66B0F0"/>
<path d="M362.93 104.79C367.06 107.523 366.099 112.875 361.217 112.875H214.162C210.048 112.875 208.639 107.23 212.674 104.644L362.93 104.79Z" fill="#66B0F0"/>
<path fill-rule="evenodd" clip-rule="evenodd" d="M212.535 104.156L363.072 104.302L363.192 104.381C365.39 105.836 366.304 108.044 365.924 109.954C365.538 111.894 363.852 113.363 361.217 113.363H214.162C211.852 113.363 210.296 111.763 209.892 109.831C209.488 107.896 210.23 105.633 212.417 104.231L212.535 104.156ZM212.815 105.132C211.059 106.318 210.518 108.126 210.832 109.628C211.153 111.164 212.358 112.387 214.162 112.387H361.217C363.464 112.387 364.7 111.18 364.982 109.761C365.265 108.342 364.626 106.552 362.784 105.278L212.815 105.132Z" fill="#66B0F0"/>
<path d="M361.215 109.15H214.161C211.535 109.15 210.495 106.011 212.672 104.644L236.093 89.9062H343.702L362.912 104.79C364.833 106.271 363.713 109.15 361.215 109.15Z" fill="white"/>
<path fill-rule="evenodd" clip-rule="evenodd" d="M235.958 89.4185H343.866L363.204 104.402C364.343 105.28 364.597 106.605 364.169 107.705C363.744 108.798 362.661 109.638 361.217 109.638H214.162C212.644 109.638 211.544 108.72 211.162 107.565C210.777 106.402 211.136 105.036 212.421 104.229L212.421 104.229M212.421 104.229L235.958 89.4185L212.421 104.229ZM236.231 90.3945L212.927 105.059L212.926 105.059C212.034 105.619 211.825 106.506 212.072 107.254C212.323 108.011 213.056 108.662 214.162 108.662H361.217C362.27 108.662 362.997 108.063 363.276 107.346C363.552 106.637 363.406 105.782 362.624 105.18L343.541 90.3945H236.231Z" fill="#66B0F0"/>
<path d="M344.248 104.709H231.132C229.114 104.709 228.314 102.285 229.979 101.244L246.244 89.9062H330.769L345.545 101.358C347.033 102.497 346.169 104.709 344.248 104.709Z" fill="white"/>
<path fill-rule="evenodd" clip-rule="evenodd" d="M246.094 89.4185H330.93L345.833 100.968C345.833 100.969 345.834 100.969 345.834 100.969C346.756 101.675 346.968 102.748 346.621 103.64C346.278 104.524 345.403 105.197 344.247 105.197H231.131C229.915 105.197 229.029 104.457 228.719 103.523C228.408 102.585 228.693 101.482 229.716 100.836L246.094 89.4185ZM246.392 90.3945L230.24 101.654L230.23 101.66C229.597 102.056 229.453 102.68 229.629 103.211C229.808 103.75 230.33 104.221 231.131 104.221H344.247C345.013 104.221 345.531 103.788 345.728 103.282C345.921 102.783 345.821 102.181 345.255 101.748L345.254 101.747L345.253 101.746L330.606 90.3945H246.392Z" fill="#66B0F0"/>
<path fill-rule="evenodd" clip-rule="evenodd" d="M337.907 105.057L323.115 90.254L323.789 89.5586L338.581 104.361L337.907 105.057Z" fill="#66B0F0"/>
<path fill-rule="evenodd" clip-rule="evenodd" d="M328.281 105.034L315.25 90.2313L315.966 89.5806L328.997 104.383L328.281 105.034Z" fill="#66B0F0"/>
<path fill-rule="evenodd" clip-rule="evenodd" d="M319.199 105.009L307.896 90.2057L308.655 89.6074L319.957 104.41L319.199 105.009Z" fill="#66B0F0"/>
<path fill-rule="evenodd" clip-rule="evenodd" d="M309.235 104.977L299.678 90.1741L300.481 89.6387L310.038 104.442L309.235 104.977Z" fill="#66B0F0"/>
<path fill-rule="evenodd" clip-rule="evenodd" d="M297.477 104.858L292.818 90.0556L293.733 89.7583L298.392 104.561L297.477 104.858Z" fill="#66B0F0"/>
<path fill-rule="evenodd" clip-rule="evenodd" d="M237.982 104.361L252.774 89.5586L253.448 90.254L238.656 105.057L237.982 104.361Z" fill="#66B0F0"/>
<path fill-rule="evenodd" clip-rule="evenodd" d="M247.566 104.383L260.597 89.5806L261.313 90.2313L248.282 105.034L247.566 104.383Z" fill="#66B0F0"/>
<path fill-rule="evenodd" clip-rule="evenodd" d="M256.605 104.41L267.907 89.6074L268.666 90.2057L257.364 105.009L256.605 104.41Z" fill="#66B0F0"/>
<path fill-rule="evenodd" clip-rule="evenodd" d="M266.525 104.442L276.082 89.6387L276.886 90.1741L267.328 104.977L266.525 104.442Z" fill="#66B0F0"/>
<path fill-rule="evenodd" clip-rule="evenodd" d="M278.172 104.561L282.83 89.7578L283.745 90.0551L279.087 104.858L278.172 104.561Z" fill="#66B0F0"/>
<path fill-rule="evenodd" clip-rule="evenodd" d="M288.377 89.9062V104.888H287.416V89.9062H288.377Z" fill="#66B0F0"/>
<path fill-rule="evenodd" clip-rule="evenodd" d="M337.923 95.9247H238.318V94.9487H337.923V95.9247Z" fill="#66B0F0"/>
<path d="M328.27 85.7737H247.283L248.74 75.2815C249.636 68.8236 254.199 63.5206 260.362 61.7312L280.101 57.5669H295.453L315.191 61.7312C321.371 63.5043 325.933 68.8236 326.814 75.2815L328.27 85.7737Z" fill="#FFCF2D"/>
<path d="M293.244 69.5557L287.401 63.5532C287.273 63.4231 287.273 63.2116 287.401 63.0978C287.529 62.9676 287.737 62.9676 287.849 63.0978L293.212 68.6122L301.536 59.031C301.648 58.9009 301.856 58.8846 301.985 58.9985C302.113 59.1124 302.129 59.3238 302.017 59.454L293.244 69.5557Z" fill="white"/>
<path d="M282.39 69.5559L273.618 59.4542C273.505 59.324 273.505 59.1126 273.65 58.9987C273.778 58.8848 273.986 58.8848 274.098 59.0312L282.422 68.6124L287.785 63.098C287.913 62.9678 288.105 62.9678 288.233 63.098C288.361 63.2281 288.361 63.4233 288.233 63.5534L282.39 69.5559Z" fill="white"/>
<path d="M287.914 73.4764C287.146 73.4764 286.521 72.842 286.521 72.0612C286.521 71.2804 287.146 70.646 287.914 70.646C288.683 70.646 289.307 71.2804 289.307 72.0612C289.307 72.842 288.683 73.4764 287.914 73.4764ZM287.914 71.2967C287.498 71.2967 287.162 71.6383 287.162 72.0612C287.162 72.4841 287.498 72.8258 287.914 72.8258C288.33 72.8258 288.667 72.4841 288.667 72.0612C288.667 71.6383 288.33 71.2967 287.914 71.2967Z" fill="white"/>
<path d="M287.914 81.4471C287.146 81.4471 286.521 80.8127 286.521 80.0319C286.521 79.2511 287.146 78.6167 287.914 78.6167C288.683 78.6167 289.307 79.2511 289.307 80.0319C289.307 80.8127 288.683 81.4471 287.914 81.4471ZM287.914 79.2674C287.498 79.2674 287.162 79.609 287.162 80.0319C287.162 80.4549 287.498 80.7965 287.914 80.7965C288.33 80.7965 288.667 80.4549 288.667 80.0319C288.667 79.609 288.33 79.2674 287.914 79.2674Z" fill="white"/>
<path d="M280.007 85.4323H253.849L246.869 64.3829L273.027 56.77L280.007 85.4323Z" fill="white"/>
<path fill-rule="evenodd" clip-rule="evenodd" d="M273.256 56.3643L280.414 85.7575H253.617L246.457 64.1639L273.256 56.3643ZM247.278 64.6018L254.077 85.1068H279.596L272.794 57.1756L247.278 64.6018Z" fill="#66B0F0"/>
<path d="M255.207 67.116H254.711C253.446 67.116 252.422 66.0749 252.422 64.7898V57.486C252.422 56.9654 252.838 56.5425 253.35 56.5425H255.511C256.024 56.5425 256.44 56.9654 256.44 57.486V65.8472C256.456 66.5466 255.896 67.116 255.207 67.116Z" fill="white"/>
<path fill-rule="evenodd" clip-rule="evenodd" d="M253.35 56.8675C253.015 56.8675 252.742 57.1448 252.742 57.4856V64.7895C252.742 65.8949 253.623 66.7903 254.711 66.7903H255.207C255.72 66.7903 256.131 66.3668 256.12 65.8544L256.12 65.8506V57.4856C256.12 57.1447 255.847 56.8675 255.511 56.8675H253.35ZM252.102 57.4856C252.102 56.7854 252.661 56.2168 253.35 56.2168H255.511C256.2 56.2168 256.76 56.7854 256.76 57.4856V65.8432C256.778 66.7279 256.07 67.441 255.207 67.441H254.711C253.269 67.441 252.102 66.2542 252.102 64.7895V57.4856Z" fill="#66B0F0"/>
<path d="M265.741 67.116H266.237C267.502 67.116 268.526 66.0749 268.526 64.7898V57.486C268.526 56.9654 268.11 56.5425 267.598 56.5425H265.421C264.908 56.5425 264.492 56.9654 264.492 57.486V65.8472C264.492 66.5466 265.052 67.116 265.741 67.116Z" fill="white"/>
<path d="M259.225 67.9617H258.072C257.175 67.9617 256.455 67.2297 256.455 66.3188V57.5021C256.455 56.9815 256.871 56.5586 257.384 56.5586H259.545C260.057 56.5586 260.473 56.9815 260.473 57.5021V66.6929C260.473 67.3924 259.913 67.9617 259.225 67.9617Z" fill="white"/>
<path d="M263.26 68.2872H262.3C261.291 68.2872 260.475 67.4576 260.475 66.4328V57.486C260.475 56.9654 260.891 56.5425 261.403 56.5425H263.564C264.076 56.5425 264.493 56.9654 264.493 57.486V67.0184C264.493 67.7178 263.932 68.2872 263.26 68.2872Z" fill="white"/>
<path fill-rule="evenodd" clip-rule="evenodd" d="M264.172 57.4856C264.172 56.7854 264.731 56.2168 265.421 56.2168H267.598C268.287 56.2168 268.846 56.7854 268.846 57.4856V64.7895C268.846 66.2542 267.678 67.441 266.237 67.441H265.741C264.876 67.441 264.172 66.726 264.172 65.8468V57.4856ZM265.421 56.8675C265.085 56.8675 264.812 57.1448 264.812 57.4856V65.8468C264.812 66.3666 265.229 66.7903 265.741 66.7903H266.237C267.325 66.7903 268.206 65.8949 268.206 64.7895V57.4856C268.206 57.1447 267.933 56.8675 267.598 56.8675H265.421Z" fill="#66B0F0"/>
<path fill-rule="evenodd" clip-rule="evenodd" d="M257.385 56.8836C257.05 56.8836 256.777 57.1609 256.777 57.5017V66.3184C256.777 67.0497 257.354 67.636 258.074 67.636H259.226C259.738 67.636 260.155 67.2123 260.155 66.6925V57.5017C260.155 57.1609 259.882 56.8836 259.547 56.8836H257.385ZM256.137 57.5017C256.137 56.8015 256.696 56.2329 257.385 56.2329H259.547C260.236 56.2329 260.795 56.8015 260.795 57.5017V66.6925C260.795 67.5717 260.092 68.2867 259.226 68.2867H258.074C257 68.2867 256.137 67.409 256.137 66.3184V57.5017Z" fill="#66B0F0"/>
<path fill-rule="evenodd" clip-rule="evenodd" d="M261.403 56.8675C261.068 56.8675 260.795 57.1447 260.795 57.4856V66.4324C260.795 67.2776 261.468 67.9615 262.299 67.9615H263.26C263.753 67.9615 264.172 67.5406 264.172 67.018V57.4856C264.172 57.1448 263.9 56.8675 263.564 56.8675H261.403ZM260.154 57.4856C260.154 56.7854 260.714 56.2168 261.403 56.2168H263.564C264.253 56.2168 264.813 56.7854 264.813 57.4856V67.018C264.813 67.8944 264.112 68.6122 263.26 68.6122H262.299C261.114 68.6122 260.154 67.6369 260.154 66.4324V57.4856Z" fill="#66B0F0"/>
<path d="M295.47 48.002V59.8768C295.47 61.9264 292.028 63.6019 287.786 63.6019C283.543 63.6019 280.102 61.9264 280.102 59.8768V48.002H295.47Z" fill="white"/>
<path d="M295.469 48.002C295.469 56.965 289.818 59.6328 284.391 59.1611C284.375 59.1611 284.359 59.1611 284.343 59.1611C281.942 58.9333 280.117 56.8512 280.117 54.4111V48.0182H295.469V48.002Z" fill="#66B0F0"/>
<path d="M299.039 44.9436V45.5455C299.039 46.8794 297.982 47.953 296.67 47.953H295.453L295.469 48.2295C295.469 52.0685 292.411 55.1755 288.633 55.1755H286.952C283.174 55.1755 280.117 52.0685 280.117 48.2295L280.133 47.953H278.916C277.603 47.953 276.547 46.8794 276.547 45.5455V44.9436C276.547 43.6097 277.603 42.5361 278.916 42.5361H280.469L280.645 39.5918C280.645 39.1363 280.709 38.6971 280.837 38.2905C285.416 39.4454 290.778 36.4523 292.219 35.5576C293.82 36.1758 294.957 37.7374 294.957 39.5755L295.133 42.5199H296.686C297.982 42.5361 299.039 43.6097 299.039 44.9436Z" fill="white"/>
<path d="M296.782 42.5364H295.117L294.941 39.5921C294.941 37.7539 293.805 36.1923 292.204 35.5741C290.763 36.4526 285.4 39.4457 280.822 38.307C280.694 38.7137 280.63 39.1529 280.63 39.6083L280.453 42.5526H279.413C279.413 42.5526 277.284 32.0768 279.381 30.1573C280.934 28.7421 295.149 31.8328 296.718 34.0288C297.599 35.2813 296.782 42.5364 296.782 42.5364Z" fill="#E57281"/>
<path d="M292.778 41.9022C292.73 41.9022 292.666 41.8859 292.618 41.8371C292.602 41.8209 291.561 40.9587 289.896 40.9587C289.768 40.9587 289.656 40.8448 289.656 40.7147C289.656 40.5846 289.768 40.4707 289.896 40.4707C291.737 40.4707 292.874 41.4142 292.922 41.463C293.018 41.5443 293.034 41.707 292.954 41.8046C292.922 41.8697 292.842 41.9022 292.778 41.9022Z" fill="#66B0F0"/>
<path d="M286.696 46.9452C286.664 46.9452 286.632 46.9452 286.616 46.9289C286.488 46.8801 286.424 46.7337 286.472 46.6198C286.92 45.4161 286.808 43.9033 286.184 42.5694C285.815 41.756 285.287 41.1704 284.823 41.0078C283.798 40.6499 282.358 41.1542 282.342 41.1542C282.214 41.203 282.085 41.1379 282.037 41.0078C281.989 40.8776 282.053 40.7475 282.181 40.6987C282.246 40.6824 283.782 40.1456 284.967 40.5523C285.559 40.7638 286.168 41.4307 286.6 42.3742C287.272 43.8219 287.384 45.4812 286.904 46.815C286.888 46.8801 286.792 46.9452 286.696 46.9452Z" fill="#66B0F0"/>
<path d="M289.851 49.5316C289.867 49.6617 289.755 49.7756 289.627 49.7918H289.611C289.483 49.7918 289.387 49.6942 289.371 49.5641C289.355 49.4014 289.323 49.2388 289.275 49.0924C288.586 49.434 287.962 49.5478 287.45 49.5478C286.441 49.5478 285.833 49.1249 285.801 49.0924C285.689 49.011 285.673 48.8646 285.737 48.7508C285.817 48.6369 285.961 48.6206 286.073 48.6857C286.105 48.702 286.617 49.0598 287.45 49.0598C287.898 49.0598 288.442 48.9622 289.066 48.6532C288.97 48.4905 288.874 48.3929 288.874 48.3929C288.778 48.2953 288.794 48.1326 288.89 48.0513C288.986 47.97 289.147 47.97 289.227 48.0676C289.259 48.1164 289.803 48.7345 289.851 49.5316Z" fill="#66B0F0"/>
<path d="M290.714 44.8825C290.935 44.8685 291.091 44.4937 291.064 44.0454C291.036 43.597 290.835 43.2449 290.614 43.2589C290.394 43.2729 290.237 43.6476 290.265 44.096C290.292 44.5443 290.493 44.8964 290.714 44.8825Z" fill="#66B0F0"/>
<path d="M284.178 44.8176C284.381 44.8048 284.525 44.46 284.5 44.0475C284.474 43.635 284.289 43.311 284.086 43.3239C283.883 43.3367 283.739 43.6816 283.765 44.094C283.79 44.5065 283.975 44.8305 284.178 44.8176Z" fill="#66B0F0"/>
<path d="M279.7 45.7246C279.572 45.7246 279.46 45.6107 279.46 45.4806C279.46 44.7649 278.884 44.1955 278.195 44.1955C278.067 44.1955 277.955 44.0817 277.955 43.9515C277.955 43.8214 278.067 43.7075 278.195 43.7075C279.156 43.7075 279.94 44.5046 279.94 45.4806C279.94 45.627 279.828 45.7246 279.7 45.7246Z" fill="#66B0F0"/>
<path d="M295.805 45.7246C295.677 45.7246 295.564 45.6107 295.564 45.4806C295.564 44.5046 296.349 43.7075 297.309 43.7075C297.437 43.7075 297.549 43.8214 297.549 43.9515C297.549 44.0817 297.437 44.1955 297.309 44.1955C296.605 44.1955 296.045 44.7811 296.045 45.4806C296.045 45.627 295.949 45.7246 295.805 45.7246Z" fill="#66B0F0"/>
<path fill-rule="evenodd" clip-rule="evenodd" d="M79.8703 175.498C81.2583 170.621 85.6404 167.272 90.6251 167.272H506.767C511.7 167.272 516.066 170.551 517.488 175.345L517.488 175.346M80.793 175.769L15.3662 405.994L14.4434 405.723L79.8703 175.498L79.8703 175.498M80.793 175.769C80.793 175.769 80.793 175.769 80.7931 175.769C82.0625 171.308 86.0689 168.248 90.6251 168.248H506.767C511.279 168.248 515.27 171.248 516.569 175.628L516.569 175.628L585.133 406L586.053 405.717L517.488 175.346" fill="#66B0F0"/>
<path fill-rule="evenodd" clip-rule="evenodd" d="M386.638 90.3949H204.621V89.4189H386.638V90.3949Z" fill="#66B0F0"/>
<path d="M267.791 124.914H310.79V162.442H267.791C267.791 162.442 267.791 123.499 267.791 124.914Z" fill="#FFCF2D"/>
<path d="M428.581 299.28L408.586 248.689H440.779L428.581 299.28Z" fill="#9A3B82"/>
<path d="M373.719 181.166C378.009 172.918 386.446 167.762 395.618 167.762H420.384L437.209 181.166H373.719Z" fill="#9A3B82"/>
<path d="M467.608 240.394H405.223L428.708 298.321C427.075 295.62 417.294 298.435 406.936 304.892C396.707 311.269 389.791 318.947 391.2 321.745L340.581 232.245C327.454 209.666 343.462 181.167 369.268 181.167H509.07L509.375 182.143C518.499 210.935 497.368 240.394 467.608 240.394Z" fill="#3FB1B5"/>
<path d="M511.489 197.775C511.265 203.062 510.112 208.169 508.159 212.903L434.84 181.183H507.615L509.312 186.225C510.496 189.251 511.153 193.497 511.489 197.775Z" fill="#E6E6E6"/>
<path d="M428.725 298.32C430.358 301.02 423.218 308.389 412.876 314.847C402.519 321.305 392.897 324.542 391.265 321.842C389.632 319.141 396.595 311.512 406.953 305.054C417.295 298.596 427.076 295.619 428.725 298.32Z" fill="#66B0F0"/>
<path fill-rule="evenodd" clip-rule="evenodd" d="M475.53 185.292C475.79 185.237 476.044 185.405 476.099 185.669C478.627 197.847 469.483 209.308 457.235 209.308H368.564C361.617 209.308 357.252 216.908 360.642 223.058C360.642 223.059 360.642 223.059 360.643 223.059L406.17 304.847C406.301 305.082 406.219 305.38 405.988 305.512C405.757 305.645 405.464 305.562 405.334 305.328L359.806 223.538L359.805 223.536C356.056 216.738 360.88 208.332 368.564 208.332H457.235C468.873 208.332 477.562 197.442 475.159 185.871C475.105 185.607 475.271 185.348 475.53 185.292Z" fill="white"/>
<path fill-rule="evenodd" clip-rule="evenodd" d="M421.887 297.946C418.186 298.883 413.242 301.181 407.194 304.761C401.837 307.935 397.415 311.65 394.543 314.891C393.105 316.515 392.071 318.002 391.497 319.228C391.211 319.841 391.048 320.37 390.999 320.805C390.949 321.239 391.014 321.549 391.145 321.766C391.284 321.995 391.213 322.296 390.987 322.437C390.761 322.578 390.466 322.506 390.327 322.277C390.05 321.818 389.978 321.27 390.044 320.692C390.11 320.116 390.316 319.48 390.63 318.809C391.258 317.465 392.358 315.899 393.829 314.238C396.776 310.913 401.278 307.136 406.711 303.918L406.711 303.917C412.782 300.324 417.82 297.97 421.655 296.999C423.571 296.514 425.223 296.365 426.569 296.605C427.931 296.847 428.991 297.492 429.66 298.583C429.801 298.811 429.732 299.112 429.507 299.255C429.282 299.398 428.986 299.328 428.845 299.099C428.346 298.287 427.549 297.77 426.403 297.566C425.243 297.359 423.738 297.478 421.887 297.946Z" fill="white"/>
<path fill-rule="evenodd" clip-rule="evenodd" d="M399.675 226.686C399.92 226.582 400.202 226.699 400.304 226.947L430.048 299.01C430.151 299.258 430.036 299.544 429.791 299.648C429.546 299.753 429.265 299.636 429.162 299.387L399.418 227.325C399.316 227.076 399.431 226.79 399.675 226.686Z" fill="white"/>
<path fill-rule="evenodd" clip-rule="evenodd" d="M440.09 181.117H367.523V180.141H440.09V181.117Z" fill="white"/>
<path d="M408.568 325.567L404.246 319.581L398.291 311.35C400.724 309.267 403.654 307.104 406.936 305.054C413.467 300.988 419.758 298.287 423.937 297.539L426.834 303.411L430.452 310.732C427.891 319.987 408.568 325.567 408.568 325.567Z" fill="#E57281"/>
<path d="M426.85 303.411C424.16 306.746 419.102 310.959 412.874 314.847C409.881 316.718 406.951 318.312 404.262 319.581L398.307 311.35C400.74 309.267 403.669 307.104 406.951 305.054C413.483 300.988 419.774 298.287 423.952 297.539L426.85 303.411Z" fill="#9A3B82"/>
<path d="M450.242 342.989L406.314 375.051C402.584 377.686 396.789 379.882 397.558 370.35C398.63 357.206 401.496 337.653 408.571 325.551C408.876 325.469 427.894 319.89 430.455 310.715L450.482 325.177C456.245 329.731 456.117 338.613 450.242 342.989Z" fill="white"/>
<path fill-rule="evenodd" clip-rule="evenodd" d="M430.177 309.917L450.766 324.785L450.775 324.791C456.789 329.545 456.656 338.815 450.524 343.382L450.522 343.384L406.589 375.449L406.586 375.452C405.635 376.124 404.54 376.776 403.44 377.222C402.348 377.664 401.201 377.922 400.167 377.744C399.096 377.56 398.196 376.916 397.638 375.68C397.095 374.476 396.882 372.728 397.077 370.31L397.077 370.309C397.614 363.724 398.601 355.527 400.342 347.455C402.082 339.39 404.58 331.418 408.156 325.301L408.257 325.13L408.447 325.079C408.447 325.079 408.449 325.078 408.452 325.077L408.467 325.073C408.479 325.07 408.496 325.065 408.518 325.058C408.562 325.045 408.622 325.027 408.7 325.004C408.854 324.957 409.072 324.889 409.347 324.801C409.896 324.624 410.668 324.366 411.595 324.029C413.449 323.355 415.918 322.37 418.453 321.105C420.991 319.838 423.581 318.298 425.689 316.517C427.802 314.732 429.388 312.74 429.991 310.582L430.177 309.917ZM430.707 311.497C429.918 313.661 428.289 315.59 426.303 317.268C424.115 319.116 421.451 320.696 418.876 321.981C414.252 324.289 409.858 325.674 408.886 325.966C405.437 331.931 402.995 339.715 401.28 347.664C399.551 355.681 398.569 363.832 398.034 370.39C397.845 372.738 398.068 374.29 398.512 375.273C398.941 376.224 399.579 376.653 400.327 376.782C401.111 376.917 402.065 376.728 403.084 376.315C404.095 375.906 405.122 375.297 406.035 374.652C406.036 374.652 406.037 374.651 406.038 374.65L449.956 342.595C449.956 342.595 449.957 342.594 449.958 342.594C455.571 338.411 455.696 329.926 450.193 325.568L430.707 311.497Z" fill="#FFCF2D"/>
<path fill-rule="evenodd" clip-rule="evenodd" d="M432.792 312.052C433.047 312.126 433.195 312.395 433.123 312.655C432.33 315.492 430.469 318.047 428.113 320.264C425.754 322.483 422.872 324.388 419.989 325.922C417.105 327.457 414.206 328.629 411.802 329.376C410.601 329.749 409.516 330.019 408.615 330.173C407.729 330.326 406.971 330.377 406.446 330.276C406.186 330.227 406.014 329.971 406.063 329.707C406.112 329.442 406.363 329.267 406.624 329.317C406.972 329.384 407.589 329.36 408.455 329.211C409.305 329.065 410.348 328.807 411.521 328.443C413.868 327.713 416.712 326.565 419.543 325.058C422.376 323.55 425.181 321.692 427.46 319.547C429.742 317.401 431.471 314.992 432.199 312.388C432.271 312.129 432.537 311.978 432.792 312.052Z" fill="#FFCF2D"/>
<path d="M401.813 371.749C401.813 371.749 430.485 331.277 450.879 333.554C473.083 336.01 383.659 395.352 401.813 371.749Z" fill="#FFCF2D"/>
<path fill-rule="evenodd" clip-rule="evenodd" d="M400.059 370.83C400.059 370.831 400.059 370.831 399.67 370.545L400.059 370.831L400.054 370.838L400.048 370.845C398.48 372.886 398.355 374.418 398.727 375.364C399.103 376.319 400.042 376.837 400.968 376.776C401.232 376.759 401.461 376.963 401.478 377.232C401.495 377.501 401.294 377.733 401.03 377.75C399.73 377.836 398.38 377.11 397.835 375.726C397.288 374.335 397.609 372.437 399.286 370.252L399.286 370.251L399.303 370.228C399.318 370.207 399.34 370.177 399.368 370.137C399.426 370.056 399.512 369.938 399.624 369.784C399.849 369.475 400.181 369.024 400.612 368.45C401.472 367.304 402.724 365.669 404.292 363.716C407.428 359.81 411.834 354.624 416.907 349.511C421.978 344.4 427.729 339.348 433.558 335.72C439.377 332.098 445.337 329.855 450.805 330.466C452.577 330.66 453.818 331.502 454.494 332.668C455.164 333.821 455.249 335.235 454.827 336.523C454.743 336.778 454.471 336.916 454.219 336.831C453.968 336.746 453.832 336.47 453.915 336.214C454.261 335.159 454.178 334.044 453.667 333.164C453.163 332.296 452.211 331.601 450.702 331.437L450.701 331.436C445.547 330.86 439.811 332.972 434.06 336.552C428.32 340.125 422.628 345.12 417.583 350.204C412.541 355.286 408.159 360.444 405.036 364.333C403.475 366.277 402.23 367.903 401.375 369.042C400.948 369.612 400.619 370.06 400.396 370.365C400.285 370.517 400.2 370.634 400.144 370.713C400.115 370.752 400.094 370.782 400.08 370.801L400.064 370.824L400.059 370.83Z" fill="#FFCF2D"/>
<path d="M511.649 201.075C501.5 198.635 476.239 192.21 447.423 185.443C433.88 182.271 422.546 172.901 416.703 160.083L390.465 102.4L406.345 76.8289C411.228 68.9557 419.552 63.9455 428.693 63.3762L444.318 62.4001C460.07 61.4241 472.717 71.412 477.519 86.6866L509.296 181.165C512.786 190.014 511.649 201.075 511.649 201.075Z" fill="white"/>
<path fill-rule="evenodd" clip-rule="evenodd" d="M444.346 62.8875C444.346 62.8875 444.345 62.8875 444.345 62.8875L428.721 63.8635C419.735 64.4233 411.55 69.349 406.75 77.0893L391.009 102.437L417.137 159.878C422.918 172.56 434.131 181.83 447.53 184.968L447.53 184.968C467.438 189.643 485.658 194.157 498.363 197.305C503.727 198.634 508.107 199.719 511.217 200.47C511.24 200.159 511.268 199.724 511.291 199.187C511.343 198.023 511.376 196.378 511.3 194.458C511.149 190.612 510.565 185.697 508.849 181.347L508.844 181.335L477.063 86.8447L477.062 86.8401L477.06 86.8354C472.316 71.7464 459.852 61.9269 444.346 62.8875ZM511.648 201.076L512.126 201.126L512.069 201.678L511.537 201.551C508.394 200.795 503.808 199.658 498.119 198.249C485.416 195.102 467.217 190.593 447.314 185.919C433.626 182.713 422.171 173.243 416.266 160.288L416.265 160.288L389.918 102.365L405.938 76.569C410.903 68.5629 419.367 63.4683 428.662 62.8893C428.662 62.8893 428.662 62.8893 428.662 62.8893L444.287 61.9133C460.284 60.9222 473.112 71.076 477.974 86.5333C477.974 86.535 477.975 86.5367 477.975 86.5384L509.745 180.995C511.516 185.491 512.107 190.526 512.26 194.419C512.337 196.371 512.303 198.045 512.251 199.231C512.225 199.824 512.194 200.296 512.169 200.621C512.157 200.783 512.146 200.908 512.138 200.994C512.136 201.015 512.135 201.033 512.133 201.049C512.132 201.066 512.13 201.08 512.129 201.091L512.127 201.117L512.126 201.124L512.126 201.125L512.126 201.126C512.126 201.126 512.126 201.126 511.648 201.076Z" fill="#FE5244"/>
<path fill-rule="evenodd" clip-rule="evenodd" d="M403.875 105.9C403.875 105.9 403.875 105.9 404.28 105.638C404.685 105.376 404.685 105.376 404.685 105.375L404.685 105.376L404.686 105.377L404.689 105.382C404.693 105.388 404.698 105.396 404.706 105.408C404.721 105.431 404.744 105.467 404.775 105.514C404.838 105.608 404.935 105.748 405.064 105.929C405.324 106.291 405.717 106.814 406.249 107.453C407.314 108.73 408.933 110.467 411.141 112.297C415.556 115.956 422.326 119.982 431.743 121.438L431.598 122.403C421.981 120.916 415.056 116.8 410.534 113.053C408.274 111.18 406.613 109.399 405.516 108.083C404.968 107.425 404.56 106.883 404.288 106.504C404.152 106.314 404.05 106.165 403.981 106.063C403.947 106.011 403.921 105.972 403.903 105.944C403.894 105.931 403.887 105.92 403.883 105.913L403.877 105.904L403.876 105.901L403.875 105.9Z" fill="#FE5244"/>
<path d="M415.549 81.3677C414.684 80.4243 413.164 80.6845 412.635 81.8395C412.043 83.1408 413.116 84.5886 414.508 84.3771C415.933 84.1657 416.525 82.4251 415.549 81.3677Z" fill="#FFCF2D"/>
<path fill-rule="evenodd" clip-rule="evenodd" d="M412.199 81.6333C412.869 80.1684 414.799 79.8346 415.899 81.034C417.14 82.3788 416.385 84.5905 414.577 84.8594C412.809 85.1273 411.445 83.2892 412.198 81.6341L412.199 81.6333L412.199 81.6333ZM413.07 82.0442C412.639 82.9915 413.42 84.0483 414.436 83.894L414.438 83.8937L414.438 83.8937C415.479 83.7393 415.908 82.471 415.198 81.7012L415.196 81.6998L415.196 81.6998C414.567 81.0131 413.456 81.1998 413.07 82.0442Z" fill="#FE5244"/>
<path d="M455.426 109.168C454.561 108.224 453.041 108.484 452.512 109.639C451.92 110.941 452.993 112.388 454.385 112.177C455.81 111.965 456.402 110.225 455.426 109.168Z" fill="#FFCF2D"/>
<path fill-rule="evenodd" clip-rule="evenodd" d="M452.078 109.434C452.748 107.969 454.678 107.635 455.777 108.834C457.018 110.179 456.264 112.391 454.456 112.66C452.687 112.928 451.324 111.089 452.077 109.434L452.078 109.434L452.078 109.434ZM452.949 109.845C452.518 110.792 453.299 111.849 454.315 111.694L454.317 111.694L454.317 111.694C455.357 111.54 455.787 110.271 455.076 109.501L455.075 109.5L455.075 109.5C454.446 108.813 453.335 109 452.949 109.845Z" fill="#FE5244"/>
<path d="M468.057 120.554C467.192 119.611 465.671 119.871 465.143 121.026C464.551 122.327 465.623 123.775 467.016 123.564C468.425 123.368 469.017 121.628 468.057 120.554Z" fill="#FFCF2D"/>
<path fill-rule="evenodd" clip-rule="evenodd" d="M464.708 120.82C465.379 119.355 467.309 119.022 468.409 120.222L468.413 120.226C469.621 121.576 468.892 123.794 467.085 124.047C465.317 124.313 463.955 122.475 464.708 120.821L464.708 120.82L464.708 120.82ZM465.58 121.231C465.149 122.179 465.93 123.235 466.946 123.081L466.952 123.08C467.96 122.941 468.414 121.681 467.704 120.885C467.075 120.201 465.966 120.388 465.58 121.231Z" fill="#FE5244"/>
<path d="M492.278 184.987C491.413 184.044 489.892 184.304 489.364 185.459C488.772 186.76 489.844 188.208 491.237 187.997C492.646 187.785 493.238 186.061 492.278 184.987Z" fill="#FFCF2D"/>
<path fill-rule="evenodd" clip-rule="evenodd" d="M488.927 185.254C489.597 183.789 491.528 183.455 492.628 184.655L492.632 184.66C493.845 186.016 493.103 188.21 491.306 188.48C489.537 188.748 488.173 186.91 488.927 185.255L488.927 185.254L488.927 185.254ZM489.798 185.665C489.368 186.612 490.148 187.669 491.165 187.515L491.166 187.514C492.185 187.361 492.628 186.109 491.923 185.318C491.293 184.634 490.185 184.821 489.798 185.665Z" fill="#FE5244"/>
<path d="M478.719 154.194C477.854 153.251 476.334 153.511 475.805 154.666C475.213 155.968 476.285 157.415 477.678 157.204C479.103 156.992 479.695 155.252 478.719 154.194Z" fill="#FFCF2D"/>
<path fill-rule="evenodd" clip-rule="evenodd" d="M475.369 154.46C476.039 152.995 477.969 152.661 479.069 153.861C480.31 155.206 479.555 157.417 477.747 157.686C475.978 157.954 474.615 156.116 475.368 154.461L475.369 154.46L475.369 154.46ZM476.24 154.871C475.809 155.818 476.59 156.875 477.606 156.721L477.608 156.72L477.608 156.72C478.648 156.566 479.078 155.298 478.367 154.528L478.366 154.526L478.366 154.526C477.737 153.84 476.626 154.026 476.24 154.871Z" fill="#FE5244"/>
<path d="M484.338 132.038C483.089 132.201 482.401 133.616 483.025 134.722C483.729 135.975 485.506 135.926 486.147 134.641C486.803 133.34 485.747 131.843 484.338 132.038Z" fill="#FFCF2D"/>
<path fill-rule="evenodd" clip-rule="evenodd" d="M486.575 134.863C485.762 136.492 483.503 136.556 482.608 134.965C481.815 133.559 482.687 131.763 484.275 131.555C486.065 131.308 487.408 133.21 486.575 134.863ZM485.72 134.419C486.198 133.47 485.429 132.38 484.403 132.522L484.399 132.523C483.491 132.641 482.987 133.675 483.442 134.48L483.442 134.481C483.956 135.395 485.25 135.36 485.719 134.421L485.72 134.419Z" fill="#FE5244"/>
<path d="M494.566 164.898C493.318 165.06 492.629 166.476 493.254 167.582C493.958 168.834 495.735 168.785 496.375 167.5C497.032 166.199 495.991 164.702 494.566 164.898Z" fill="#FFCF2D"/>
<path fill-rule="evenodd" clip-rule="evenodd" d="M496.803 167.722C495.99 169.351 493.732 169.415 492.837 167.824C492.043 166.418 492.916 164.622 494.504 164.414C496.313 164.167 497.635 166.071 496.803 167.722ZM495.948 167.278C496.428 166.326 495.67 165.239 494.631 165.381L494.628 165.382C493.719 165.5 493.216 166.534 493.67 167.339L493.671 167.34C494.185 168.254 495.479 168.219 495.947 167.28L495.948 167.278Z" fill="#FE5244"/>
<path d="M452.145 129.452C451.28 128.509 449.759 128.769 449.231 129.924C448.639 131.225 449.711 132.673 451.104 132.462C452.513 132.25 453.105 130.526 452.145 129.452Z" fill="#FFCF2D"/>
<path fill-rule="evenodd" clip-rule="evenodd" d="M448.796 129.718C449.466 128.253 451.397 127.919 452.497 129.12L452.501 129.124C453.714 130.48 452.972 132.674 451.175 132.944C449.406 133.213 448.043 131.374 448.796 129.719L448.796 129.718L448.796 129.718ZM449.667 130.129C449.237 131.077 450.018 132.133 451.034 131.979L451.035 131.979C452.054 131.826 452.497 130.574 451.792 129.783C451.162 129.098 450.054 129.286 449.667 130.129Z" fill="#FE5244"/>
<path d="M443.324 147.882C442.46 146.939 440.939 147.199 440.411 148.354C439.818 149.655 440.891 151.103 442.284 150.892C443.708 150.68 444.301 148.94 443.324 147.882Z" fill="#FFCF2D"/>
<path fill-rule="evenodd" clip-rule="evenodd" d="M439.974 148.148C440.644 146.684 442.574 146.35 443.674 147.549C444.915 148.894 444.161 151.106 442.353 151.375C440.584 151.642 439.22 149.804 439.974 148.149L439.974 148.148L439.974 148.148ZM440.845 148.559C440.414 149.507 441.195 150.563 442.212 150.409L442.213 150.409L442.213 150.409C443.254 150.254 443.684 148.986 442.973 148.216L442.972 148.215L442.972 148.215C442.342 147.528 441.232 147.715 440.845 148.559Z" fill="#FE5244"/>
<path d="M427.54 141.441C428.469 140.562 428.213 139.017 427.076 138.48C425.796 137.878 424.371 138.968 424.579 140.383C424.787 141.815 426.484 142.417 427.54 141.441Z" fill="#FFCF2D"/>
<path fill-rule="evenodd" clip-rule="evenodd" d="M424.102 140.455C423.838 138.657 425.647 137.272 427.276 138.037L427.277 138.037C428.719 138.718 429.047 140.68 427.866 141.798L427.862 141.802C426.527 143.035 424.368 142.281 424.102 140.455ZM426.872 138.923C425.94 138.485 424.9 139.279 425.052 140.311L425.052 140.312C425.203 141.348 426.435 141.798 427.213 141.081C427.887 140.442 427.702 139.315 426.872 138.923Z" fill="#FE5244"/>
<path d="M441.546 173.162C442.475 172.283 442.219 170.738 441.082 170.201C439.802 169.599 438.377 170.689 438.585 172.104C438.793 173.552 440.506 174.154 441.546 173.162Z" fill="#FFCF2D"/>
<path fill-rule="evenodd" clip-rule="evenodd" d="M438.11 172.175C437.846 170.378 439.655 168.992 441.284 169.758L441.285 169.758C442.726 170.439 443.055 172.4 441.874 173.518C440.551 174.779 438.374 174.012 438.11 172.175ZM440.88 170.643C439.948 170.206 438.908 170.999 439.06 172.032L439.06 172.033L439.06 172.033C439.212 173.091 440.46 173.528 441.218 172.805L441.219 172.804L441.219 172.804C441.895 172.165 441.711 171.036 440.88 170.643Z" fill="#FE5244"/>
<path d="M465.127 145.947C466.055 145.068 465.799 143.523 464.662 142.986C463.382 142.384 461.957 143.474 462.165 144.889C462.373 146.321 464.086 146.939 465.127 145.947Z" fill="#FFCF2D"/>
<path fill-rule="evenodd" clip-rule="evenodd" d="M461.69 144.961C461.426 143.163 463.235 141.777 464.864 142.543L464.865 142.543C466.306 143.224 466.635 145.186 465.455 146.303C464.127 147.568 461.954 146.776 461.69 144.961ZM464.46 143.429C463.528 142.991 462.488 143.784 462.64 144.817L462.64 144.818C462.792 145.865 464.044 146.31 464.798 145.591L464.799 145.589L464.799 145.589C465.475 144.95 465.291 143.821 464.46 143.429Z" fill="#FE5244"/>
<path d="M473.179 180.01C474.108 179.131 473.852 177.586 472.715 177.049C471.434 176.447 470.01 177.537 470.218 178.952C470.41 180.4 472.123 181.002 473.179 180.01Z" fill="#FFCF2D"/>
<path fill-rule="evenodd" clip-rule="evenodd" d="M469.742 179.021C469.481 177.225 471.289 175.841 472.917 176.606L472.918 176.607C474.359 177.288 474.688 179.25 473.507 180.367L473.505 180.368L473.505 180.368C472.174 181.619 469.99 180.871 469.742 179.021ZM472.513 177.492C471.581 177.054 470.541 177.848 470.693 178.88C470.693 178.883 470.693 178.885 470.694 178.887C470.832 179.93 472.072 180.384 472.853 179.652C473.528 179.013 473.344 177.885 472.513 177.492Z" fill="#FE5244"/>
<path d="M424.896 111.022C424.032 110.079 422.511 110.339 421.983 111.494C421.391 112.795 422.463 114.243 423.856 114.031C425.281 113.82 425.873 112.079 424.896 111.022Z" fill="#FFCF2D"/>
<path fill-rule="evenodd" clip-rule="evenodd" d="M421.548 111.288C422.218 109.823 424.148 109.489 425.248 110.688C426.489 112.033 425.735 114.245 423.927 114.514C422.158 114.782 420.795 112.943 421.548 111.288L421.548 111.288L421.548 111.288ZM422.419 111.699C421.989 112.646 422.77 113.703 423.786 113.548L423.787 113.548L423.787 113.548C424.828 113.394 425.258 112.125 424.547 111.355L424.546 111.354L424.546 111.354C423.917 110.667 422.806 110.854 422.419 111.699Z" fill="#FE5244"/>
<path d="M427.764 68.8253C426.899 67.8818 425.378 68.1421 424.85 69.297C424.258 70.5984 425.33 72.0461 426.723 71.8346C428.148 71.6232 428.74 69.8826 427.764 68.8253Z" fill="#FFCF2D"/>
<path fill-rule="evenodd" clip-rule="evenodd" d="M424.413 69.0918C425.083 67.6269 427.014 67.2931 428.113 68.4925C429.354 69.8373 428.6 72.049 426.792 72.3179C425.023 72.5858 423.66 70.7477 424.413 69.0926L424.413 69.0918L424.413 69.0918ZM425.285 69.5027C424.854 70.45 425.635 71.5068 426.651 71.3525L426.653 71.3522L426.653 71.3522C427.693 71.1977 428.123 69.9295 427.412 69.1597L427.411 69.1583L427.411 69.1583C426.782 68.4716 425.671 68.6583 425.285 69.5027Z" fill="#FE5244"/>
<path d="M455.426 68.8253C454.561 67.8818 453.041 68.1421 452.512 69.297C451.92 70.5984 452.993 72.0461 454.385 71.8346C455.81 71.6232 456.402 69.8826 455.426 68.8253Z" fill="#FFCF2D"/>
<path fill-rule="evenodd" clip-rule="evenodd" d="M452.078 69.0918C452.748 67.6269 454.678 67.2931 455.777 68.4925C457.018 69.8373 456.264 72.049 454.456 72.3179C452.687 72.5858 451.324 70.7476 452.077 69.0926L452.078 69.0918L452.078 69.0918ZM452.949 69.5027C452.518 70.45 453.299 71.5067 454.315 71.3525L454.317 71.3522L454.317 71.3522C455.357 71.1977 455.787 69.9295 455.076 69.1597L455.075 69.1583L455.075 69.1583C454.446 68.4716 453.335 68.6583 452.949 69.5027Z" fill="#FE5244"/>
<path d="M455.474 87.044C454.305 87.5157 453.969 89.0448 454.849 89.972C455.826 90.9969 457.539 90.5251 457.859 89.1262C458.179 87.711 456.802 86.5072 455.474 87.044Z" fill="#FFCF2D"/>
<path fill-rule="evenodd" clip-rule="evenodd" d="M455.297 86.5912C456.986 85.9087 458.734 87.4388 458.327 89.2362L458.327 89.2374C457.92 91.016 455.743 91.6123 454.504 90.3122L454.504 90.3116C453.384 89.1321 453.814 87.1898 455.296 86.5912M457.391 89.0169C457.624 87.9842 456.619 87.1072 455.651 87.4982L455.651 87.4982C454.797 87.843 454.554 88.9586 455.195 89.6335C455.909 90.3825 457.158 90.0356 457.391 89.0169Z" fill="#FE5244"/>
<path d="M439.753 76.6655C438.536 77.0234 438.072 78.5037 438.84 79.5122C439.721 80.6346 441.466 80.3256 441.914 78.9754C442.378 77.5927 441.113 76.2589 439.753 76.6655Z" fill="#FFCF2D"/>
<path fill-rule="evenodd" clip-rule="evenodd" d="M439.62 76.1971C441.356 75.6792 442.959 77.3776 442.37 79.1323C441.799 80.8513 439.581 81.2378 438.466 79.8164C438.465 79.8146 438.464 79.8128 438.462 79.811C437.488 78.5325 438.076 76.652 439.62 76.1971ZM441.461 78.8179C441.8 77.8078 440.875 76.8393 439.89 77.1337L439.888 77.1343L439.888 77.1343C439.001 77.3953 438.66 78.4725 439.22 79.2108C439.866 80.0308 441.135 79.7989 441.461 78.8195L441.461 78.8179L441.461 78.8179Z" fill="#FE5244"/>
<path d="M437.432 121.726C436.183 121.872 435.479 123.271 436.087 124.394C436.776 125.646 438.553 125.63 439.209 124.361C439.881 123.076 438.857 121.563 437.432 121.726Z" fill="#FFCF2D"/>
<path fill-rule="evenodd" clip-rule="evenodd" d="M439.634 124.589C440.489 122.952 439.181 121.035 437.378 121.24L437.378 121.24L437.377 121.241C435.786 121.427 434.895 123.205 435.667 124.628L435.668 124.631C436.54 126.218 438.798 126.203 439.634 124.589ZM437.486 122.21C438.533 122.091 439.273 123.199 438.785 124.131L438.785 124.131L438.784 124.133C438.307 125.055 437.012 125.073 436.507 124.156C436.063 123.335 436.581 122.317 437.486 122.21Z" fill="#FE5244"/>
<path d="M423.713 155.61C422.465 155.756 421.76 157.155 422.369 158.277C423.057 159.53 424.834 159.514 425.49 158.245C426.163 156.96 425.138 155.447 423.713 155.61Z" fill="#FFCF2D"/>
<path fill-rule="evenodd" clip-rule="evenodd" d="M425.915 158.473C426.771 156.836 425.462 154.919 423.66 155.125L423.66 155.125L423.658 155.125C422.067 155.311 421.177 157.09 421.948 158.513L421.949 158.515C422.822 160.102 425.079 160.087 425.915 158.473ZM423.768 156.094C424.814 155.976 425.554 157.083 425.066 158.016L425.066 158.016L425.065 158.018C424.588 158.94 423.294 158.957 422.789 158.041C422.345 157.219 422.863 156.201 423.768 156.094Z" fill="#FE5244"/>
<path d="M428.323 90.1027C427.106 90.4605 426.642 91.9408 427.41 92.9494C428.291 94.0718 430.036 93.7627 430.484 92.4126C430.948 91.0461 429.7 89.7123 428.323 90.1027Z" fill="#FFCF2D"/>
<path fill-rule="evenodd" clip-rule="evenodd" d="M430.938 92.5698C431.53 90.8255 429.936 89.1381 428.194 89.6322L428.189 89.6335C426.644 90.088 426.056 91.969 427.031 93.2477C427.032 93.2496 427.033 93.2514 427.035 93.2532C428.15 94.6743 430.367 94.2882 430.938 92.5698ZM428.454 90.5717C429.464 90.2872 430.365 91.2657 430.03 92.2529L430.029 92.2562C429.704 93.2357 428.434 93.4675 427.788 92.6475C427.229 91.9099 427.569 90.8338 428.454 90.5717Z" fill="#FE5244"/>
<path d="M441.579 99.2124C440.362 99.5703 439.898 101.051 440.666 102.059C441.547 103.182 443.292 102.872 443.74 101.522C444.204 100.14 442.956 98.8057 441.579 99.2124Z" fill="#FFCF2D"/>
<path fill-rule="evenodd" clip-rule="evenodd" d="M441.445 98.7433C443.198 98.2258 444.783 99.9254 444.195 101.679C443.623 103.398 441.406 103.784 440.291 102.363C440.289 102.361 440.288 102.359 440.286 102.357C439.312 101.079 439.9 99.1979 441.445 98.7433ZM443.285 101.364C443.625 100.353 442.713 99.385 441.713 99.6806L441.712 99.6807C440.825 99.9417 440.484 101.019 441.044 101.757C441.69 102.577 442.96 102.345 443.285 101.366L443.285 101.364L443.285 101.364Z" fill="#FE5244"/>
<path d="M412.877 98.8212C413.677 97.8289 413.245 96.3324 412.028 95.9582C410.683 95.5353 409.403 96.8041 409.803 98.1705C410.203 99.5695 411.964 99.9436 412.877 98.8212Z" fill="#FFCF2D"/>
<path fill-rule="evenodd" clip-rule="evenodd" d="M412.168 95.4921C413.716 95.9695 414.26 97.8748 413.247 99.1311L413.246 99.1325L413.246 99.1325C412.086 100.559 409.849 100.08 409.341 98.3087C408.831 96.5615 410.465 94.9578 412.168 95.4921ZM411.885 96.4249C410.899 96.1148 409.974 97.0474 410.262 98.0318L410.263 98.0348C410.556 99.0597 411.839 99.329 412.505 98.5116C413.091 97.7837 412.771 96.6974 411.888 96.4258L411.885 96.4249Z" fill="#FE5244"/>
<path d="M473.564 98.8705C474.365 97.8783 473.932 96.3817 472.716 96.0075C471.371 95.5846 470.09 96.8534 470.49 98.2199C470.875 99.6188 472.652 99.993 473.564 98.8705Z" fill="#FFCF2D"/>
<path fill-rule="evenodd" clip-rule="evenodd" d="M472.857 95.5409C474.406 96.0183 474.95 97.9236 473.936 99.1799L473.935 99.1814L473.935 99.1814C472.78 100.602 470.522 100.136 470.03 98.3551C469.522 96.6088 471.155 95.0069 472.857 95.5409ZM472.574 96.4738C471.589 96.1637 470.663 97.0962 470.952 98.0807C470.952 98.0833 470.953 98.086 470.954 98.0887C471.232 99.102 472.525 99.3826 473.194 98.5605C473.78 97.8326 473.461 96.7462 472.577 96.4747L472.574 96.4738Z" fill="#FE5244"/>
<path d="M458.164 164.816C458.964 163.824 458.532 162.327 457.315 161.953C455.971 161.53 454.69 162.799 455.09 164.166C455.474 165.548 457.251 165.922 458.164 164.816Z" fill="#FFCF2D"/>
<path fill-rule="evenodd" clip-rule="evenodd" d="M457.455 161.487C459.003 161.964 459.548 163.869 458.534 165.126L458.531 165.13C457.377 166.529 455.121 166.067 454.628 164.302C454.119 162.555 455.753 160.953 457.455 161.487ZM457.172 162.42C456.186 162.109 455.261 163.042 455.549 164.026L455.551 164.033C455.828 165.029 457.122 165.315 457.793 164.505C458.378 163.777 458.058 162.692 457.175 162.42L457.172 162.42Z" fill="#FE5244"/>
<path d="M445.388 61.8629C445.036 61.8792 444.684 61.8955 444.316 61.9117L428.691 62.8878C424.705 63.1318 420.895 64.2216 417.437 66.0273L412.635 51.4196L434.038 35.478L445.388 61.8629Z" fill="#E57281"/>
<path d="M417.373 65.8006C421.824 63.751 425.378 60.1072 427.395 55.585L435.175 38.0981L434.038 35.4629L412.635 51.4044L417.373 65.8006Z" fill="#9A3B82"/>
<path d="M435.415 36.9431C435.415 38.456 434.807 39.8224 433.83 40.8147C432.854 41.8069 431.509 42.4251 430.02 42.4251H425.314C423.457 49.7615 416.269 54.7879 408.537 53.4052L404.999 52.7708C401.125 52.0714 398.484 48.395 399.028 44.4422L403.174 23.344C403.895 18.8381 408.457 16.089 412.699 17.6343L419.567 20.4322C423.281 21.7336 425.778 25.2798 425.778 29.2652V31.2985L430.02 31.4612C432.998 31.4612 435.415 33.9175 435.415 36.9431Z" fill="#E57281"/>
<path fill-rule="evenodd" clip-rule="evenodd" d="M431.173 34.6171C429.329 34.6171 427.843 36.1267 427.843 38.0006C427.843 38.2252 427.664 38.4072 427.443 38.4072C427.222 38.4072 427.043 38.2252 427.043 38.0006C427.043 35.6775 428.887 33.8037 431.173 33.8037C431.394 33.8037 431.573 33.9858 431.573 34.2104C431.573 34.435 431.394 34.6171 431.173 34.6171Z" fill="#9A3B82"/>
<path fill-rule="evenodd" clip-rule="evenodd" d="M405.08 27.7846C405.08 27.56 405.259 27.3779 405.48 27.3779L405.48 27.7846C405.48 27.3779 405.48 27.3779 405.481 27.3779L405.481 27.3779L405.482 27.3779L405.486 27.378L405.496 27.3781C405.505 27.3782 405.516 27.3785 405.531 27.3789C405.561 27.3799 405.602 27.3817 405.655 27.3852C405.761 27.3922 405.912 27.406 406.1 27.4331C406.474 27.4873 406.995 27.5951 407.594 27.8098C408.794 28.2397 410.307 29.0993 411.564 30.811C411.696 30.991 411.66 31.2458 411.483 31.3802C411.306 31.5145 411.055 31.4775 410.923 31.2975C409.778 29.7395 408.41 28.9643 407.328 28.5768C406.787 28.3828 406.318 28.2862 405.987 28.2383C405.821 28.2143 405.691 28.2026 405.603 28.1968C405.56 28.1939 405.527 28.1925 405.506 28.1919C405.496 28.1915 405.488 28.1914 405.484 28.1913L405.48 28.1913C405.479 28.1913 405.479 28.1913 405.479 28.1913L405.48 28.1913" fill="#9A3B82"/>
<path d="M407.715 33.8728C407.884 32.927 407.669 32.0951 407.234 32.0148C406.799 31.9345 406.309 32.6361 406.14 33.5819C405.971 34.5277 406.187 35.3595 406.621 35.4399C407.056 35.5202 407.546 34.8186 407.715 33.8728Z" fill="#9A3B82"/>
<path d="M430.021 31.4611C432.999 31.4611 435.416 33.9174 435.416 36.943C435.416 36.9593 435.416 36.9918 435.416 37.0244C437.817 33.2667 443.708 23.7018 443.708 20.4647C443.708 16.1214 438.377 11.7782 432.855 13.7627C433.223 13.4862 433.607 13.1934 434.007 12.8843C436.136 11.1925 437.257 9.92373 437.433 9.01279C437.497 8.68745 437.449 8.39464 437.289 8.16691C436.649 7.23969 435.944 6.83302 435.192 6.96315C434.087 7.14209 432.951 8.52478 431.814 11.0624C431.302 12.2174 430.902 13.356 430.677 14.0555C430.229 11.339 428.068 2.34336 418.783 3.72605C415.581 4.19779 414.077 5.54794 413.66 7.02822C411.003 4.91353 407.449 3.25431 404.503 4.83219C399.413 7.54876 400.037 12.0059 402.983 15.1617C400.197 15.1129 398.244 15.9425 398.244 18.3337C398.244 20.5297 400.469 21.5871 403.527 22.01C406.585 22.433 410.507 22.2052 413.9 21.8148C416.318 21.5383 418.495 21.1967 419.888 20.9527C418.959 22.8884 418.591 24.5477 418.671 25.9466C418.815 28.8421 420.88 30.5501 423.794 31.152C424.418 31.2822 425.09 31.3635 425.779 31.396L430.021 31.4611ZM435.288 7.61383C435.336 7.59756 435.384 7.59757 435.448 7.59757C435.896 7.59757 436.328 7.9229 436.761 8.54104C436.793 8.60611 436.841 8.70371 436.809 8.88264C436.553 10.2003 433.271 12.7054 431.366 14.023C432.118 11.7782 433.703 7.89037 435.288 7.61383Z" fill="#FFCF2D"/>
<path d="M385.645 156.066H283.19C280.661 156.066 279.14 153.236 280.485 151.072L294.124 129.307C295.901 126.477 298.959 124.769 302.257 124.769H371.606L385.645 156.066Z" fill="#E57281"/>
<path d="M304.514 124.785L312.678 111.12C313.158 110.307 314.039 109.803 314.967 109.803C317.064 109.803 318.345 112.129 317.257 113.951L310.773 124.785H304.514Z" fill="#FE5244"/>
<path d="M385.646 156.066H362.609C362.561 156.017 362.497 155.952 362.449 155.903C356.846 150.047 354.461 141.166 357.615 132.609L360.896 124.769H371.606L385.646 156.066Z" fill="#9A3B82"/>
<path d="M297.663 141.458H284.824C283.959 141.458 283.159 141.93 282.727 142.695L281.366 145.102C280.453 146.729 281.606 148.762 283.463 148.762H293.788C295.581 148.762 297.246 147.819 298.191 146.257L299.295 144.419C300.064 143.118 299.151 141.458 297.663 141.458Z" fill="#E57281"/>
<path d="M294.35 148.762H281.511C280.647 148.762 279.846 149.234 279.414 149.998L278.053 152.406C277.141 154.033 278.293 156.066 280.15 156.066H290.476C292.269 156.066 293.934 155.123 294.878 153.561L295.983 151.723C296.767 150.421 295.839 148.762 294.35 148.762Z" fill="#E57281"/>
<path d="M301.329 134.057H288.49C287.625 134.057 286.825 134.529 286.393 135.293L285.032 137.701C284.119 139.328 285.272 141.361 287.129 141.361H297.455C299.248 141.361 300.912 140.418 301.857 138.856L302.961 137.018C303.746 135.716 302.817 134.057 301.329 134.057Z" fill="#E57281"/>
<path fill-rule="evenodd" clip-rule="evenodd" d="M282.38 142.492C282.883 141.601 283.816 141.051 284.824 141.051H297.663C299.468 141.051 300.565 143.06 299.639 144.628L299.638 144.629L298.533 146.469L298.532 146.47C297.515 148.152 295.721 149.168 293.789 149.168H283.463C281.298 149.168 279.954 146.797 281.018 144.9L281.019 144.899L282.38 142.492ZM283.074 142.897C283.074 142.897 283.074 142.897 283.074 142.897L281.714 145.303C281.714 145.303 281.714 145.303 281.714 145.304C280.953 146.66 281.914 148.355 283.463 148.355H293.789C295.442 148.355 296.978 147.485 297.85 146.044C297.85 146.044 297.85 146.044 297.85 146.044L298.953 144.209C298.953 144.209 298.953 144.208 298.953 144.208C299.563 143.173 298.835 141.865 297.663 141.865H284.824C284.103 141.865 283.435 142.258 283.074 142.897Z" fill="#9A3B82"/>
<path fill-rule="evenodd" clip-rule="evenodd" d="M279.065 149.795C279.569 148.905 280.501 148.355 281.51 148.355H294.348C296.147 148.355 297.272 150.36 296.323 151.935L295.218 153.772L295.218 153.773C294.2 155.455 292.407 156.472 290.474 156.472H280.149C277.984 156.472 276.64 154.101 277.704 152.204L277.705 152.203L279.065 149.795ZM279.759 150.201C279.759 150.201 279.759 150.2 279.759 150.201L278.399 152.607C278.399 152.607 278.399 152.607 278.399 152.607C277.639 153.964 278.6 155.659 280.149 155.659H290.474C292.128 155.659 293.664 154.789 294.535 153.348C294.536 153.348 294.536 153.348 294.536 153.347L295.64 151.51C296.26 150.482 295.527 149.168 294.348 149.168H281.51C280.789 149.168 280.121 149.562 279.759 150.201Z" fill="#9A3B82"/>
<path fill-rule="evenodd" clip-rule="evenodd" d="M286.046 135.09C286.549 134.2 287.482 133.65 288.49 133.65H301.329C303.128 133.65 304.252 135.655 303.303 137.23L302.199 139.067L302.198 139.068C301.181 140.75 299.387 141.767 297.455 141.767H287.129C284.964 141.767 283.62 139.396 284.684 137.499L284.685 137.498L286.046 135.09ZM286.74 135.495C286.74 135.495 286.74 135.495 286.74 135.495L285.38 137.902C285.38 137.902 285.38 137.902 285.38 137.902C284.619 139.258 285.58 140.954 287.129 140.954H297.455C299.109 140.954 300.644 140.084 301.516 138.643C301.516 138.643 301.516 138.643 301.516 138.642L302.621 136.805C303.24 135.777 302.508 134.463 301.329 134.463H288.49C287.77 134.463 287.101 134.857 286.74 135.495Z" fill="#9A3B82"/>
<path d="M319.915 144.939C316.056 144.939 312.343 143.524 309.429 140.938L304.562 136.611H300.08L298.927 137.863C296.862 140.108 294.317 141.393 291.291 141.393H289.146C288.026 141.393 287.337 140.124 287.946 139.165L293.34 130.576H319.931V144.939H319.915Z" fill="#E57281"/>
<path fill-rule="evenodd" clip-rule="evenodd" d="M293.554 130.233C293.741 130.354 293.795 130.606 293.676 130.795L288.282 139.384L288.281 139.385C287.846 140.072 288.338 140.987 289.145 140.987H291.29C294.191 140.987 296.634 139.776 298.633 137.587L298.634 137.586L299.905 136.205H304.711L309.691 140.632C309.691 140.632 309.691 140.632 309.691 140.632M304.411 137.018L309.164 141.244L309.165 141.245C312.135 143.879 315.958 145.347 319.913 145.347C320.134 145.347 320.313 145.164 320.313 144.94C320.313 144.715 320.134 144.533 319.913 144.533C316.153 144.533 312.516 143.138 309.691 140.632M304.411 137.018H300.252L299.219 138.14C299.219 138.141 299.219 138.141 299.219 138.141C297.088 140.474 294.44 141.8 291.29 141.8H289.145C287.711 141.8 286.827 140.178 287.607 138.946C287.607 138.945 287.608 138.945 287.608 138.945L293.002 130.357C293.121 130.168 293.368 130.113 293.554 130.233" fill="#9A3B82"/>
<path d="M428.004 125.646L403.559 153.397C398.42 159.237 391.072 162.572 383.356 162.572C368.116 162.572 357.567 147.118 362.913 132.608L391.953 63.2789L382.14 57.6993C380.747 56.5932 380.075 54.7875 380.379 53.0307L382.044 41.6276C382.556 39.09 385.101 37.1054 387.583 36.5198L399.077 33.8846C400.053 33.6569 400.95 34.5027 400.79 35.495L399.125 44.2954C398.468 48.5899 401.318 52.2987 405.544 53.0307C409.002 53.6326 411.435 57.1625 411.115 60.7087L403.287 110.323C403.271 110.355 411.291 123.06 428.004 125.646Z" fill="#E57281"/>
<path fill-rule="evenodd" clip-rule="evenodd" d="M409.318 72.101C409.537 72.1352 409.687 72.3428 409.653 72.5648L400.208 134.883C400.174 135.105 399.97 135.258 399.751 135.223C399.533 135.189 399.383 134.982 399.417 134.76L408.862 72.441C408.896 72.219 409.1 72.0668 409.318 72.101Z" fill="#9A3B82"/>
<path fill-rule="evenodd" clip-rule="evenodd" d="M389.691 42.0515C389.912 42.0587 390.086 42.2466 390.078 42.4711L389.95 46.5041C389.95 46.5043 389.95 46.5045 389.95 46.5046C389.907 47.999 390.782 49.2722 391.983 49.6267L406.679 52.6491C406.895 52.6937 407.036 52.9082 406.992 53.1284C406.948 53.3485 406.737 53.4908 406.52 53.4463L391.793 50.4175L391.778 50.4132C390.168 49.9485 389.098 48.2981 389.15 46.4802L389.15 46.479L389.278 42.4448C389.286 42.2204 389.47 42.0442 389.691 42.0515Z" fill="#9A3B82"/>
<path fill-rule="evenodd" clip-rule="evenodd" d="M398.904 33.8635C399.984 33.6012 400.978 34.5457 400.783 35.6639L399.264 44.4892C398.754 48.2185 401.245 51.688 404.901 52.3528L416.659 53.9458C416.878 53.9755 417.032 54.18 417.003 54.4027C416.973 54.6253 416.772 54.7817 416.553 54.752L404.778 53.1567L404.77 53.1552C400.685 52.4177 397.898 48.5407 398.472 44.3698L398.473 44.3629L399.995 35.5225C400.089 34.9819 399.611 34.5278 399.09 34.6547L399.089 34.655L387.081 37.502C386.866 37.5531 386.651 37.4171 386.6 37.1984C386.55 36.9797 386.684 36.761 386.899 36.71L398.903 33.8639C398.904 33.8637 398.904 33.8636 398.904 33.8635Z" fill="#9A3B82"/>
<path fill-rule="evenodd" clip-rule="evenodd" d="M442.289 110.259L410.464 146.241L409.75 145.589L441.575 109.606L442.289 110.259Z" fill="#FE5244"/>
<path fill-rule="evenodd" clip-rule="evenodd" d="M391.889 63.2953C391.889 63.0707 392.068 62.8887 392.289 62.8887H397.908C398.129 62.8887 398.308 63.0707 398.308 63.2953C398.308 63.5199 398.129 63.702 397.908 63.702H392.289C392.068 63.702 391.889 63.5199 391.889 63.2953Z" fill="#9A3B82"/>
<path fill-rule="evenodd" clip-rule="evenodd" d="M394.821 35.7165C395.395 36.1132 395.82 36.7652 395.81 37.5828L395.698 46.0719C395.697 47.126 394.954 48.0536 393.921 48.0536H392.16C390.535 48.0536 389.295 46.5562 389.295 44.8328V43.5314C389.295 43.3068 389.474 43.1247 389.695 43.1247C389.916 43.1247 390.095 43.3068 390.095 43.5314V44.8328C390.095 46.2001 391.064 47.2403 392.16 47.2403H393.921C394.424 47.2403 394.898 46.7707 394.898 46.0691V46.0663L395.01 37.5727C395.01 37.5727 395.01 37.5726 395.01 37.5725C395.016 37.0726 394.761 36.6592 394.371 36.3889C393.974 36.1144 393.464 36.0097 393.023 36.1185C392.809 36.1715 392.592 36.0375 392.54 35.8193C392.488 35.601 392.62 35.3811 392.834 35.3281C393.514 35.1604 394.253 35.3241 394.821 35.7165Z" fill="#9A3B82"/>
<path fill-rule="evenodd" clip-rule="evenodd" d="M395.41 43.125C395.631 43.125 395.81 43.3071 395.81 43.5317V44.833C395.81 46.2003 396.779 47.2405 397.875 47.2405H398.996C399.217 47.2405 399.396 47.4226 399.396 47.6472C399.396 47.8718 399.217 48.0539 398.996 48.0539H397.875C396.25 48.0539 395.01 46.5564 395.01 44.833V43.5317C395.01 43.3071 395.189 43.125 395.41 43.125Z" fill="#9A3B82"/>
<path fill-rule="evenodd" clip-rule="evenodd" d="M519.832 405.918L501.246 248.747L502.2 248.631L520.786 405.802L519.832 405.918Z" fill="#66B0F0"/>
<path fill-rule="evenodd" clip-rule="evenodd" d="M402.105 405.802L420.691 248.631L421.645 248.747L403.059 405.918L402.105 405.802Z" fill="#66B0F0"/>
<path fill-rule="evenodd" clip-rule="evenodd" d="M513.921 352.374H408.953V351.398H513.921V352.374Z" fill="#66B0F0"/>
<path d="M410.459 249.177H511.473C512.817 249.177 513.906 248.071 513.906 246.704V243.353C513.906 241.987 512.817 240.881 511.473 240.881H410.459C409.114 240.881 408.025 241.987 408.025 243.353V246.704C408.025 248.071 409.114 249.177 410.459 249.177Z" fill="white"/>
<path fill-rule="evenodd" clip-rule="evenodd" d="M407.545 243.354C407.545 241.718 408.849 240.393 410.458 240.393H511.472C513.082 240.393 514.386 241.718 514.386 243.354V246.705C514.386 248.34 513.082 249.665 511.472 249.665H410.458C408.849 249.665 407.545 248.34 407.545 246.705V243.354ZM410.458 241.369C409.379 241.369 408.505 242.257 408.505 243.354V246.705C408.505 247.801 409.379 248.689 410.458 248.689H511.472C512.552 248.689 513.425 247.801 513.425 246.705V243.354C513.425 242.257 512.552 241.369 511.472 241.369H410.458Z" fill="#FFCF2D"/>
<path d="M242.369 130.233L226.905 162.571H180.176L198.954 130.233H242.369Z" fill="white"/>
<path fill-rule="evenodd" clip-rule="evenodd" d="M198.725 129.826H243.008L227.155 162.978H179.475L198.725 129.826ZM199.182 130.64L180.876 162.165H226.654L241.729 130.64H199.182Z" fill="#3FB1B5"/>
<path fill-rule="evenodd" clip-rule="evenodd" d="M213.724 136.558C214.08 136.79 214.434 137.02 214.786 137.238C215.357 137.591 216.034 137.703 216.816 137.641C217.602 137.579 218.468 137.343 219.393 137.025C219.97 136.827 220.55 136.604 221.141 136.377C221.504 136.237 221.871 136.096 222.244 135.959C223.209 135.602 224.189 135.276 225.136 135.103C227.69 134.627 229.524 135.312 230.721 136.134C231.316 136.543 231.748 136.982 232.034 137.32C232.177 137.49 232.283 137.635 232.355 137.739C232.391 137.792 232.418 137.834 232.437 137.864C232.447 137.879 232.454 137.891 232.459 137.9C232.462 137.904 232.464 137.908 232.466 137.911L232.468 137.914L232.469 137.916L232.469 137.916C232.469 137.916 232.469 137.917 232.124 138.122C231.778 138.327 231.778 138.328 231.779 138.328L231.776 138.324C231.775 138.322 231.774 138.32 231.772 138.317C231.769 138.313 231.766 138.308 231.762 138.301C231.749 138.28 231.728 138.247 231.699 138.205C231.64 138.12 231.55 137.996 231.426 137.849C231.177 137.554 230.797 137.168 230.273 136.808C229.233 136.093 227.609 135.469 225.28 135.903L225.279 135.903C224.401 136.064 223.473 136.37 222.518 136.723C222.166 136.853 221.807 136.991 221.447 137.129C220.844 137.361 220.236 137.594 219.649 137.796C218.705 138.12 217.764 138.382 216.878 138.452C215.988 138.523 215.128 138.401 214.37 137.933C213.982 137.692 213.607 137.449 213.239 137.21C212.312 136.607 211.43 136.034 210.487 135.618C209.2 135.05 207.847 134.803 206.233 135.26C204.55 135.738 203.082 136.435 202.033 137.015C201.509 137.305 201.092 137.564 200.806 137.75C200.664 137.843 200.554 137.918 200.481 137.969C200.444 137.994 200.417 138.014 200.399 138.027C200.389 138.033 200.383 138.038 200.379 138.041L200.374 138.044L200.373 138.045C200.373 138.045 200.373 138.045 200.139 137.715C199.904 137.386 199.904 137.386 199.904 137.386L199.905 137.385L199.907 137.384L199.914 137.379C199.919 137.375 199.927 137.369 199.938 137.362C199.959 137.347 199.989 137.325 200.029 137.297C200.108 137.242 200.224 137.163 200.374 137.066C200.673 136.87 201.107 136.601 201.65 136.301C202.735 135.701 204.26 134.976 206.018 134.477C207.847 133.958 209.391 134.248 210.806 134.872C211.812 135.315 212.777 135.943 213.724 136.558Z" fill="#3FB1B5"/>
<path fill-rule="evenodd" clip-rule="evenodd" d="M212.122 141.601C212.479 141.833 212.832 142.063 213.185 142.281C213.756 142.634 214.433 142.746 215.215 142.684C216 142.622 216.867 142.386 217.791 142.068C218.368 141.87 218.949 141.647 219.54 141.42C219.903 141.28 220.27 141.139 220.643 141.002C221.607 140.645 222.588 140.319 223.535 140.146C226.089 139.67 227.923 140.355 229.12 141.177C229.714 141.586 230.147 142.025 230.432 142.363C230.575 142.533 230.682 142.678 230.753 142.782C230.789 142.835 230.817 142.877 230.836 142.907C230.845 142.922 230.853 142.934 230.858 142.943C230.86 142.947 230.863 142.951 230.864 142.954L230.866 142.957L230.867 142.959L230.867 142.959C230.868 142.959 230.868 142.96 230.522 143.165C230.177 143.37 230.177 143.371 230.177 143.371L230.175 143.367C230.174 143.365 230.172 143.363 230.17 143.36C230.168 143.356 230.165 143.35 230.161 143.344C230.148 143.323 230.126 143.29 230.097 143.248C230.039 143.163 229.948 143.039 229.824 142.892C229.576 142.597 229.195 142.211 228.671 141.851C227.631 141.136 226.007 140.512 223.679 140.946L223.677 140.946C222.8 141.107 221.872 141.413 220.916 141.766C220.565 141.896 220.206 142.034 219.845 142.172C219.242 142.404 218.635 142.637 218.048 142.839C217.103 143.163 216.163 143.425 215.277 143.495C214.387 143.566 213.527 143.444 212.769 142.976C212.38 142.735 212.005 142.492 211.637 142.253C210.711 141.65 209.828 141.077 208.885 140.661C207.599 140.093 206.245 139.846 204.632 140.303C202.948 140.781 201.48 141.478 200.431 142.058C199.908 142.348 199.49 142.607 199.205 142.793C199.062 142.886 198.952 142.961 198.879 143.012C198.843 143.037 198.815 143.057 198.797 143.07C198.788 143.076 198.781 143.081 198.777 143.084L198.773 143.087L198.772 143.088C198.772 143.088 198.772 143.088 198.537 142.758C198.303 142.429 198.303 142.429 198.303 142.429L198.304 142.428L198.305 142.427L198.312 142.422C198.318 142.418 198.326 142.412 198.336 142.405C198.357 142.39 198.388 142.368 198.427 142.34C198.507 142.285 198.623 142.206 198.773 142.109C199.072 141.913 199.506 141.644 200.049 141.344C201.133 140.744 202.658 140.019 204.417 139.52C206.245 139.001 207.789 139.291 209.204 139.915C210.21 140.358 211.175 140.986 212.122 141.601Z" fill="#3FB1B5"/>
<path d="M259.946 275.366C259.946 279.709 248.083 283.223 233.227 283.223C218.371 283.223 206.861 279.709 206.861 275.366C206.861 271.022 218.371 267.509 233.227 267.509C248.083 267.509 259.946 271.039 259.946 275.366Z" fill="#FE5244"/>
<path d="M253.11 270.079V326.2L251.429 318.099C249.62 309.38 242.048 303.15 233.275 303.15C230.634 303.15 228.04 303.719 225.687 304.793C225.607 304.825 225.527 304.874 225.431 304.906L219.268 282.068L215.842 269.363C220.532 268.208 226.6 267.509 233.227 267.509C241.103 267.509 248.195 268.501 253.11 270.079Z" fill="#A0505A"/>
<path d="M253.11 270.078V280.652C248.195 282.229 241.103 283.222 233.227 283.222C228.12 283.222 223.35 282.799 219.268 282.083L215.842 269.379C220.532 268.224 226.6 267.524 233.227 267.524C241.103 267.508 248.195 268.5 253.11 270.078Z" fill="#73325A"/>
<path d="M251.925 324.557C252.357 324.687 256.424 325.842 260.026 325.842C261.979 325.842 263.788 325.5 264.812 324.459C265.693 323.564 265.901 322.263 265.437 320.62C265.02 319.156 264.22 318.245 263.051 317.92C260.906 317.334 257.928 318.961 255.575 320.669C259.241 316.147 262.859 310.404 261.514 306.647C261.034 305.313 259.946 304.418 258.585 304.255C257.448 304.125 256.392 304.532 255.895 305.297C253.59 308.859 251.701 323.483 251.621 324.101L251.925 324.557ZM256.568 305.752C256.856 305.313 257.464 305.053 258.169 305.053C258.281 305.053 258.393 305.053 258.505 305.069C259.017 305.134 260.25 305.427 260.778 306.923C261.13 307.916 261.258 309.737 259.834 312.796C258.489 315.691 256.055 319.091 252.598 322.946C253.11 319.237 254.743 308.566 256.568 305.752ZM264.252 323.89C263.195 324.963 260.794 325.289 257.288 324.833C255.447 324.589 253.734 324.199 252.822 323.955C253.51 323.337 254.791 322.214 256.28 321.173C259.129 319.172 261.402 318.31 262.859 318.717C263.74 318.961 264.332 319.66 264.684 320.848C265.068 322.214 264.924 323.206 264.252 323.89Z" fill="#FFCF2D"/>
<path d="M219.429 309.461L215.731 313.674C211.537 318.457 210.848 325.419 214.034 330.949L230.315 359.319C233.5 364.866 239.344 368.266 245.651 368.266H252.391C257.273 368.266 260.907 363.711 259.899 358.863L251.414 318.115C249.605 309.396 242.033 303.166 233.26 303.166C227.994 303.149 222.951 305.443 219.429 309.461Z" fill="white"/>
<path fill-rule="evenodd" clip-rule="evenodd" d="M219.13 309.19C222.728 305.086 227.879 302.742 233.261 302.759C242.222 302.759 249.957 309.123 251.805 318.031M251.805 318.031L260.29 358.779C261.351 363.88 257.527 368.672 252.39 368.672H245.651C239.201 368.672 233.226 365.196 229.969 359.524L213.689 331.155C210.415 325.472 211.123 318.317 215.432 313.403L219.13 309.19M233.259 303.572C228.107 303.556 223.174 305.8 219.728 309.731L219.727 309.732L216.03 313.945C216.03 313.945 216.03 313.945 216.029 313.945C211.951 318.596 211.281 325.366 214.379 330.744L214.38 330.745L230.66 359.114C230.66 359.114 230.66 359.114 230.66 359.114C233.774 364.536 239.486 367.859 245.651 367.859H252.39C257.019 367.859 260.463 363.542 259.507 358.947L251.022 318.199L251.022 318.199C249.252 309.668 241.844 303.572 233.26 303.572L233.259 303.572Z" fill="#3FB1B5"/>
<path d="M232.028 321.726L253.047 363.109C254.04 364.98 255.272 366.184 256.681 366.948C255.465 367.778 253.992 368.282 252.391 368.282H245.651C239.328 368.282 233.485 364.866 230.315 359.336L214.035 330.95C213.378 329.795 212.882 328.591 212.546 327.339C210.24 318.636 219.99 311.804 227.306 316.911C228.97 318.066 230.603 319.628 232.028 321.726Z" fill="#3FB1B5"/>
<path d="M232.076 321.824H212.674C212.77 321.515 212.882 321.222 213.01 320.945H231.452C231.644 321.206 231.836 321.466 232.028 321.742L232.076 321.824Z" fill="white"/>
<path d="M234.925 327.419H212.577C212.577 327.387 212.561 327.354 212.561 327.338C212.497 327.078 212.433 326.801 212.385 326.541H234.493L234.925 327.419Z" fill="white"/>
<path d="M237.775 333.031H215.235L214.723 332.137H237.327L237.775 333.031Z" fill="white"/>
<path d="M240.624 338.644H218.452L217.939 337.749H240.175L240.624 338.644Z" fill="white"/>
<path d="M243.474 344.24H221.67L221.158 343.361H243.026L243.474 344.24Z" fill="white"/>
<path d="M246.323 349.851H224.887L224.375 348.957H245.859L246.323 349.851Z" fill="white"/>
<path d="M249.173 355.463H228.106L227.594 354.568H248.709L249.173 355.463Z" fill="white"/>
<path d="M252.007 361.06H231.452C231.244 360.767 231.036 360.474 230.844 360.181H251.559L252.007 361.06Z" fill="white"/>
<path d="M256.216 366.671H238.351C237.775 366.411 237.214 366.118 236.67 365.793H255.064C255.432 366.118 255.816 366.411 256.216 366.671Z" fill="white"/>
<path d="M194.375 274.211C194.231 278.505 182.24 281.986 167.48 281.986C152.72 281.986 140.73 278.522 140.586 274.211V240.392H194.375V274.211Z" fill="#73325A"/>
<path d="M190.805 279.823L190.725 283.841L189.956 323.06V321.921C189.956 311.852 181.92 303.686 172.011 303.686H170.922C165.864 303.686 161.301 305.687 157.923 308.908L155.57 292.739L154.113 282.735C158.051 283.401 162.614 283.776 167.464 283.776C177.454 283.759 186.146 282.165 190.805 279.823Z" fill="#A0505A"/>
<path d="M190.804 279.823L190.724 283.841C184.769 288.135 166.375 293.422 155.586 292.722L154.129 282.718C158.067 283.369 162.629 283.759 167.48 283.759C177.453 283.759 186.146 282.165 190.804 279.823Z" fill="#73325A"/>
<path d="M172.828 368.803H175.806C183.618 368.803 189.957 362.361 189.957 354.423V321.922C189.957 311.853 181.921 303.687 172.012 303.687H170.923C159.397 303.687 150.512 314.016 152.065 325.631L155.827 353.74C156.996 362.361 164.248 368.803 172.828 368.803Z" fill="white"/>
<path fill-rule="evenodd" clip-rule="evenodd" d="M151.669 325.685C150.083 313.827 159.155 303.28 170.923 303.28H172.012C182.142 303.28 190.358 311.628 190.358 321.922V354.423C190.358 362.586 183.839 369.21 175.806 369.21H172.828C164.047 369.21 156.627 362.618 155.431 353.795L151.669 325.685ZM152.462 325.576L156.224 353.684C157.365 362.105 164.448 368.396 172.828 368.396H175.806C183.397 368.396 189.557 362.137 189.557 354.423V321.922C189.557 312.077 181.7 304.093 172.012 304.093H170.923C159.639 304.093 150.942 314.205 152.462 325.576Z" fill="#3FB1B5"/>
<path d="M185.507 364.883C182.978 367.307 179.552 368.803 175.806 368.803H172.829C164.248 368.803 156.996 362.362 155.844 353.74L152.082 325.631C152.018 325.094 151.954 324.558 151.938 324.037C152.898 317.807 158.197 313.041 164.6 313.041C167.754 313.041 170.668 314.212 172.925 316.164C175.182 318.116 176.767 320.865 177.263 324.037L182.21 358.344C182.578 360.898 183.763 363.175 185.507 364.883Z" fill="#3FB1B5"/>
<path d="M175.772 319.693H153.408C153.568 319.384 153.76 319.091 153.952 318.815H175.244C175.436 319.091 175.612 319.384 175.772 319.693Z" fill="white"/>
<path d="M177.439 325.289H152.033C152.001 324.996 151.969 324.703 151.953 324.411H177.311L177.439 325.289Z" fill="white"/>
<path d="M178.254 330.902H152.784L152.656 330.023H178.126L178.254 330.902Z" fill="white"/>
<path d="M179.054 336.514H153.536L153.408 335.619H178.926L179.054 336.514Z" fill="white"/>
<path d="M179.872 342.11H154.29L154.162 341.231H179.744L179.872 342.11Z" fill="white"/>
<path d="M180.672 347.722H155.026L154.914 346.843H180.544L180.672 347.722Z" fill="white"/>
<path d="M181.488 353.333H155.778L155.666 352.438H181.36L181.488 353.333Z" fill="white"/>
<path d="M182.304 358.929H157.363C157.219 358.636 157.091 358.344 156.979 358.051H182.16L182.208 358.344C182.24 358.539 182.272 358.734 182.304 358.929Z" fill="white"/>
<path d="M185.169 364.541H161.589C161.268 364.264 160.948 363.955 160.66 363.663H184.433C184.657 363.972 184.913 364.264 185.169 364.541Z" fill="white"/>
<path d="M206.013 98.4308V125.824C204.845 122.717 195.592 123.156 185.41 127.077C176.686 130.444 170.138 135.064 169.178 138.268V99.7159C169.178 88.2478 175.213 77.9996 184.482 72.4038C196.52 74.5348 206.013 85.1896 206.013 98.4308Z" fill="#FFCF2D"/>
<path d="M168.474 73.6401C160.277 79.4312 155.059 89.0449 155.059 99.716V131.518H109.482L115.774 103.994C118.447 92.2657 126.804 82.9123 137.689 78.9269L168.474 73.6401Z" fill="#FFCF2D"/>
<path d="M260.65 209.761V273.609C260.65 269.265 248.083 265.752 233.227 265.752C218.371 265.752 206.333 269.265 206.333 273.609V243.011C206.333 241.579 205.18 240.408 203.772 240.408H122.064C97.4911 240.408 79.3214 217.163 84.8763 192.844L104.599 106.499C107.737 92.7208 118.718 82.2286 132.438 79.8537L137.688 78.9427C126.803 82.9281 118.446 92.2816 115.773 104.01L109.481 131.534H155.058V99.7156C155.058 89.0445 160.293 79.4145 168.473 73.6397L175.677 72.4034C177.166 72.1432 178.622 72.0293 180.079 72.0293C180.271 72.0293 180.447 72.0293 180.639 72.0293C180.815 72.0293 180.992 72.0456 181.152 72.0456C181.184 72.0456 181.216 72.0456 181.248 72.0456C181.376 72.0456 181.52 72.0618 181.648 72.0618C181.664 72.0618 181.696 72.0618 181.712 72.0618C181.792 72.0618 181.872 72.0781 181.936 72.0781C182.08 72.0944 182.208 72.0944 182.352 72.1106C182.512 72.1269 182.688 72.1432 182.849 72.1594C183.009 72.1757 183.153 72.192 183.313 72.2082C183.345 72.2082 183.377 72.2245 183.425 72.2245C183.585 72.2408 183.761 72.2733 183.921 72.2896C183.937 72.2896 183.953 72.2896 183.953 72.2896C184.129 72.3221 184.305 72.3384 184.481 72.3709C175.213 77.9667 169.177 88.2149 169.177 99.683V177.845H229.273C246.595 177.878 260.65 192.144 260.65 209.761Z" fill="#FE5244"/>
<path fill-rule="evenodd" clip-rule="evenodd" d="M169.908 72.6455C170.06 72.8668 170.006 73.1709 169.788 73.3248C161.699 79.0397 155.522 89.2291 155.522 99.7157V132.005H108.861L115.289 103.884M169.908 72.6455C169.757 72.4242 169.458 72.3696 169.24 72.5234L169.908 72.6455ZM169.24 72.5234C160.936 78.3905 154.562 88.86 154.562 99.7157L169.24 72.5234ZM154.562 99.7157V131.029V99.7157ZM154.562 131.029H110.071H154.562Z" fill="white"/>
<path fill-rule="evenodd" clip-rule="evenodd" d="M215.544 208.086C215.747 208.26 215.773 208.568 215.601 208.774C209.928 215.599 206.814 224.256 206.814 233.201C206.814 233.471 206.599 233.689 206.334 233.689C206.069 233.689 205.854 233.471 205.854 233.201C205.854 224.025 209.047 215.146 214.868 208.144C215.039 207.938 215.342 207.912 215.544 208.086Z" fill="white"/>
<path d="M139.753 229.965C139.673 229.965 139.593 229.948 139.529 229.9L137.416 228.728C137.176 228.598 137.096 228.305 137.224 228.061C137.352 227.817 137.64 227.736 137.88 227.866L139.993 229.037C140.234 229.168 140.314 229.46 140.186 229.704C140.09 229.867 139.929 229.965 139.753 229.965ZM141.866 229.412C141.69 229.412 141.53 229.314 141.45 229.151C141.322 228.907 141.402 228.615 141.642 228.484L143.755 227.313C143.996 227.183 144.284 227.281 144.412 227.508C144.54 227.752 144.46 228.045 144.22 228.175L142.107 229.347C142.027 229.379 141.947 229.412 141.866 229.412ZM135.527 227.639C135.447 227.639 135.367 227.622 135.303 227.573L133.19 226.402C132.95 226.272 132.87 225.979 132.998 225.735C133.126 225.491 133.414 225.41 133.654 225.54L135.767 226.711C136.007 226.841 136.087 227.134 135.959 227.378C135.863 227.541 135.703 227.639 135.527 227.639ZM146.077 227.069C145.901 227.069 145.741 226.972 145.66 226.809C145.532 226.565 145.612 226.272 145.853 226.142L147.966 224.971C148.334 224.776 148.67 224.548 149.006 224.304C149.214 224.141 149.519 224.19 149.679 224.401C149.839 224.613 149.791 224.922 149.583 225.085C149.214 225.361 148.83 225.605 148.43 225.833L146.317 227.004C146.237 227.053 146.157 227.069 146.077 227.069ZM131.349 225.231C131.253 225.231 131.157 225.198 131.061 225.133C130.388 224.629 129.764 224.044 129.236 223.377C129.06 223.165 129.092 222.856 129.3 222.693C129.508 222.514 129.812 222.547 129.972 222.758C130.452 223.36 131.013 223.881 131.621 224.336C131.829 224.499 131.877 224.808 131.733 225.02C131.653 225.166 131.509 225.231 131.349 225.231ZM151.023 223.523C150.911 223.523 150.815 223.49 150.719 223.409C150.511 223.246 150.479 222.937 150.655 222.726C151.135 222.124 151.536 221.473 151.856 220.758C151.968 220.514 152.256 220.4 152.496 220.514C152.736 220.627 152.848 220.92 152.736 221.164C152.384 221.945 151.936 222.677 151.408 223.328C151.296 223.458 151.167 223.523 151.023 223.523ZM128.339 221.506C128.163 221.506 127.987 221.408 127.907 221.229C127.555 220.449 127.299 219.635 127.139 218.789C127.091 218.529 127.267 218.269 127.523 218.22C127.779 218.171 128.035 218.35 128.083 218.61C128.227 219.375 128.451 220.107 128.771 220.806C128.884 221.05 128.771 221.343 128.531 221.457C128.467 221.49 128.403 221.506 128.339 221.506ZM153.008 219.131C152.976 219.131 152.944 219.131 152.928 219.131C152.672 219.082 152.496 218.822 152.544 218.562C152.64 218.025 152.688 217.488 152.688 216.951V216.219C152.688 215.943 152.896 215.731 153.169 215.731C153.441 215.731 153.649 215.943 153.649 216.219V216.951C153.649 217.553 153.601 218.155 153.489 218.741C153.441 218.968 153.233 219.131 153.008 219.131ZM127.459 216.756C127.187 216.756 126.979 216.544 126.979 216.268V213.828C126.979 213.551 127.187 213.34 127.459 213.34C127.731 213.34 127.939 213.551 127.939 213.828V216.268C127.939 216.528 127.715 216.756 127.459 216.756ZM153.152 214.267C152.88 214.267 152.672 214.056 152.672 213.779V211.339C152.672 211.063 152.88 210.851 153.152 210.851C153.425 210.851 153.633 211.063 153.633 211.339V213.779C153.633 214.056 153.425 214.267 153.152 214.267ZM127.459 211.876C127.187 211.876 126.979 211.664 126.979 211.388V208.948C126.979 208.671 127.187 208.46 127.459 208.46C127.731 208.46 127.939 208.671 127.939 208.948V211.388C127.939 211.648 127.715 211.876 127.459 211.876ZM153.152 209.387C152.88 209.387 152.672 209.176 152.672 208.899V206.459C152.672 206.182 152.88 205.971 153.152 205.971C153.425 205.971 153.633 206.182 153.633 206.459V208.899C153.633 209.176 153.425 209.387 153.152 209.387ZM127.459 206.996C127.187 206.996 126.979 206.784 126.979 206.508V204.068C126.979 203.791 127.187 203.58 127.459 203.58C127.731 203.58 127.939 203.791 127.939 204.068V206.508C127.939 206.768 127.715 206.996 127.459 206.996ZM153.152 204.507C152.88 204.507 152.672 204.295 152.672 204.019V201.579C152.672 201.302 152.88 201.091 153.152 201.091C153.425 201.091 153.633 201.302 153.633 201.579V204.019C153.633 204.295 153.425 204.507 153.152 204.507ZM127.459 202.116C127.187 202.116 126.979 201.904 126.979 201.628V199.529H128.275C128.547 199.529 128.755 199.741 128.755 200.017C128.755 200.294 128.547 200.505 128.275 200.505H127.939V201.628C127.939 201.888 127.715 202.116 127.459 202.116ZM152.288 200.505H149.887C149.615 200.505 149.407 200.294 149.407 200.017C149.407 199.741 149.615 199.529 149.887 199.529H152.288C152.56 199.529 152.768 199.741 152.768 200.017C152.768 200.294 152.56 200.505 152.288 200.505ZM147.485 200.505H145.084C144.812 200.505 144.604 200.294 144.604 200.017C144.604 199.741 144.812 199.529 145.084 199.529H147.485C147.758 199.529 147.966 199.741 147.966 200.017C147.966 200.294 147.758 200.505 147.485 200.505ZM142.683 200.505H140.282C140.009 200.505 139.801 200.294 139.801 200.017C139.801 199.741 140.009 199.529 140.282 199.529H142.683C142.955 199.529 143.163 199.741 143.163 200.017C143.163 200.294 142.955 200.505 142.683 200.505ZM137.88 200.505H135.479C135.207 200.505 134.999 200.294 134.999 200.017C134.999 199.741 135.207 199.529 135.479 199.529H137.88C138.152 199.529 138.361 199.741 138.361 200.017C138.361 200.294 138.152 200.505 137.88 200.505ZM133.078 200.505H130.677C130.404 200.505 130.196 200.294 130.196 200.017C130.196 199.741 130.404 199.529 130.677 199.529H133.078C133.35 199.529 133.558 199.741 133.558 200.017C133.558 200.294 133.35 200.505 133.078 200.505Z" fill="white"/>
<path d="M94.4499 227.264C94.2738 227.264 94.1137 227.167 94.0336 227.004C93.9056 226.76 93.9856 226.467 94.2257 226.337L96.1788 225.247C96.2268 225.215 96.2748 225.198 96.3228 225.166C96.547 225.036 96.8511 225.117 96.9792 225.345C97.1073 225.573 97.0272 225.882 96.8031 226.012C96.7551 226.044 96.7071 226.077 96.643 226.093L94.69 227.183C94.6099 227.248 94.5299 227.264 94.4499 227.264ZM98.5 224.662C98.372 224.662 98.2439 224.613 98.1478 224.499C97.9717 224.304 97.9878 223.995 98.1799 223.816C98.7402 223.295 99.2364 222.693 99.6686 222.059C99.8127 221.831 100.117 221.782 100.341 221.929C100.565 222.075 100.613 222.384 100.469 222.612C100.005 223.312 99.4445 223.962 98.8362 224.548C98.7241 224.629 98.6121 224.662 98.5 224.662ZM101.173 220.66C101.109 220.66 101.061 220.644 100.997 220.627C100.757 220.53 100.629 220.253 100.725 219.993C100.997 219.261 101.189 218.513 101.302 217.748C101.334 217.488 101.574 217.293 101.846 217.325C102.102 217.358 102.294 217.602 102.262 217.878C102.15 218.724 101.942 219.554 101.638 220.351C101.542 220.546 101.366 220.66 101.173 220.66ZM101.862 215.878C101.59 215.878 101.382 215.666 101.382 215.39V212.949C101.382 212.673 101.59 212.461 101.862 212.461C102.134 212.461 102.342 212.673 102.342 212.949V215.39C102.342 215.65 102.134 215.878 101.862 215.878ZM101.862 210.997C101.59 210.997 101.382 210.786 101.382 210.509V208.069C101.382 207.793 101.59 207.581 101.862 207.581C102.134 207.581 102.342 207.793 102.342 208.069V210.509C102.342 210.77 102.134 210.997 101.862 210.997ZM101.862 206.117C101.59 206.117 101.382 205.906 101.382 205.629V203.189C101.382 202.913 101.59 202.701 101.862 202.701C102.134 202.701 102.342 202.913 102.342 203.189V205.629C102.342 205.89 102.134 206.117 101.862 206.117ZM101.862 201.237C101.59 201.237 101.382 201.026 101.382 200.749V200.505H100.181C99.9088 200.505 99.7007 200.294 99.7007 200.017C99.7007 199.741 99.9088 199.529 100.181 199.529H102.342V200.749C102.342 201.01 102.134 201.237 101.862 201.237ZM97.7796 200.505H95.3784C95.1062 200.505 94.8981 200.294 94.8981 200.017C94.8981 199.741 95.1062 199.529 95.3784 199.529H97.7796C98.0518 199.529 98.2599 199.741 98.2599 200.017C98.2599 200.294 98.0358 200.505 97.7796 200.505ZM92.9771 200.505H90.5758C90.3036 200.505 90.0955 200.294 90.0955 200.017C90.0955 199.741 90.3036 199.529 90.5758 199.529H92.9771C93.2492 199.529 93.4573 199.741 93.4573 200.017C93.4573 200.294 93.2332 200.505 92.9771 200.505ZM88.1745 200.505H85.7732C85.5011 200.505 85.293 200.294 85.293 200.017C85.293 199.741 85.5011 199.529 85.7732 199.529H88.1745C88.4467 199.529 88.6548 199.741 88.6548 200.017C88.6548 200.294 88.4306 200.505 88.1745 200.505Z" fill="white"/>
<path d="M206.012 125.827C207.181 128.933 199.785 134.448 189.62 138.368C179.454 142.289 170.345 142.89 169.177 139.767C168.008 136.644 175.228 131.016 185.409 127.095C195.591 123.175 204.844 122.703 206.012 125.827Z" fill="#FE5244"/>
<path d="M211.696 226.745V228.469C211.167 228.339 210.607 228.274 210.047 228.274H207.982C204.924 228.274 202.315 226.289 201.322 223.524L207.181 222.727C209.567 222.402 211.696 224.289 211.696 226.745Z" fill="#73325A"/>
<path d="M217.106 235.448V248.689C217.106 251.779 214.64 254.285 211.599 254.285H205.468C203.947 254.285 202.57 253.666 201.577 252.642C200.585 251.633 199.961 250.234 199.961 248.689H203.947C205.259 248.689 206.316 247.615 206.316 246.281V242.816C206.316 241.483 205.259 240.409 203.947 240.409H183.568C175.612 240.409 169.16 233.853 169.16 225.769V138.285C170.121 135.081 176.668 130.445 185.393 127.094C191.348 124.8 196.999 123.694 200.889 123.792V221.1C200.889 225.069 204.059 228.29 207.965 228.29H210.03C213.936 228.274 217.106 231.478 217.106 235.448Z" fill="#A0505A"/>
<path d="M200.889 123.775V132.625C197.992 134.609 194.069 136.643 189.603 138.351C179.422 142.271 170.329 142.873 169.16 139.75V138.269C170.121 135.065 176.668 130.429 185.393 127.078C191.364 124.784 196.999 123.678 200.889 123.775Z" fill="#73325A"/>
<path d="M174.268 57.8774L168.249 73.6401L137.225 79.2847L145.325 57.8774H174.268Z" fill="#A0505A"/>
<path d="M174.268 57.8774L171.018 66.4013L140.25 71.2814L145.325 57.8774H174.268Z" fill="#73325A"/>
<path d="M192.455 25.7992C192.455 27.9301 188.821 30.2888 184.627 32.2734C178.912 34.99 172.172 37.0559 172.172 37.0559L167.626 45.7587C173.805 49.0934 176.222 55.0796 177.183 59.2602C177.791 61.9279 177.791 63.8312 177.791 63.8312H134.216C134.216 63.8312 122.77 26.1571 150.352 17.1452C167.225 11.6307 192.455 20.7402 192.455 25.7992Z" fill="white"/>
<path fill-rule="evenodd" clip-rule="evenodd" d="M177.61 17.9797C169.238 15.771 158.814 14.8925 150.499 17.61C143.716 19.8261 139.354 23.793 136.607 28.4912C133.854 33.2008 132.71 38.6704 132.42 43.8954C132.129 49.1182 132.693 54.0692 133.331 57.7186C133.65 59.5422 133.987 61.0377 134.243 62.0761C134.372 62.5952 134.48 62.9998 134.556 63.2738C134.563 63.298 134.569 63.3212 134.575 63.3434H177.293C177.282 63.1461 177.265 62.8933 177.237 62.5927C177.162 61.8011 177.013 60.6802 176.715 59.3709C175.768 55.2523 173.403 49.4291 167.4 46.1899L166.976 45.961L171.841 36.6476L172.033 36.5889L172.08 36.7468C172.033 36.5889 172.033 36.5889 172.033 36.5889L172.033 36.5888L172.034 36.5886L172.052 36.5832C172.064 36.5793 172.083 36.5734 172.108 36.5656C172.158 36.55 172.233 36.5267 172.33 36.496C172.524 36.4347 172.808 36.3439 173.167 36.2264C173.885 35.9913 174.902 35.6495 176.097 35.2231C178.489 34.3696 181.586 33.1801 184.423 31.8316L184.424 31.8312C186.509 30.8446 188.43 29.7759 189.823 28.7026C190.52 28.1658 191.067 27.6406 191.437 27.1386C191.807 26.6349 191.974 26.189 191.974 25.7994C191.974 25.3667 191.695 24.7909 191.001 24.0968C190.321 23.417 189.31 22.6925 188.016 21.9644C185.432 20.5101 181.791 19.0827 177.61 17.9797ZM177.791 63.8314L178.271 63.8314L178.271 64.3194H133.861L133.757 63.9753L134.216 63.8314C133.757 63.9753 133.757 63.975 133.756 63.9746L133.754 63.9671L133.748 63.9452C133.742 63.9262 133.734 63.8981 133.723 63.8614C133.702 63.7879 133.671 63.6796 133.631 63.5384C133.553 63.2561 133.443 62.8426 133.312 62.3139C133.05 61.2568 132.708 59.7386 132.385 57.8894C131.739 54.1933 131.165 49.1625 131.461 43.8403C131.757 38.5203 132.923 32.8816 135.781 27.9927C138.646 23.0924 143.197 18.9707 150.205 16.6808C158.763 13.8839 169.39 14.8028 177.851 17.035C182.087 18.1524 185.808 19.6063 188.481 21.1106C189.816 21.8617 190.909 22.6358 191.674 23.401C192.426 24.1518 192.935 24.9674 192.935 25.7994C192.935 26.4752 192.647 27.1233 192.206 27.7232C191.763 28.3249 191.14 28.9129 190.404 29.4802C188.931 30.6151 186.938 31.7181 184.829 32.716C181.951 34.0839 178.821 35.2855 176.415 36.144C175.211 36.5737 174.186 36.9181 173.461 37.1553C173.099 37.2739 172.812 37.3657 172.615 37.428C172.574 37.4411 172.536 37.453 172.503 37.4634L168.272 45.5623C174.316 49.0323 176.697 55.0019 177.65 59.1494L177.65 59.1502C177.96 60.5086 178.115 61.673 178.193 62.4999C178.232 62.9135 178.251 63.2432 178.261 63.4709C178.266 63.5848 178.268 63.6733 178.27 63.7341C178.27 63.7645 178.271 63.788 178.271 63.8043C178.271 63.8125 178.271 63.8188 178.271 63.8234L178.271 63.8304V63.8312C178.271 63.8313 178.271 63.8314 177.791 63.8314Z" fill="#FFCF2D"/>
<path d="M146.318 22.5132C152.304 22.5132 157.156 17.5826 157.156 11.5005C157.156 5.41834 152.304 0.487793 146.318 0.487793C140.333 0.487793 135.48 5.41834 135.48 11.5005C135.48 17.5826 140.333 22.5132 146.318 22.5132Z" fill="white"/>
<path fill-rule="evenodd" clip-rule="evenodd" d="M146.318 0.976014C140.598 0.976014 135.961 5.68808 135.961 11.5007C135.961 17.3133 140.598 22.0254 146.318 22.0254C152.038 22.0254 156.676 17.3133 156.676 11.5007C156.676 5.68808 152.038 0.976014 146.318 0.976014ZM135 11.5007C135 5.14904 140.067 0 146.318 0C152.569 0 157.636 5.14904 157.636 11.5007C157.636 17.8524 152.569 23.0014 146.318 23.0014C140.067 23.0014 135 17.8524 135 11.5007Z" fill="#FFCF2D"/>
<path d="M177.166 59.2592C176.27 55.3063 174.029 49.678 168.506 46.2782H167.081C165.768 46.2782 164.568 45.7414 163.703 44.863C162.839 43.9846 162.311 42.7646 162.311 41.4307C162.311 38.7467 164.44 36.5832 167.081 36.5832L173.116 36.7133H173.276C173.388 36.6808 173.5 36.632 173.629 36.5994C175.261 36.2416 180.432 34.9727 184.722 32.793L185.219 35.8023L186.82 45.4486C187.908 52.0692 183.442 58.1693 177.166 59.2592Z" fill="#A0505A"/>
<path d="M185.202 35.7872C179.951 37.9507 173.1 36.6982 173.1 36.6982C173.1 36.6982 179.551 35.3968 184.706 32.7778L185.202 35.7872Z" fill="#73325A"/>
<path fill-rule="evenodd" clip-rule="evenodd" d="M167.098 39.0077C167.098 38.7831 167.277 38.6011 167.498 38.6011C169.544 38.6011 171.196 40.2797 171.196 42.3587C171.196 42.5833 171.017 42.7654 170.796 42.7654C170.575 42.7654 170.395 42.5833 170.395 42.3587C170.395 40.7289 169.102 39.4144 167.498 39.4144C167.277 39.4144 167.098 39.2323 167.098 39.0077Z" fill="#73325A"/>
<path fill-rule="evenodd" clip-rule="evenodd" d="M205.855 405.918L187.27 248.747L188.223 248.63L206.809 405.801L205.855 405.918Z" fill="#66B0F0"/>
<path fill-rule="evenodd" clip-rule="evenodd" d="M88.1289 405.801L106.699 248.63L107.652 248.746L89.0826 405.917L88.1289 405.801Z" fill="#66B0F0"/>
<path fill-rule="evenodd" clip-rule="evenodd" d="M199.945 352.373H94.9766V351.397H199.945V352.373Z" fill="#66B0F0"/>
<path d="M91.0231 248.688H203.899C205.244 248.688 206.333 247.582 206.333 246.216V242.865C206.333 241.498 205.244 240.392 203.899 240.392H91.0231C89.6784 240.392 88.5898 241.498 88.5898 242.865V246.216C88.6059 247.582 89.6944 248.688 91.0231 248.688Z" fill="white"/>
<path fill-rule="evenodd" clip-rule="evenodd" d="M88.1094 242.865C88.1094 241.229 89.413 239.904 91.0229 239.904H203.899C205.509 239.904 206.813 241.229 206.813 242.865V246.216C206.813 247.852 205.509 249.176 203.899 249.176H91.0229C89.4259 249.176 88.1285 247.85 88.1094 246.222L88.1094 246.219V242.865ZM91.0229 240.88C89.9434 240.88 89.0699 241.768 89.0699 242.865V246.213C89.0843 247.316 89.9634 248.2 91.0229 248.2H203.899C204.979 248.2 205.852 247.313 205.852 246.216V242.865C205.852 241.768 204.979 240.88 203.899 240.88H91.0229Z" fill="#FFCF2D"/>
</svg>
