<svg width="387" height="299" viewBox="0 0 387 299" fill="none" xmlns="http://www.w3.org/2000/svg">
<g clip-path="url(#clip0_277_108)">
<path d="M367.541 232.115H94.2081C83.9281 232.115 75.6172 223.699 75.6172 213.29V19.7043C75.6172 9.29489 83.9281 0.879395 94.2081 0.879395H367.541C377.821 0.879395 386.132 9.29489 386.132 19.7043V213.261C386.161 223.67 377.821 232.115 367.541 232.115Z" fill="white"/>
<path d="M367.54 232.995H94.2077C83.4644 232.995 74.748 224.169 74.748 213.29V19.7046C74.748 8.82601 83.4644 0 94.2077 0H367.54C378.284 0 387 8.82601 387 19.7046V213.261C387.029 218.51 385.002 223.465 381.324 227.189C377.647 230.942 372.753 232.995 367.54 232.995ZM94.2077 1.75934C84.4489 1.75934 76.4855 9.82296 76.4855 19.7046V213.29C76.4855 223.172 84.4489 231.235 94.2077 231.235H367.54C372.289 231.235 376.749 229.359 380.108 225.957C383.438 222.556 385.292 218.04 385.263 213.261V19.7046C385.263 9.82296 377.299 1.75934 367.54 1.75934H94.2077Z" fill="#3FB1B5"/>
<path d="M367.716 214.115H97.0184C92.9933 214.115 89.75 210.801 89.75 206.755V21.5552C89.75 17.4794 93.0222 14.1953 97.0184 14.1953H367.716C371.741 14.1953 374.984 17.5087 374.984 21.5552V206.725C375.013 210.801 371.741 214.115 367.716 214.115Z" fill="#66B0F0"/>
<path d="M367.716 214.993H97.018C92.5295 214.993 88.8809 211.298 88.8809 206.753V21.5535C88.8809 17.0086 92.5295 13.314 97.018 13.314H367.716C372.204 13.314 375.853 17.0086 375.853 21.5535V206.724C375.882 208.923 375.042 211.005 373.507 212.559C371.943 214.113 369.916 214.993 367.716 214.993ZM97.018 15.0733C93.4851 15.0733 90.6183 17.9762 90.6183 21.5535V206.753C90.6183 210.33 93.4851 213.233 97.018 213.233H367.716C369.424 213.233 371.046 212.559 372.262 211.327C373.478 210.096 374.115 208.483 374.115 206.753V21.5535C374.115 17.9762 371.248 15.0733 367.716 15.0733H97.018Z" fill="#66B0F0"/>
<path d="M106.718 32.3721H102.433C100.55 32.3721 99.0156 30.818 99.0156 28.912V24.5723C99.0156 22.6664 100.55 21.1123 102.433 21.1123H106.718C108.601 21.1123 110.135 22.6664 110.135 24.5723V28.912C110.106 30.8473 108.601 32.3721 106.718 32.3721ZM102.433 22.8716C101.506 22.8716 100.753 23.634 100.753 24.5723V28.912C100.753 29.8503 101.506 30.6127 102.433 30.6127H106.718C107.645 30.6127 108.369 29.8503 108.398 28.8827V24.5723C108.398 23.634 107.645 22.8716 106.718 22.8716H102.433Z" fill="white"/>
<path d="M126.207 32.373H121.921C120.039 32.373 118.504 30.8189 118.504 28.913V24.5733C118.504 22.6674 120.039 21.1133 121.921 21.1133H126.207C128.089 21.1133 129.624 22.6674 129.624 24.5733V28.913C129.624 30.8189 128.089 32.373 126.207 32.373ZM121.921 22.8726C120.994 22.8726 120.241 23.635 120.241 24.5733V28.913C120.241 29.8513 120.994 30.6137 121.921 30.6137H126.207C127.133 30.6137 127.886 29.8513 127.886 28.913V24.5733C127.886 23.635 127.133 22.8726 126.207 22.8726H121.921Z" fill="white"/>
<path d="M145.695 32.373H141.409C139.527 32.373 137.992 30.8189 137.992 28.913V24.5733C137.992 22.6674 139.527 21.1133 141.409 21.1133H145.695C147.577 21.1133 149.112 22.6674 149.112 24.5733V28.913C149.112 30.8189 147.577 32.373 145.695 32.373ZM141.409 22.8726C140.483 22.8726 139.73 23.635 139.73 24.5733V28.913C139.73 29.8513 140.483 30.6137 141.409 30.6137H145.695C146.651 30.6137 147.374 29.8806 147.374 28.913V24.5733C147.374 23.635 146.622 22.8726 145.695 22.8726H141.409Z" fill="white"/>
<path d="M319.259 32.3721H314.974C313.091 32.3721 311.557 30.818 311.557 28.912V24.5723C311.557 22.6664 313.091 21.1123 314.974 21.1123H319.259C321.142 21.1123 322.676 22.6664 322.676 24.5723V28.912C322.647 30.8473 321.142 32.3721 319.259 32.3721ZM314.974 22.8716C314.047 22.8716 313.294 23.634 313.294 24.5723V28.912C313.294 29.8503 314.047 30.6127 314.974 30.6127H319.259C320.186 30.6127 320.91 29.8503 320.939 28.8827V24.5723C320.939 23.634 320.186 22.8716 319.259 22.8716H314.974Z" fill="white"/>
<path d="M338.748 32.373H334.462C332.58 32.373 331.045 30.8189 331.045 28.913V24.5733C331.045 22.6674 332.58 21.1133 334.462 21.1133H338.748C340.63 21.1133 342.165 22.6674 342.165 24.5733V28.913C342.165 30.8189 340.63 32.373 338.748 32.373ZM334.462 22.8726C333.535 22.8726 332.782 23.635 332.782 24.5733V28.913C332.782 29.8513 333.535 30.6137 334.462 30.6137H338.748C339.674 30.6137 340.427 29.8513 340.427 28.913V24.5733C340.427 23.635 339.674 22.8726 338.748 22.8726H334.462Z" fill="white"/>
<path d="M358.236 32.373H353.95C352.068 32.373 350.533 30.8189 350.533 28.913V24.5733C350.533 22.6674 352.068 21.1133 353.95 21.1133H358.236C360.118 21.1133 361.653 22.6674 361.653 24.5733V28.913C361.653 30.8189 360.118 32.373 358.236 32.373ZM353.95 22.8726C353.024 22.8726 352.271 23.635 352.271 24.5733V28.913C352.271 29.8513 353.024 30.6137 353.95 30.6137H358.236C359.192 30.6137 359.916 29.8806 359.916 28.913V24.5733C359.916 23.635 359.163 22.8726 358.236 22.8726H353.95Z" fill="white"/>
<path d="M288.572 298.122H182.471L203.291 232.117H267.722L288.572 298.122Z" fill="white"/>
<path d="M289.759 299H181.283L202.654 231.236H268.359L289.759 299ZM183.658 297.241H287.385L267.085 232.996H203.928L183.658 297.241Z" fill="#3FB1B5"/>
<path d="M190.811 271.702L203.291 232.117H267.723L190.811 271.702Z" fill="#3FB1B5"/>
<path d="M351.787 75.7995H300.214C294.914 75.7995 290.6 71.4305 290.6 66.0645V32.3439C290.6 26.9779 294.914 22.6089 300.214 22.6089H351.787C357.087 22.6089 361.401 26.9779 361.401 32.3439V66.0645C361.401 71.4305 357.087 75.7995 351.787 75.7995ZM300.214 24.3682C295.87 24.3682 292.337 27.9455 292.337 32.3439V66.0645C292.337 70.4629 295.87 74.0402 300.214 74.0402H351.787C356.131 74.0402 359.664 70.4629 359.664 66.0645V32.3439C359.664 27.9455 356.131 24.3682 351.787 24.3682H300.214Z" fill="white"/>
<path d="M345.562 36.3873H306.209C305.716 36.3873 305.34 36.0061 305.34 35.5076C305.34 35.0091 305.716 34.6279 306.209 34.6279H345.562C346.054 34.6279 346.431 35.0091 346.431 35.5076C346.431 36.0061 346.054 36.3873 345.562 36.3873Z" fill="white"/>
<path d="M345.562 45.4776H306.209C305.716 45.4776 305.34 45.0964 305.34 44.5979C305.34 44.0995 305.716 43.7183 306.209 43.7183H345.562C346.054 43.7183 346.431 44.0995 346.431 44.5979C346.431 45.0964 346.054 45.4776 345.562 45.4776Z" fill="white"/>
<path d="M345.562 54.5679H306.209C305.716 54.5679 305.34 54.1867 305.34 53.6883C305.34 53.1898 305.716 52.8086 306.209 52.8086H345.562C346.054 52.8086 346.431 53.1898 346.431 53.6883C346.431 54.1867 346.054 54.5679 345.562 54.5679Z" fill="white"/>
<path d="M345.562 63.6588H306.209C305.716 63.6588 305.34 63.2776 305.34 62.7791C305.34 62.2806 305.716 61.8994 306.209 61.8994H345.562C346.054 61.8994 346.431 62.2806 346.431 62.7791C346.431 63.2776 346.054 63.6588 345.562 63.6588Z" fill="white"/>
<path d="M366.207 214.113H161.215L149.197 231.56C135.616 251.264 106.919 251.557 92.9612 232.117L19.7559 130.163C22.8254 134.034 36.8699 129.723 50.2485 120.809C63.8297 111.749 72.6039 100.343 69.8529 96.1201L120.616 161.626L136.166 133.829C140.423 126.469 147.489 121.191 155.713 119.255L208.619 107.908H254.227L304.498 119.138C313.243 121.161 320.657 126.938 324.855 134.943L366.207 214.113Z" fill="white"/>
<path d="M120.878 247.395C109.44 247.395 99.015 242.029 92.2678 232.616L19.0625 130.663L20.4525 129.607C22.9139 132.686 35.9739 129.285 49.7867 120.077C56.2154 115.796 61.8042 110.841 65.5108 106.091C68.8699 101.81 70.2309 98.2616 69.1305 96.5902L70.5495 95.564L120.502 160.044L135.415 133.39C139.788 125.825 147.114 120.371 155.512 118.406L208.534 107.029H254.316L254.403 107.058L304.673 118.289C313.65 120.371 321.295 126.294 325.61 134.533L367.628 214.994H161.651L149.894 232.059C143.263 241.677 132.809 247.277 121.197 247.395C121.11 247.395 120.994 247.395 120.878 247.395ZM22.4216 132.363L93.6868 231.59C100.173 240.621 110.193 245.753 121.226 245.635C132.259 245.518 142.191 240.211 148.504 231.062L160.782 213.234H364.79L324.104 135.354C320.021 127.555 312.811 121.954 304.326 119.989L254.142 108.788H208.707L155.888 120.107C147.954 121.983 141.033 127.144 136.921 134.269L120.733 163.21L71.0997 99.1706C70.6943 101.37 69.2754 104.126 66.8429 107.205C63.0205 112.072 57.2868 117.174 50.7134 121.543C41.5337 127.643 30.5008 132.451 23.9274 132.451C23.4062 132.451 22.8849 132.422 22.4216 132.363Z" fill="#3FB1B5"/>
<path d="M309.944 213.792C309.625 213.792 309.336 213.616 309.162 213.323L294.596 184.206C294.393 183.766 294.538 183.238 294.972 183.033C295.407 182.827 295.928 182.974 296.131 183.414L310.697 212.531C310.899 212.971 310.754 213.499 310.32 213.704C310.204 213.762 310.088 213.792 309.944 213.792Z" fill="#3FB1B5"/>
<path d="M160.057 216.517C159.912 216.517 159.796 216.488 159.651 216.429C159.217 216.224 159.043 215.667 159.275 215.256L173.696 186.433C173.899 185.993 174.449 185.817 174.854 186.052C175.288 186.257 175.462 186.814 175.231 187.224L160.81 216.048C160.665 216.341 160.375 216.517 160.057 216.517Z" fill="#3FB1B5"/>
<path d="M133.909 179.865C133.649 179.865 133.388 179.747 133.214 179.513L100.173 136.731C99.8838 136.35 99.9417 135.793 100.318 135.5C100.695 135.207 101.245 135.265 101.534 135.647L134.575 178.428C134.865 178.809 134.807 179.366 134.43 179.659C134.286 179.806 134.083 179.865 133.909 179.865Z" fill="#3FB1B5"/>
<path d="M249.161 138.229L236.449 122.541C236.13 122.16 236.188 121.603 236.565 121.31C236.941 120.987 237.491 121.046 237.781 121.427L249.393 135.707L275.947 112.894C276.324 112.571 276.874 112.63 277.164 112.982C277.482 113.363 277.424 113.92 277.077 114.214L249.161 138.229Z" fill="#3FB1B5"/>
<path d="M216.149 138.784L185.541 114.241C185.164 113.948 185.106 113.39 185.396 113.009C185.686 112.628 186.236 112.569 186.612 112.863L215.831 136.291L227.095 121.718C227.385 121.337 227.935 121.278 228.311 121.571C228.688 121.865 228.746 122.422 228.456 122.803L216.149 138.784Z" fill="#3FB1B5"/>
<path d="M33.686 145.998C30.9351 145.998 29.4872 145.148 28.7632 144.209C28.4736 143.828 28.5316 143.271 28.908 142.978C29.2845 142.685 29.8346 142.743 30.1242 143.125C31.3404 144.679 35.3077 144.591 40.7228 142.949C46.4854 141.189 53.4353 137.729 59.7481 133.477C66.2057 129.138 71.8235 124.124 75.5591 119.315C78.9471 114.975 80.3081 111.398 79.2077 109.697C78.9471 109.287 79.063 108.759 79.4684 108.466C79.8738 108.202 80.395 108.319 80.6846 108.73C82.2483 111.163 80.9162 115.298 76.949 120.4C73.0976 125.326 67.335 130.487 60.7326 134.914C54.1882 139.313 47.2673 142.773 41.244 144.62C37.9718 145.617 35.5104 145.998 33.686 145.998Z" fill="#3FB1B5"/>
<path d="M70.8382 117.527C68.5505 117.527 66.6973 115.65 66.6973 113.334C66.6973 111.017 68.5505 109.141 70.8382 109.141C73.1259 109.141 74.9792 111.017 74.9792 113.334C74.9792 115.65 73.1259 117.527 70.8382 117.527ZM70.8382 110.9C69.5061 110.9 68.4347 111.985 68.4347 113.334C68.4347 114.683 69.5061 115.768 70.8382 115.768C72.1703 115.768 73.2417 114.683 73.2417 113.334C73.2417 111.985 72.1703 110.9 70.8382 110.9Z" fill="#3FB1B5"/>
<path d="M232.422 138.346C230.135 138.346 228.281 136.469 228.281 134.153C228.281 131.836 230.135 129.959 232.422 129.959C234.71 129.959 236.563 131.836 236.563 134.153C236.563 136.469 234.71 138.346 232.422 138.346ZM232.422 131.719C231.09 131.719 230.019 132.804 230.019 134.153C230.019 135.501 231.09 136.586 232.422 136.586C233.754 136.586 234.826 135.501 234.826 134.153C234.826 132.804 233.754 131.719 232.422 131.719Z" fill="#3FB1B5"/>
<path d="M232.422 165.029C230.135 165.029 228.281 163.152 228.281 160.836C228.281 158.519 230.135 156.643 232.422 156.643C234.71 156.643 236.563 158.519 236.563 160.836C236.563 163.152 234.71 165.029 232.422 165.029ZM232.422 158.402C231.09 158.402 230.019 159.487 230.019 160.836C230.019 162.184 231.09 163.269 232.422 163.269C233.754 163.269 234.826 162.184 234.826 160.836C234.826 159.487 233.754 158.402 232.422 158.402Z" fill="#3FB1B5"/>
<path d="M148.156 232.968L161.216 214.113V232.968H148.156Z" fill="#3FB1B5"/>
<path d="M49.9316 119.93C36.5531 128.844 22.5085 133.154 19.439 129.283C19.3811 129.225 19.3521 129.166 19.2942 129.078C18.6572 128.111 18.7151 126.791 19.2942 125.178C21.2923 119.871 29.5453 111.661 40.028 104.682C48.3678 99.1108 56.5919 95.2403 62.2965 94.0381C65.5977 93.3637 68.0591 93.5689 69.2464 94.8591L69.536 95.211C72.258 99.4334 63.5128 110.869 49.9316 119.93Z" fill="#FE5244"/>
<path d="M49.9307 119.928C42.3148 125.001 34.4672 128.607 28.5598 130.015L2.12131 92.2476C-1.55633 86.9696 -0.340109 79.6684 4.90126 75.9445L28.7046 58.9962L15.2102 35.7436C13.2411 32.3716 14.3704 28.0025 17.7296 26.0379C18.83 25.3928 20.0172 25.0996 21.2045 25.0996C23.4922 25.0996 25.7509 26.2432 27.083 28.3544L69.2745 94.7987L69.5641 95.2679C72.2572 99.4316 63.5119 110.867 49.9307 119.928Z" fill="#E57281"/>
<path d="M36.1755 92.6896C35.799 92.6896 35.4226 92.6602 35.0461 92.5723C33.5982 92.279 32.3531 91.3994 31.5712 90.1679L17.6425 69.0558C17.3819 68.6453 17.4977 68.1175 17.8742 67.8243C18.2796 67.5604 18.8008 67.6777 19.0904 68.0589L33.0191 89.1709C33.5693 90.0212 34.409 90.6077 35.3936 90.8129C36.3782 91.0182 37.3917 90.813 38.2315 90.2558L41.5037 88.086C43.2412 86.9424 43.7334 84.5966 42.633 82.8373L27.8936 59.702C27.6329 59.2915 27.7488 58.7637 28.1542 58.4998C28.5596 58.2359 29.0808 58.3532 29.3415 58.7637L44.0809 81.899C45.7026 84.4794 44.9497 87.9101 42.4303 89.5521L39.1581 91.722C38.2894 92.367 37.2469 92.6896 36.1755 92.6896Z" fill="#9A3B82"/>
<path d="M25.374 99.6972C23.5786 99.6972 21.8122 98.8175 20.7407 97.2048C20.4801 96.7943 20.5959 96.2665 21.0013 95.9733C21.4068 95.7094 21.928 95.8266 22.2176 96.2371C23.3469 97.9672 25.6636 98.4656 27.401 97.3514L30.3837 95.4454C31.2235 94.8883 31.8316 94.038 32.0343 93.0117C32.237 91.9854 32.0633 90.9591 31.5131 90.1088C31.2524 89.6983 31.3682 89.1705 31.7737 88.8772C32.1791 88.6133 32.7003 88.7306 32.9899 89.1411C33.8007 90.402 34.0903 91.8974 33.7718 93.3929C33.4532 94.859 32.5845 96.1199 31.3393 96.9409L28.3567 98.8468C27.43 99.404 26.3875 99.6972 25.374 99.6972Z" fill="#9A3B82"/>
<path d="M14.7767 106.264C13.0392 106.264 11.3307 105.443 10.2593 103.889L2.35385 92.6002C2.06427 92.1897 2.18013 91.6618 2.55658 91.3686C2.93303 91.0754 3.48321 91.1927 3.77278 91.5739L11.6782 102.863C12.8655 104.534 15.0952 104.974 16.7748 103.889L16.8327 103.86L19.5837 102.306C20.4524 101.749 21.0316 100.898 21.2632 99.9014C21.4949 98.8751 21.2922 97.8488 20.742 96.9692L7.10292 76.4436C6.8423 76.033 6.92918 75.5053 7.33459 75.212C7.74 74.9481 8.26122 75.0361 8.5508 75.4466L22.1899 95.9722C23.0296 97.2624 23.2903 98.7872 22.9717 100.253C22.6532 101.719 21.7845 102.98 20.5103 103.772L20.4813 103.801L17.7304 105.355C16.7748 106 15.7613 106.264 14.7767 106.264Z" fill="#9A3B82"/>
<path d="M59.43 79.3175L52.5091 68.439C50.2215 64.8323 45.4434 63.8354 41.9395 66.2398L24.7676 78.0273C24.7676 78.0273 29.7483 87.0879 41.8527 79.904L45.9067 86.4429C37.6248 91.7502 35.2503 102.922 40.6364 111.22L59.43 79.3175Z" fill="#E57281"/>
<path d="M40.6346 112.1C40.345 112.1 40.0844 111.954 39.9107 111.69C37.1886 107.467 36.233 102.424 37.3045 97.4979C38.289 92.865 40.9242 88.8771 44.7176 86.1795L41.5612 81.0774C37.3913 83.3939 33.5979 84.0683 30.2388 83.1593C25.982 81.9864 24.0708 78.585 23.9839 78.4677L23.6074 77.764L40.5188 65.8005C42.43 64.5103 44.6887 64.0412 46.9184 64.5103C49.1482 64.9795 51.0594 66.299 52.3046 68.2636L59.2255 79.1421C59.4861 79.5527 59.3703 80.0805 58.9649 80.3444C58.5595 80.6083 58.0382 80.491 57.7776 80.0804L50.8567 69.2019C49.8721 67.6478 48.3663 66.5922 46.571 66.2404C44.8045 65.8592 42.9802 66.2404 41.5033 67.2666L25.953 78.2625C26.648 79.1715 28.2117 80.8135 30.7021 81.4879C33.7716 82.3383 37.3624 81.5466 41.3875 79.1715L42.1114 78.7316L47.0632 86.7366L46.3393 87.2058C42.5458 89.6395 39.9107 93.4514 38.955 97.9084C37.9994 102.365 38.8392 106.94 41.3296 110.752C41.5902 111.162 41.4744 111.69 41.069 111.983C40.9531 112.042 40.8084 112.1 40.6346 112.1Z" fill="#9A3B82"/>
<path d="M49.9306 119.929C42.3147 125.001 34.4671 128.608 28.5597 130.015L21.9863 120.632C25.664 115.765 32.2374 109.9 40.027 104.71C48.3669 99.1391 56.5909 95.2686 62.2956 94.0664C65.5968 93.392 68.0582 93.5972 69.2454 94.8874L69.535 95.2393C69.564 95.2979 69.5929 95.3273 69.6219 95.3859C69.6509 95.4152 69.6509 95.4445 69.6798 95.5032C69.7088 95.5618 69.7377 95.5911 69.7667 95.6498C71.7358 100.136 63.0774 111.132 49.9306 119.929Z" fill="#9A3B82"/>
<path d="M254.197 82.1016V107.876C254.197 115.353 243.946 121.393 231.35 121.393C218.724 121.393 208.502 115.353 208.502 107.876V82.1016H254.197Z" fill="#E57281"/>
<path d="M215.193 117.435C211.052 115.001 208.475 111.6 208.475 107.876V82.1016H254.199V89.2562C254.199 96.6747 249.74 103.331 242.963 106.117L215.193 117.435Z" fill="#9A3B82"/>
<path d="M266.94 80.5798V81.0196C266.94 85.4766 263.379 89.0832 258.977 89.0832H253.736C251.969 96.2965 245.541 101.662 237.838 101.662H224.865C217.191 101.662 210.733 96.3258 208.996 89.0832H203.754C199.353 89.0832 195.791 85.4766 195.791 81.0196V80.5798C195.791 76.1228 199.353 72.5161 203.754 72.5161H208.503V66.1532C208.503 59.3504 213.455 53.7205 219.913 52.7822C221.332 55.1867 225.618 60.9338 234.363 60.6113C238.475 60.4647 242.297 59.673 245.454 58.7346C249.247 57.6204 253.041 59.9662 253.996 63.6315C254.141 64.4525 254.228 65.2735 254.228 66.1239V72.4868H258.977C263.35 72.4868 266.94 76.1228 266.94 80.5798Z" fill="#E57281"/>
<path d="M257.848 72.4861H254.2V65.4194C254.2 64.8037 254.113 64.1879 253.968 63.6308C253.012 59.9655 249.219 57.6197 245.425 58.734C242.269 59.6723 238.475 60.464 234.335 60.6106C225.589 60.9331 221.304 55.186 219.885 52.7815C213.427 53.7199 208.475 59.3497 208.475 66.1525V72.5154H203.929C203.929 72.5154 198.716 53.4266 202.626 48.0313C206.477 42.724 211.11 45.0405 211.11 45.0405C211.11 45.0405 208.33 29.1478 223.852 29.441C239.344 29.7342 259.499 47.9434 260.976 51.2861C263.292 56.4175 257.848 72.4861 257.848 72.4861Z" fill="#9A3B82"/>
<path d="M255.966 82.807C255.561 82.807 255.242 82.4844 255.242 82.0739C255.242 78.5552 258.08 75.6816 261.555 75.6816C261.96 75.6816 262.279 76.0042 262.279 76.4147C262.279 76.8252 261.96 77.1478 261.555 77.1478C258.862 77.1478 256.69 79.3469 256.69 82.0739C256.69 82.4844 256.372 82.807 255.966 82.807Z" fill="#9A3B82"/>
<path d="M206.795 82.8075C206.39 82.8075 206.071 82.4849 206.071 82.0744C206.071 79.3474 203.899 77.1482 201.206 77.1482C200.801 77.1482 200.482 76.8257 200.482 76.4152C200.482 76.0047 200.801 75.6821 201.206 75.6821C204.681 75.6821 207.519 78.5557 207.519 82.0744C207.519 82.4849 207.201 82.8075 206.795 82.8075Z" fill="#9A3B82"/>
<path d="M246.902 66.8844C246.757 66.8844 246.612 66.8257 246.468 66.7378C246.323 66.6205 242.587 63.9521 237.809 65.9754C237.433 66.122 237.027 65.9461 236.854 65.5649C236.709 65.1837 236.883 64.7732 237.259 64.5972C242.819 62.2808 247.134 65.3889 247.307 65.5355C247.626 65.7701 247.713 66.2393 247.452 66.5618C247.336 66.7671 247.134 66.8844 246.902 66.8844Z" fill="#9A3B82"/>
<path d="M215.511 66.8824C215.279 66.8824 215.077 66.7651 214.932 66.5892C214.7 66.2666 214.758 65.7975 215.077 65.5629C215.25 65.4163 219.594 62.3081 225.125 64.6246C225.501 64.7712 225.675 65.211 225.53 65.5922C225.386 65.9734 224.951 66.1493 224.575 66.0027C219.768 63.9795 215.974 66.7358 215.917 66.7651C215.801 66.8237 215.656 66.8824 215.511 66.8824Z" fill="#9A3B82"/>
<path d="M233.176 91.5739C232.046 91.5739 230.743 91.3393 229.266 90.7822C228.89 90.6355 228.687 90.2251 228.832 89.8439C228.977 89.4627 229.382 89.2574 229.759 89.404C235.84 91.6912 237.838 87.6447 237.925 87.4688C238.099 87.1169 238.533 86.9409 238.88 87.1169C239.228 87.2928 239.402 87.7327 239.228 88.0845C239.199 88.1432 237.548 91.5739 233.176 91.5739Z" fill="#9A3B82"/>
<path d="M231.119 86.0595C230.453 86.0595 229.729 86.0595 229.121 86.0008C228.716 85.9715 228.426 85.6196 228.455 85.2091C228.484 84.7986 228.832 84.5054 229.237 84.5347C230.946 84.652 233.581 84.5347 233.61 84.5347C234.015 84.5054 234.334 84.8279 234.363 85.2384C234.392 85.6489 234.073 85.9715 233.668 86.0008C233.61 86.0008 232.422 86.0595 231.119 86.0595Z" fill="#9A3B82"/>
<path d="M242.239 78.3798C243.039 78.3798 243.687 77.277 243.687 75.9167C243.687 74.5564 243.039 73.4536 242.239 73.4536C241.439 73.4536 240.791 74.5564 240.791 75.9167C240.791 77.277 241.439 78.3798 242.239 78.3798Z" fill="#9A3B82"/>
<path d="M221.477 78.3798C222.277 78.3798 222.925 77.277 222.925 75.9167C222.925 74.5564 222.277 73.4536 221.477 73.4536C220.678 73.4536 220.029 74.5564 220.029 75.9167C220.029 77.277 220.678 78.3798 221.477 78.3798Z" fill="#9A3B82"/>
<path d="M224.922 84.9465H215.8C213.657 84.9465 211.891 83.1578 211.891 80.988V71.7515C211.891 69.5816 213.657 67.793 215.8 67.793H224.922C227.065 67.793 228.831 69.5816 228.831 71.7515V80.988C228.86 82.0143 228.454 83.0112 227.731 83.7443C226.978 84.536 225.993 84.9465 224.922 84.9465ZM215.8 69.2591C214.439 69.2591 213.339 70.3733 213.339 71.7515V80.988C213.339 82.3661 214.439 83.4804 215.8 83.4804H224.922C225.588 83.4804 226.225 83.2165 226.688 82.718C227.151 82.2488 227.383 81.6331 227.383 80.988V71.7515C227.383 70.3733 226.283 69.2591 224.922 69.2591H215.8Z" fill="white"/>
<path d="M247.248 84.9465H238.126C235.983 84.9465 234.217 83.1578 234.217 80.988V71.7515C234.217 69.5816 235.983 67.793 238.126 67.793H247.248C249.391 67.793 251.157 69.5816 251.157 71.7515V80.988C251.157 83.1578 249.391 84.9465 247.248 84.9465ZM238.126 69.2591C236.765 69.2591 235.665 70.3733 235.665 71.7515V80.988C235.665 82.3661 236.765 83.4804 238.126 83.4804H247.248C248.609 83.4804 249.709 82.3661 249.709 80.988V71.7515C249.709 70.3733 248.609 69.2591 247.248 69.2591H238.126Z" fill="white"/>
<path d="M234.942 73.8916H228.137V75.3577H234.942V73.8916Z" fill="white"/>
<path d="M218 203.615H249.651C253.01 203.615 255.732 200.859 255.732 197.458V180.421C255.732 177.02 253.01 174.264 249.651 174.264H218C214.641 174.264 211.919 177.02 211.919 180.421V197.458C211.919 200.859 214.641 203.615 218 203.615ZM249.651 176.023C252.055 176.023 253.995 177.988 253.995 180.421V197.458C253.995 199.891 252.055 201.856 249.651 201.856H218C215.597 201.856 213.657 199.891 213.657 197.458V180.421C213.657 177.988 215.597 176.023 218 176.023H249.651Z" fill="#66B0F0"/>
<path d="M233.029 195.873H243.743C245.452 195.873 246.842 194.465 246.842 192.735V185.141C246.842 183.411 245.452 182.003 243.743 182.003H233.029C231.32 182.003 229.931 183.411 229.931 185.141V192.735C229.931 194.465 231.32 195.873 233.029 195.873Z" fill="#66B0F0"/>
<path d="M222.604 195.67L225.906 193.441C226.803 192.825 227.354 191.77 227.354 190.626V187.284C227.354 186.14 226.803 185.084 225.906 184.469L222.604 182.24C221.823 181.712 220.809 182.299 220.809 183.296V194.643C220.78 195.611 221.823 196.198 222.604 195.67Z" fill="#66B0F0"/>
</g>
<defs>
<clipPath id="clip0_277_108">
<rect width="387" height="299" fill="white" transform="matrix(-1 0 0 1 387 0)"/>
</clipPath>
</defs>
</svg>
