<svg width="495" height="554" viewBox="0 0 495 554" fill="none" xmlns="http://www.w3.org/2000/svg">
<path d="M157.961 429.042L161.205 437.911L176.192 478.817C181.815 482.799 188.915 485.358 196.879 485.358C197.82 485.358 198.952 485.127 199.911 485.07C208.24 484.492 216.223 480.837 221.75 476.181L217.279 426.848L216.952 423.27C192.792 432.659 164.62 431.081 157.961 429.042Z" fill="#E57281"/>
<path d="M157.96 429.042L164.312 446.358C183.694 448.994 212.096 433.101 217.258 426.848L216.932 423.27C192.79 432.659 164.619 431.081 157.96 429.042Z" fill="#9A3B82"/>
<path d="M175.884 478.758L180.471 526.916C181.296 539.615 191.006 549.332 202.52 549.332C203.038 549.332 203.556 549.312 204.094 549.274C216.299 548.35 225.491 536.825 224.627 523.549L221.845 480.99L221.557 476.43C219.101 478.739 216.241 480.72 213.075 482.259C209.102 484.184 204.67 485.434 199.93 485.8C198.97 485.877 198.03 485.915 197.089 485.915C194.364 485.915 191.697 485.607 189.164 485.03C189.087 485.011 188.991 484.992 188.914 484.972C184.174 483.856 179.837 481.798 176.229 479.008C176.095 478.931 175.98 478.854 175.884 478.758Z" fill="white"/>
<path d="M202.52 549.813C203.057 549.813 203.575 549.794 204.132 549.755C216.586 548.813 225.989 537.037 225.107 523.511L222.324 480.952L221.979 475.372L221.23 476.065C218.774 478.374 215.953 480.317 212.863 481.818C208.795 483.78 204.439 484.954 199.891 485.319C198.931 485.396 198.01 485.435 197.089 485.435C194.44 485.435 191.811 485.146 189.278 484.569C189.24 484.569 189.202 484.55 189.144 484.53C189.106 484.53 189.067 484.511 189.029 484.511C184.404 483.434 180.086 481.394 176.517 478.624L176.459 478.585C176.344 478.508 176.267 478.47 176.21 478.412L175.269 477.469L179.99 526.955C180.393 533.189 182.926 538.961 187.148 543.214C191.351 547.466 196.801 549.813 202.52 549.813ZM221.134 477.469L221.365 481.029L224.147 523.588C224.992 536.595 215.972 547.908 204.055 548.793C203.518 548.832 203.019 548.851 202.52 548.851C197.07 548.851 191.85 546.619 187.82 542.54C183.771 538.442 181.334 532.882 180.95 526.879L176.459 479.778C180.029 482.414 184.289 484.377 188.799 485.435C188.837 485.435 188.875 485.454 188.933 485.473C188.971 485.473 189.01 485.492 189.048 485.492C191.677 486.089 194.364 486.397 197.089 486.397C198.048 486.397 198.989 486.358 199.967 486.281C204.631 485.916 209.121 484.723 213.285 482.703C216.145 481.298 218.793 479.547 221.134 477.469Z" fill="#FFCF2D"/>
<path d="M202.175 539.654C202.635 539.654 203.077 539.635 203.537 539.596C214.092 538.788 222.094 528.802 221.346 517.316L218.794 478.97L217.834 479.027L220.387 517.373C221.097 528.321 213.497 537.845 203.461 538.615C203.019 538.653 202.597 538.673 202.175 538.673C192.656 538.673 184.673 530.553 184.002 520.163L180.759 481.625L179.799 481.702L183.042 520.24C183.388 525.531 185.537 530.438 189.106 534.036C192.676 537.672 197.32 539.654 202.175 539.654Z" fill="#FFCF2D"/>
<path d="M188.951 484.55C191.484 485.069 194.344 485.165 197.069 485.165C198.009 485.165 198.949 485.127 199.909 485.069C204.649 484.742 209.101 483.588 213.054 481.817L214.321 475.584C215.127 472.928 213.112 470.254 210.329 470.35L191.906 470.889C189.565 470.947 187.781 472.986 187.992 475.314L188.951 484.55Z" fill="#FFCF2D"/>
<path d="M189.143 484.358L191.465 513.622C191.868 519.298 197.241 523.493 202.308 522.569L202.711 522.531C209.926 521.203 215.453 513.661 214.513 505.58L213.054 481.799C209.082 483.569 204.649 484.723 199.909 485.05C198.949 485.127 198.009 485.147 197.069 485.147C194.344 485.166 191.676 484.877 189.143 484.358Z" fill="#FFCF2D"/>
<path d="M191.963 516.547C192.002 516.547 192.04 516.547 192.079 516.527L213.092 511.717C214.474 511.409 215.03 510.236 214.973 509.235C214.915 508.216 214.243 507.1 212.823 506.926L192.731 504.56C191.676 504.425 191.234 503.617 191.177 502.963C191.119 502.309 191.407 501.424 192.405 501.116L211.653 494.997C213.207 494.497 214.147 493.131 214.071 491.496C213.975 489.86 212.881 488.61 211.288 488.282L196.128 485.647C196.838 485.647 197.567 485.627 198.315 485.608C205.09 485.396 210.117 484.415 213.284 482.664C213.514 482.53 213.591 482.241 213.476 482.01C213.341 481.779 213.053 481.702 212.823 481.818C205.588 485.82 189.353 484.454 189.181 484.434C188.931 484.415 188.701 484.588 188.663 484.858C188.624 485.108 188.797 485.358 189.066 485.396L211.115 489.225C212.516 489.514 213.073 490.649 213.111 491.553C213.169 492.438 212.727 493.651 211.365 494.093L192.117 500.212C190.678 500.673 190.121 501.982 190.236 503.059C190.332 504.156 191.119 505.349 192.635 505.522L212.727 507.888C213.648 508.004 213.994 508.716 214.032 509.293C214.051 509.87 213.783 510.601 212.9 510.794L191.887 515.604C191.637 515.662 191.464 515.912 191.522 516.181C191.541 516.393 191.752 516.547 191.963 516.547Z" fill="white"/>
<path d="M118.312 320.814L157.96 429.041C164.619 431.081 196.033 433.775 226.699 419.518L202.577 307.635C200.332 290.703 185.939 278.043 168.879 278.043H151.147C128.867 278.024 112.594 299.188 118.312 320.814Z" fill="#87C3FF"/>
<path d="M170.607 419.652C173.524 419.652 176.71 419.556 180.106 419.325C191.448 418.555 208.45 416.016 225.031 408.3C225.319 408.165 225.453 407.819 225.319 407.531C225.184 407.242 224.839 407.107 224.551 407.242C193.981 421.461 159.937 418.882 153.528 416.939C153.221 416.843 152.895 417.016 152.818 417.324C152.722 417.632 152.895 417.959 153.202 418.036C155.6 418.786 161.895 419.652 170.607 419.652Z" fill="white"/>
<path d="M105.091 431.177L109.083 438.277L134.625 483.088C144.47 486.994 156.08 488.437 166.481 486.243L167.786 485.878C172.929 484.8 178.187 481.914 181.91 478.682L163.276 428.753C163.276 428.753 163.257 428.753 163.238 428.753C156.809 430.889 134.702 436.892 105.091 431.177Z" fill="#E57281"/>
<path d="M105.092 431.178L113.516 446.05C145.948 451.245 164.332 431.678 164.332 431.678L163.257 428.772C156.809 430.889 134.702 436.892 105.092 431.178Z" fill="#9A3B82"/>
<path d="M50.4379 337.977L94.6716 429.1C132.112 438.489 156.867 430.889 163.258 428.773L116.971 304.653C113.804 297.13 108.546 290.915 102.041 286.586C95.5352 282.257 87.7823 279.813 79.6456 279.813C48.8259 279.813 35.5462 310.906 50.4379 337.977Z" fill="#87C3FF"/>
<path d="M125.434 424.443C129.023 424.443 132.554 424.289 136.065 424C144.432 423.308 152.435 421.749 159.228 419.498C159.535 419.402 159.689 419.075 159.593 418.767C159.497 418.459 159.17 418.305 158.863 418.402C152.166 420.614 144.24 422.153 135.969 422.846C121.212 424.077 105.687 422.692 89.8359 418.709C89.5289 418.632 89.2218 418.825 89.145 419.133C89.0683 419.441 89.2602 419.748 89.5673 419.825C101.772 422.904 113.805 424.443 125.434 424.443Z" fill="white"/>
<path d="M117.514 304.42L185.539 488.281L184.459 488.683L116.434 304.821L117.514 304.42Z" fill="white"/>
<path d="M135.009 483.223L136.506 487.167L153.47 531.67C158.325 546.927 174.292 555.99 188.32 552.507L189.088 552.257C198.932 549.814 205.188 537.923 201.331 527.418L181.949 479.932L181.546 478.951C179.109 481.145 176.268 482.953 173.102 484.262C171.413 484.954 169.629 485.512 167.767 485.916L166.462 486.282C160.955 487.436 155.274 487.648 149.671 486.994C144.643 486.378 139.692 485.108 135.009 483.223Z" fill="white"/>
<path d="M182.121 553.739C184.251 553.739 186.362 553.489 188.435 552.97H188.473L189.221 552.719C193.942 551.546 198.087 548.159 200.582 543.446C203.269 538.385 203.691 532.479 201.772 527.264L182.39 479.76L181.737 478.144L181.238 478.605C178.801 480.799 175.999 482.569 172.929 483.819C171.24 484.512 169.475 485.051 167.671 485.455H167.652L166.366 485.82C160.993 486.936 155.389 487.187 149.747 486.513C144.738 485.897 139.845 484.647 135.201 482.781L134.184 482.376L136.064 487.34L153.029 531.824C155.389 539.251 160.436 545.523 167.229 549.526C171.931 552.315 177.074 553.739 182.121 553.739ZM188.185 552.046C181.469 553.701 174.195 552.527 167.69 548.698C161.108 544.831 156.214 538.712 153.911 531.516V531.497L136.947 486.994L135.834 484.07C140.248 485.744 144.873 486.898 149.613 487.475C155.37 488.149 161.069 487.898 166.558 486.763H166.596L167.882 486.398C169.743 485.994 171.547 485.436 173.274 484.724C176.23 483.492 178.955 481.838 181.353 479.779L181.507 480.145L200.889 527.63C202.712 532.594 202.29 538.193 199.738 543.022C197.358 547.505 193.443 550.718 188.972 551.815H188.934L188.185 552.046Z" fill="#FFCF2D"/>
<path d="M179.356 543.254C181.141 543.254 182.925 543.042 184.672 542.6L184.71 542.58L185.324 542.369C189.316 541.368 192.808 538.521 194.9 534.557C197.145 530.305 197.51 525.341 195.917 520.935L179.49 480.934C179.394 480.684 179.106 480.568 178.857 480.665C178.608 480.761 178.492 481.049 178.588 481.3L195.015 521.281C196.531 525.418 196.186 530.093 194.056 534.114C192.079 537.847 188.817 540.522 185.075 541.464L185.036 541.484L184.422 541.695C178.819 543.081 172.755 542.099 167.324 538.905C161.816 535.673 157.729 530.574 155.829 524.552V524.533L140.956 485.128C140.86 484.878 140.592 484.763 140.342 484.84C140.093 484.936 139.977 485.205 140.054 485.455L154.927 524.841C156.923 531.075 161.144 536.346 166.844 539.713C170.816 542.042 175.115 543.254 179.356 543.254Z" fill="#FFCF2D"/>
<path d="M146.197 481.03L149.69 486.956C155.274 487.61 160.954 487.398 166.481 486.244L167.786 485.878C169.648 485.494 171.432 484.936 173.121 484.224L171.739 474.604C171.413 472.295 169.187 470.736 166.903 471.217L148.865 475.008C146.14 475.566 144.777 478.644 146.197 481.03Z" fill="#FFCF2D"/>
<path d="M149.688 486.956L149.784 487.11L158.803 511.006C161.279 518.76 169.377 523.359 176.516 521.589L176.9 521.454C181.908 520.203 185.094 514.162 183.117 508.832L173.158 484.589L173.1 484.224C171.411 484.916 169.627 485.474 167.765 485.878L166.46 486.244C160.953 487.418 155.272 487.61 149.688 486.956Z" fill="#FFCF2D"/>
<path d="M162.682 515.836C162.797 515.836 162.912 515.836 163.027 515.817L183.753 513.566C184.021 513.547 184.213 513.296 184.175 513.027C184.136 512.758 183.906 512.565 183.637 512.604L162.912 514.855C161.78 514.97 161.146 514.22 160.935 513.527C160.724 512.854 160.839 511.873 161.837 511.334L177.976 502.695C179.358 501.964 179.665 500.54 179.377 499.463C179.089 498.385 178.091 497.308 176.518 497.385L156.138 498.308C154.91 498.366 154.238 497.519 154.027 496.769C153.816 496.019 153.969 494.941 155.063 494.364L173.351 484.59C173.582 484.474 173.678 484.186 173.563 483.955C173.447 483.724 173.16 483.628 172.929 483.743C172.91 483.762 170.55 484.859 166.539 485.725C162.835 486.533 156.944 487.303 149.824 486.418C149.555 486.379 149.325 486.572 149.287 486.841C149.248 487.11 149.44 487.341 149.709 487.38C156.982 488.284 163.008 487.495 166.788 486.668C167.23 486.572 167.633 486.475 168.036 486.379L154.641 493.537C153.144 494.325 152.818 495.884 153.125 497.058C153.451 498.231 154.526 499.386 156.214 499.289L176.595 498.366C177.688 498.327 178.303 499.078 178.475 499.732C178.648 500.386 178.514 501.348 177.554 501.868L161.415 510.507C160.014 511.257 159.707 512.719 160.053 513.816C160.34 514.855 161.281 515.836 162.682 515.836Z" fill="white"/>
<path d="M232.342 283.757C154.189 283.757 90.8327 220.236 90.8327 141.879C90.8327 63.5212 154.189 0 232.342 0C310.496 0 373.852 63.5212 373.852 141.879C373.852 220.236 310.496 283.757 232.342 283.757Z" fill="#D0F0E4"/>
<path d="M279.954 284.412C294.653 279.486 308.47 272.29 321.002 263.055C333.399 253.916 344.28 242.987 353.376 230.539C362.568 217.936 369.707 204.083 374.6 189.326C379.666 174.068 382.219 158.118 382.219 141.879H380.875C380.875 157.964 378.342 173.779 373.314 188.902C368.459 203.525 361.397 217.263 352.282 229.75C343.282 242.083 332.497 252.934 320.196 261.977C307.76 271.136 294.078 278.255 279.512 283.142L279.954 284.412Z" fill="#87C3FF"/>
<path d="M232.344 234.482C234.244 234.482 236.144 234.425 238.024 234.309C238.562 234.271 238.965 233.828 238.926 233.29C238.888 232.751 238.447 232.347 237.909 232.385C236.067 232.501 234.186 232.558 232.344 232.558H232.21C231.672 232.558 231.25 232.982 231.25 233.52C231.25 234.059 231.672 234.482 232.21 234.482H232.344ZM225.493 234.232C225.992 234.232 226.414 233.848 226.453 233.347C226.491 232.809 226.088 232.347 225.57 232.308C223.689 232.174 221.77 231.962 219.909 231.712C219.391 231.635 218.892 232 218.834 232.539C218.757 233.059 219.122 233.559 219.659 233.617C221.578 233.886 223.517 234.078 225.455 234.232C225.455 234.232 225.474 234.232 225.493 234.232ZM244.645 233.655C244.683 233.655 244.722 233.655 244.779 233.655C246.698 233.405 248.617 233.078 250.517 232.693C251.035 232.597 251.381 232.077 251.266 231.558C251.151 231.038 250.652 230.692 250.133 230.808C248.272 231.173 246.391 231.5 244.511 231.75C243.993 231.827 243.609 232.308 243.686 232.828C243.762 233.309 244.184 233.655 244.645 233.655ZM213.154 232.462C213.595 232.462 213.998 232.154 214.094 231.693C214.209 231.173 213.883 230.654 213.365 230.557C211.523 230.153 209.661 229.692 207.838 229.191C207.32 229.057 206.802 229.345 206.648 229.865C206.514 230.384 206.802 230.904 207.32 231.058C209.181 231.577 211.081 232.058 212.962 232.462C213.019 232.462 213.096 232.462 213.154 232.462ZM256.869 231.154C256.946 231.154 257.042 231.135 257.119 231.115C258.98 230.596 260.842 230.019 262.665 229.384C263.164 229.211 263.432 228.653 263.26 228.152C263.087 227.652 262.53 227.383 262.031 227.556C260.247 228.172 258.424 228.749 256.601 229.268C256.082 229.403 255.795 229.942 255.929 230.461C256.063 230.865 256.447 231.154 256.869 231.154ZM201.16 229.018C201.544 229.018 201.927 228.768 202.062 228.383C202.234 227.883 201.985 227.325 201.486 227.152C199.701 226.498 197.936 225.786 196.209 225.035C195.729 224.824 195.153 225.055 194.942 225.536C194.731 226.017 194.961 226.594 195.441 226.806C197.207 227.575 199.03 228.306 200.834 228.96C200.949 228.999 201.064 229.018 201.16 229.018ZM268.633 226.979C268.767 226.979 268.882 226.959 269.017 226.902C270.782 226.132 272.567 225.286 274.294 224.42C274.774 224.17 274.947 223.592 274.716 223.131C274.467 222.65 273.891 222.476 273.431 222.707C271.742 223.573 270.015 224.4 268.268 225.151C267.789 225.363 267.558 225.92 267.769 226.421C267.904 226.767 268.268 226.979 268.633 226.979ZM189.78 223.958C190.125 223.958 190.452 223.766 190.624 223.438C190.874 222.977 190.701 222.38 190.221 222.13C188.552 221.245 186.882 220.302 185.27 219.302C184.81 219.032 184.234 219.167 183.946 219.629C183.677 220.091 183.812 220.668 184.272 220.956C185.923 221.957 187.611 222.938 189.319 223.843C189.473 223.919 189.626 223.958 189.78 223.958ZM279.725 221.226C279.898 221.226 280.07 221.187 280.224 221.091C281.874 220.091 283.525 219.013 285.098 217.897C285.54 217.589 285.636 216.993 285.329 216.55C285.021 216.108 284.427 216.012 283.985 216.32C282.431 217.397 280.819 218.455 279.207 219.436C278.746 219.706 278.612 220.302 278.881 220.764C279.092 221.053 279.399 221.226 279.725 221.226ZM179.168 217.397C179.475 217.397 179.763 217.262 179.955 216.993C180.262 216.57 180.166 215.954 179.724 215.646C178.189 214.549 176.673 213.376 175.195 212.183C174.792 211.856 174.178 211.913 173.852 212.318C173.526 212.722 173.583 213.337 173.986 213.664C175.483 214.896 177.038 216.089 178.611 217.205C178.784 217.339 178.976 217.397 179.168 217.397ZM289.915 214.011C290.126 214.011 290.337 213.934 290.51 213.799C292.007 212.587 293.484 211.298 294.904 209.97C295.288 209.605 295.327 209.008 294.962 208.604C294.597 208.219 294.003 208.181 293.6 208.546C292.199 209.836 290.759 211.086 289.282 212.279C288.879 212.606 288.802 213.222 289.147 213.626C289.358 213.895 289.646 214.011 289.915 214.011ZM169.553 209.431C169.803 209.431 170.072 209.335 170.244 209.124C170.609 208.739 170.59 208.123 170.206 207.758C168.824 206.449 167.481 205.083 166.195 203.698C165.83 203.313 165.236 203.294 164.833 203.659C164.449 204.025 164.43 204.621 164.794 205.025C166.118 206.449 167.5 207.835 168.901 209.162C169.074 209.354 169.323 209.431 169.553 209.431ZM299.05 205.487C299.299 205.487 299.568 205.391 299.74 205.179C301.065 203.775 302.35 202.293 303.579 200.793C303.924 200.388 303.866 199.773 303.444 199.446C303.041 199.099 302.427 199.157 302.101 199.58C300.892 201.043 299.625 202.486 298.34 203.871C297.975 204.256 297.994 204.871 298.378 205.237C298.57 205.41 298.819 205.487 299.05 205.487ZM161.09 200.254C161.302 200.254 161.513 200.177 161.685 200.042C162.108 199.715 162.165 199.099 161.839 198.695C160.649 197.214 159.498 195.675 158.404 194.135C158.097 193.693 157.502 193.597 157.06 193.904C156.619 194.212 156.523 194.809 156.83 195.251C157.943 196.829 159.133 198.407 160.342 199.907C160.534 200.119 160.803 200.254 161.09 200.254ZM306.937 195.809C307.244 195.809 307.532 195.675 307.724 195.405C308.837 193.827 309.93 192.192 310.948 190.537C311.235 190.095 311.082 189.498 310.641 189.21C310.199 188.921 309.604 189.075 309.316 189.518C308.318 191.134 307.263 192.731 306.169 194.27C305.862 194.713 305.958 195.309 306.399 195.617C306.553 195.752 306.745 195.809 306.937 195.809ZM153.952 189.979C154.124 189.979 154.297 189.941 154.451 189.845C154.911 189.575 155.045 188.979 154.777 188.517C153.798 186.882 152.858 185.208 151.994 183.534C151.745 183.053 151.169 182.88 150.708 183.13C150.229 183.38 150.056 183.957 150.306 184.419C151.188 186.131 152.148 187.863 153.146 189.518C153.299 189.826 153.625 189.979 153.952 189.979ZM313.442 185.15C313.788 185.15 314.114 184.958 314.287 184.631C315.189 182.918 316.033 181.148 316.801 179.378C317.012 178.897 316.801 178.32 316.321 178.108C315.841 177.896 315.265 178.108 315.054 178.589C314.287 180.321 313.461 182.052 312.579 183.726C312.329 184.188 312.521 184.785 312.982 185.015C313.135 185.112 313.289 185.15 313.442 185.15ZM148.271 178.839C148.406 178.839 148.521 178.82 148.655 178.762C149.135 178.551 149.365 177.993 149.154 177.492C148.406 175.742 147.715 173.952 147.082 172.163C146.909 171.663 146.352 171.393 145.853 171.586C145.354 171.759 145.086 172.317 145.278 172.817C145.93 174.645 146.64 176.473 147.408 178.262C147.542 178.628 147.888 178.839 148.271 178.839ZM318.432 173.702C318.835 173.702 319.199 173.452 319.334 173.067C319.986 171.239 320.581 169.373 321.118 167.507C321.272 166.987 320.965 166.468 320.466 166.314C319.948 166.16 319.43 166.468 319.276 166.968C318.758 168.796 318.163 170.624 317.53 172.413C317.357 172.913 317.607 173.471 318.106 173.644C318.221 173.683 318.317 173.702 318.432 173.702ZM144.165 167.026C144.241 167.026 144.337 167.006 144.414 166.987C144.932 166.852 145.22 166.314 145.086 165.813C144.587 163.986 144.145 162.119 143.762 160.253C143.646 159.734 143.148 159.406 142.629 159.503C142.111 159.618 141.785 160.118 141.881 160.638C142.265 162.543 142.725 164.447 143.243 166.314C143.359 166.756 143.742 167.026 144.165 167.026ZM321.809 161.677C322.251 161.677 322.654 161.369 322.75 160.907C323.153 159.022 323.479 157.078 323.767 155.154C323.843 154.635 323.479 154.135 322.961 154.058C322.443 153.981 321.944 154.346 321.867 154.866C321.598 156.751 321.272 158.637 320.888 160.484C320.773 161.003 321.118 161.523 321.637 161.619C321.694 161.677 321.752 161.677 321.809 161.677ZM141.708 154.77C141.747 154.77 141.785 154.77 141.843 154.77C142.361 154.693 142.745 154.212 142.668 153.692C142.418 151.806 142.246 149.902 142.111 147.997C142.073 147.458 141.631 147.073 141.094 147.093C140.557 147.131 140.173 147.593 140.192 148.112C140.327 150.056 140.518 151.999 140.768 153.923C140.825 154.423 141.228 154.77 141.708 154.77ZM323.517 149.286C324.016 149.286 324.438 148.901 324.477 148.382C324.611 146.458 324.688 144.495 324.707 142.552C324.707 142.013 324.285 141.59 323.748 141.59C323.21 141.59 322.788 142.013 322.788 142.552C322.769 144.457 322.692 146.381 322.577 148.266C322.539 148.805 322.942 149.248 323.46 149.286C323.479 149.286 323.498 149.286 323.517 149.286ZM140.941 142.302C141.459 142.302 141.9 141.878 141.9 141.34C141.919 139.435 141.977 137.511 142.111 135.625C142.15 135.087 141.747 134.644 141.228 134.606C140.71 134.567 140.25 134.971 140.211 135.491C140.077 137.415 140 139.377 140 141.32C139.981 141.859 140.403 142.282 140.941 142.302ZM323.556 136.78C323.575 136.78 323.594 136.78 323.613 136.78C324.15 136.741 324.534 136.279 324.515 135.76C324.381 133.817 324.208 131.873 323.959 129.949C323.882 129.43 323.402 129.045 322.884 129.122C322.366 129.199 321.982 129.68 322.059 130.2C322.308 132.085 322.481 133.99 322.615 135.895C322.634 136.395 323.057 136.78 323.556 136.78ZM141.862 129.815C142.342 129.815 142.745 129.468 142.802 128.987C143.071 127.102 143.397 125.216 143.781 123.35C143.896 122.83 143.55 122.311 143.032 122.215C142.514 122.099 141.996 122.446 141.9 122.965C141.516 124.851 141.171 126.794 140.902 128.718C140.826 129.237 141.19 129.738 141.708 129.815C141.766 129.815 141.804 129.815 141.862 129.815ZM321.886 124.389C321.944 124.389 322.02 124.389 322.078 124.37C322.596 124.254 322.942 123.754 322.826 123.234C322.443 121.33 321.982 119.425 321.483 117.559C321.349 117.039 320.811 116.75 320.312 116.885C319.794 117.02 319.506 117.559 319.641 118.059C320.14 119.887 320.581 121.753 320.965 123.619C321.042 124.081 321.445 124.389 321.886 124.389ZM144.452 117.597C144.875 117.597 145.258 117.328 145.374 116.904C145.892 115.077 146.487 113.249 147.12 111.459C147.293 110.959 147.043 110.401 146.544 110.228C146.045 110.055 145.489 110.305 145.316 110.805C144.664 112.633 144.069 114.499 143.531 116.366C143.378 116.885 143.685 117.405 144.184 117.559C144.28 117.578 144.376 117.597 144.452 117.597ZM318.566 112.344C318.681 112.344 318.777 112.325 318.892 112.287C319.391 112.114 319.66 111.556 319.487 111.055C318.835 109.227 318.125 107.4 317.376 105.61C317.165 105.129 316.609 104.898 316.11 105.11C315.611 105.322 315.4 105.88 315.611 106.38C316.359 108.131 317.05 109.92 317.683 111.709C317.799 112.094 318.163 112.344 318.566 112.344ZM148.693 105.841C149.058 105.841 149.423 105.63 149.576 105.264C150.344 103.532 151.169 101.801 152.033 100.127C152.282 99.6458 152.09 99.0686 151.63 98.8377C151.169 98.5875 150.574 98.7799 150.344 99.2417C149.461 100.954 148.617 102.724 147.83 104.494C147.619 104.975 147.83 105.553 148.329 105.764C148.425 105.822 148.559 105.841 148.693 105.841ZM313.615 100.858C313.769 100.858 313.922 100.819 314.056 100.742C314.536 100.492 314.709 99.9151 314.459 99.4534C313.577 97.741 312.617 96.0093 311.619 94.3547C311.351 93.8929 310.756 93.7582 310.295 94.0276C309.835 94.2969 309.7 94.8934 309.969 95.3552C310.948 96.9906 311.869 98.6645 312.751 100.358C312.924 100.666 313.27 100.858 313.615 100.858ZM154.489 94.7972C154.815 94.7972 155.122 94.6433 155.314 94.3354C156.312 92.7192 157.368 91.1223 158.461 89.5638C158.768 89.1213 158.672 88.5248 158.231 88.217C157.79 87.9091 157.195 88.0053 156.888 88.4479C155.775 90.0256 154.7 91.661 153.683 93.3157C153.414 93.7775 153.549 94.3547 153.99 94.6433C154.144 94.7395 154.316 94.7972 154.489 94.7972ZM307.148 90.1603C307.34 90.1603 307.532 90.1025 307.704 89.9871C308.146 89.6792 308.242 89.0828 307.935 88.6403C306.822 87.0625 305.651 85.4848 304.442 83.9648C304.116 83.5416 303.502 83.4838 303.099 83.8109C302.677 84.138 302.619 84.7537 302.945 85.1577C304.135 86.6393 305.286 88.1785 306.38 89.7177C306.553 90.0063 306.841 90.1603 307.148 90.1603ZM161.743 84.619C162.012 84.619 162.299 84.5036 162.491 84.2727C163.7 82.8104 164.948 81.3674 166.253 79.9821C166.617 79.5973 166.598 78.9816 166.214 78.616C165.83 78.2504 165.216 78.2697 164.852 78.6545C163.528 80.0783 162.242 81.5406 161.014 83.0413C160.668 83.4454 160.745 84.061 161.148 84.3881C161.321 84.5613 161.532 84.619 161.743 84.619ZM299.28 80.4439C299.51 80.4439 299.74 80.3669 299.932 80.1937C300.316 79.8282 300.335 79.2317 299.99 78.8277C298.666 77.4039 297.303 76.0186 295.902 74.691C295.519 74.3254 294.904 74.3446 294.54 74.7295C294.175 75.1143 294.194 75.73 294.578 76.0955C295.96 77.4039 297.303 78.7699 298.589 80.1552C298.762 80.3284 299.03 80.4439 299.28 80.4439ZM170.321 75.5376C170.551 75.5376 170.782 75.4606 170.973 75.2874C172.355 73.9983 173.814 72.7477 175.272 71.5356C175.675 71.2085 175.752 70.5928 175.406 70.1887C175.08 69.7847 174.466 69.7077 174.063 70.054C172.566 71.2854 171.089 72.5745 169.669 73.8829C169.285 74.2485 169.246 74.8449 169.611 75.2489C169.803 75.4221 170.052 75.5376 170.321 75.5376ZM290.184 71.8819C290.452 71.8819 290.74 71.7664 290.932 71.5356C291.258 71.1315 291.201 70.5158 290.798 70.1887C289.301 68.9573 287.746 67.7644 286.173 66.6293C285.751 66.3214 285.137 66.4176 284.83 66.8409C284.523 67.2642 284.618 67.8799 285.041 68.1877C286.576 69.2844 288.092 70.4581 289.57 71.6702C289.761 71.8049 289.973 71.8819 290.184 71.8819ZM180.031 67.6875C180.223 67.6875 180.415 67.6297 180.588 67.5143C182.142 66.4176 183.754 65.3786 185.366 64.3781C185.827 64.1088 185.961 63.5123 185.692 63.0505C185.424 62.5888 184.829 62.4541 184.368 62.7235C182.718 63.724 181.087 64.8014 179.494 65.9174C179.053 66.2252 178.957 66.8217 179.264 67.2642C179.436 67.5335 179.724 67.6875 180.031 67.6875ZM280.032 64.6475C280.358 64.6475 280.665 64.4936 280.857 64.1857C281.126 63.724 280.991 63.1467 280.531 62.8581C278.881 61.8384 277.192 60.8764 275.484 59.9721C275.023 59.7219 274.428 59.8951 274.179 60.3761C273.929 60.8379 274.102 61.4343 274.582 61.6845C276.251 62.5695 277.921 63.5123 279.533 64.5128C279.687 64.5898 279.859 64.6475 280.032 64.6475ZM190.72 61.2227C190.874 61.2227 191.008 61.1842 191.162 61.1073C192.85 60.2414 194.578 59.4141 196.324 58.6637C196.804 58.4521 197.034 57.8941 196.823 57.3939C196.612 56.9129 196.055 56.682 195.556 56.8936C193.791 57.6632 192.006 58.5098 190.279 59.3949C189.799 59.645 189.626 60.2222 189.857 60.684C190.029 61.0303 190.375 61.2227 190.72 61.2227ZM268.978 58.8561C269.343 58.8561 269.708 58.6445 269.861 58.2789C270.072 57.7979 269.861 57.2207 269.362 57.0091C267.597 56.2394 265.774 55.5083 263.97 54.8349C263.471 54.6617 262.914 54.9119 262.742 55.4121C262.569 55.9124 262.818 56.4703 263.317 56.6435C265.083 57.2977 266.867 58.0096 268.595 58.7599C268.729 58.8369 268.844 58.8561 268.978 58.8561ZM202.196 56.2972C202.292 56.2972 202.407 56.2779 202.503 56.2394C204.288 55.6045 206.111 55.0465 207.934 54.527C208.452 54.3924 208.74 53.8536 208.606 53.3341C208.471 52.8146 207.934 52.526 207.416 52.6607C205.554 53.1802 203.693 53.7767 201.87 54.4116C201.371 54.5848 201.102 55.1427 201.275 55.643C201.428 56.047 201.793 56.2972 202.196 56.2972ZM257.253 54.6425C257.675 54.6425 258.059 54.3731 258.174 53.9498C258.328 53.4303 258.021 52.9108 257.503 52.7569C255.641 52.2374 253.741 51.7564 251.861 51.3524C251.342 51.2369 250.824 51.564 250.728 52.0835C250.613 52.603 250.939 53.1225 251.458 53.2187C253.3 53.6227 255.161 54.0845 256.984 54.604C257.08 54.6232 257.157 54.6425 257.253 54.6425ZM214.228 53.0071C214.286 53.0071 214.363 53.007 214.42 52.9878C216.282 52.6222 218.162 52.2952 220.043 52.045C220.561 51.9681 220.945 51.4871 220.868 50.9676C220.792 50.4481 220.312 50.0825 219.794 50.1402C217.875 50.4096 215.956 50.7367 214.056 51.1023C213.538 51.1985 213.192 51.7179 213.307 52.2374C213.384 52.68 213.768 53.0071 214.228 53.0071ZM245.048 52.0835C245.528 52.0835 245.931 51.7372 245.988 51.2562C246.065 50.7367 245.701 50.2364 245.163 50.1787C243.244 49.9093 241.306 49.6977 239.387 49.563C238.85 49.5245 238.389 49.9286 238.351 50.4481C238.312 50.9868 238.715 51.4486 239.233 51.4871C241.114 51.6217 243.033 51.8334 244.895 52.1028C244.952 52.0643 245.01 52.0835 245.048 52.0835ZM226.587 51.3716C226.606 51.3716 226.625 51.3716 226.645 51.3716C228.525 51.2562 230.444 51.1985 232.344 51.1985H232.613C233.15 51.1985 233.572 50.7752 233.572 50.2364C233.572 49.6977 233.15 49.2744 232.613 49.2744H232.344C230.406 49.2744 228.448 49.3321 226.529 49.4476C225.992 49.4861 225.589 49.9286 225.627 50.4673C225.666 50.9868 226.088 51.3716 226.587 51.3716Z" fill="white"/>
<path d="M232.342 66.9562C233.129 66.9562 233.781 66.302 233.781 65.5132V50.2555C233.781 49.4667 233.129 48.8125 232.342 48.8125C231.555 48.8125 230.903 49.4667 230.903 50.2555V65.5132C230.903 66.302 231.555 66.9562 232.342 66.9562Z" fill="white"/>
<path d="M232.342 234.964C233.129 234.964 233.781 234.31 233.781 233.521V218.244C233.781 217.455 233.129 216.801 232.342 216.801C231.555 216.801 230.903 217.455 230.903 218.244V233.521C230.903 234.31 231.555 234.964 232.342 234.964Z" fill="white"/>
<path d="M286.21 89.333C286.575 89.333 286.939 89.1983 287.227 88.9097L297.993 78.0966C298.549 77.5387 298.549 76.6151 297.993 76.0572C297.436 75.4992 296.515 75.4992 295.959 76.0572L285.193 86.8703C284.636 87.4282 284.636 88.3518 285.193 88.9097C285.481 89.1983 285.845 89.333 286.21 89.333Z" fill="white"/>
<path d="M167.729 208.123C168.094 208.123 168.459 207.989 168.746 207.7L179.512 196.906C180.069 196.348 180.069 195.425 179.512 194.867C178.956 194.309 178.035 194.309 177.478 194.867L166.712 205.661C166.156 206.219 166.156 207.142 166.712 207.7C167 207.989 167.365 208.123 167.729 208.123Z" fill="white"/>
<path d="M308.507 143.322H323.744C324.531 143.322 325.184 142.667 325.184 141.879C325.184 141.09 324.531 140.436 323.744 140.436H308.507C307.72 140.436 307.068 141.09 307.068 141.879C307.068 142.667 307.72 143.322 308.507 143.322Z" fill="white"/>
<path d="M140.956 143.322H156.174C156.961 143.322 157.613 142.667 157.613 141.879C157.613 141.09 156.961 140.436 156.174 140.436H140.956C140.169 140.436 139.517 141.09 139.517 141.879C139.517 142.667 140.169 143.322 140.956 143.322Z" fill="white"/>
<path d="M296.976 208.123C297.34 208.123 297.705 207.989 297.993 207.7C298.549 207.142 298.549 206.219 297.993 205.661L287.227 194.867C286.671 194.309 285.749 194.309 285.193 194.867C284.636 195.425 284.636 196.348 285.193 196.906L295.959 207.7C296.246 207.989 296.611 208.123 296.976 208.123Z" fill="white"/>
<path d="M178.495 89.333C178.86 89.333 179.224 89.1983 179.512 88.9097C180.069 88.3518 180.069 87.4282 179.512 86.8703L168.746 76.0572C168.19 75.4992 167.269 75.4992 166.712 76.0572C166.156 76.6151 166.156 77.5387 166.712 78.0966L177.478 88.9097C177.766 89.1983 178.131 89.333 178.495 89.333Z" fill="white"/>
<path d="M232.343 239.293C245.45 239.293 258.174 236.714 270.167 231.635C281.739 226.729 292.121 219.706 301.045 210.759C309.968 201.812 316.973 191.403 321.866 179.801C326.932 167.795 329.504 155.039 329.504 141.879C329.504 114.884 319.064 90.1027 300.277 72.998L292.543 81.5407C300.546 88.8328 306.437 96.8368 311.004 107.573C315.591 118.367 318.009 130.219 318.009 141.859C318.009 153.461 315.744 164.698 311.273 175.28C306.955 185.497 300.776 194.693 292.908 202.582C285.04 210.471 275.886 216.666 265.677 220.976C255.122 225.459 243.915 227.729 232.343 227.729C220.772 227.729 209.564 225.459 199.01 220.976C188.82 216.647 179.647 210.451 171.779 202.582C163.911 194.693 157.731 185.516 153.414 175.28C148.942 164.698 146.678 153.461 146.678 141.859C146.678 130.315 149.019 119.098 153.644 108.497C158.096 98.2991 164.467 89.1022 172.566 81.1944C180.645 73.3059 190.01 67.0912 200.411 62.7429C211.138 58.2599 220.733 56.3743 232.305 56.3743V44.8301C219.198 44.8301 208.106 47.0235 195.978 52.0837C184.233 56.99 173.659 63.9935 164.525 72.921C155.352 81.8871 148.136 92.2961 143.089 103.86C137.831 115.923 135.144 128.699 135.144 141.84C135.144 154.981 137.716 167.738 142.782 179.763C147.676 191.365 154.68 201.774 163.604 210.721C172.527 219.667 182.909 226.69 194.481 231.597C206.513 236.714 219.236 239.293 232.343 239.293Z" fill="#D0F0E4"/>
<path d="M232.342 240.736C245.64 240.736 258.556 238.119 270.722 232.963C282.448 227.98 293.002 220.861 302.06 211.779C311.118 202.698 318.218 192.135 323.189 180.36C328.332 168.161 330.941 155.232 330.941 141.879C330.941 128.237 328.351 115.212 323.265 103.167C318.141 91.0842 310.734 80.579 301.254 71.94C300.966 71.6899 300.602 71.5552 300.218 71.5745C299.834 71.5937 299.469 71.7669 299.22 72.0555L291.486 80.5982C290.949 81.1947 290.987 82.099 291.582 82.6377C299.757 90.0837 305.342 97.9723 309.679 108.17C314.188 118.771 316.568 130.431 316.568 141.898C316.568 153.308 314.342 164.352 309.947 174.761C305.687 184.823 299.623 193.847 291.889 201.601C284.136 209.374 275.136 215.454 265.119 219.687C254.737 224.093 243.721 226.325 232.342 226.325C220.962 226.325 209.946 224.093 199.565 219.687C189.547 215.435 180.528 209.336 172.794 201.601C165.06 193.847 158.977 184.804 154.736 174.761C150.341 164.352 148.115 153.308 148.115 141.898C148.115 130.566 150.418 119.522 154.966 109.112C159.342 99.069 165.617 90.0452 173.581 82.2721C181.545 74.499 190.756 68.3806 200.985 64.1092C211.482 59.7224 220.847 57.8561 232.322 57.8561C233.109 57.8561 233.762 57.2019 233.762 56.413V44.8688C233.762 44.08 233.109 43.4258 232.322 43.4258C219.024 43.4258 207.644 45.6962 195.439 50.7949C183.521 55.7781 172.794 62.8778 163.525 71.94C154.218 81.0407 146.887 91.6037 141.782 103.34C136.428 115.616 133.723 128.584 133.723 141.898C133.723 155.232 136.332 168.18 141.475 180.379C146.446 192.135 153.546 202.717 162.604 211.798C171.662 220.88 182.197 227.999 193.942 232.982C206.108 238.1 219.024 240.736 232.342 240.736ZM300.371 75.0377C309.045 83.2149 315.858 93.0468 320.617 104.283C325.568 115.962 328.063 128.603 328.063 141.86C328.063 154.828 325.53 167.392 320.54 179.224C315.723 190.653 308.815 200.908 300.026 209.72C291.237 218.533 280.989 225.459 269.609 230.288C257.788 235.291 245.257 237.831 232.342 237.831C219.427 237.831 206.876 235.272 195.036 230.25C183.637 225.421 173.408 218.494 164.619 209.682C155.83 200.87 148.921 190.596 144.105 179.186C139.115 167.334 136.582 154.77 136.582 141.821C136.582 128.911 139.211 116.328 144.412 104.418C149.382 93.0275 156.482 82.7724 165.54 73.941C174.54 65.1482 184.961 58.2409 196.532 53.4115C207.932 48.6592 218.582 46.4465 230.864 46.2734V54.9315C219.638 55.0855 210.273 57.048 199.852 61.3963C189.298 65.8024 179.779 72.1132 171.566 80.1365C163.333 88.1789 156.866 97.5105 152.337 107.9C147.636 118.675 145.256 130.104 145.256 141.84C145.256 153.635 147.559 165.064 152.107 175.819C156.482 186.209 162.777 195.56 170.779 203.583C178.781 211.587 188.089 217.878 198.471 222.284C209.198 226.844 220.597 229.153 232.361 229.153C244.124 229.153 255.523 226.844 266.251 222.284C276.594 217.917 285.921 211.625 293.942 203.583C301.926 195.579 308.22 186.228 312.615 175.819C317.163 165.064 319.466 153.635 319.466 141.84C319.466 130.008 317.009 117.944 312.346 106.996C308.028 96.8371 302.521 88.9101 294.595 81.4448L300.371 75.0377Z" fill="white"/>
<path d="M219.927 155.655C220.099 155.655 220.272 155.578 220.406 155.443L280.721 93.4122C280.971 93.1429 280.971 92.7196 280.702 92.4694C280.434 92.2193 280.011 92.2193 279.762 92.4887L219.447 154.52C219.197 154.789 219.197 155.212 219.466 155.462C219.581 155.597 219.754 155.655 219.927 155.655Z" fill="#0171E1"/>
<path d="M231.69 147.304C229.051 147.304 226.912 145.159 226.912 142.514C226.912 139.868 229.051 137.723 231.69 137.723C234.329 137.723 236.469 139.868 236.469 142.514C236.469 145.159 234.329 147.304 231.69 147.304Z" fill="#D0F0E4"/>
<path d="M231.689 148.747C235.124 148.747 237.906 145.957 237.906 142.513C237.906 139.069 235.124 136.279 231.689 136.279C228.253 136.279 225.471 139.069 225.471 142.513C225.471 145.957 228.253 148.747 231.689 148.747ZM231.689 139.165C233.531 139.165 235.028 140.666 235.028 142.513C235.028 144.36 233.531 145.861 231.689 145.861C229.846 145.861 228.349 144.36 228.349 142.513C228.349 140.666 229.846 139.165 231.689 139.165Z" fill="white"/>
<path d="M192.735 46.2923C192.946 46.2923 193.177 46.2346 193.369 46.1384C194.079 45.792 194.367 44.9262 194.021 44.1951L191.104 38.3268C190.701 37.4609 190.701 36.4604 191.085 35.5946C191.469 34.7288 192.217 34.0746 193.119 33.786L199.145 31.9582C200.066 31.6696 201.045 31.8043 201.851 32.3238C202.657 32.824 203.194 33.6706 203.328 34.6134L204.192 40.7703C204.307 41.5591 205.036 42.1171 205.823 42.0017C206.61 41.8862 207.166 41.1551 207.051 40.3662L206.188 34.1901C205.919 32.4007 204.902 30.8422 203.386 29.8802C201.87 28.9182 200.028 28.6681 198.32 29.2068L192.294 31.0346C190.586 31.5541 189.185 32.7855 188.456 34.421C187.727 36.0564 187.746 37.9419 188.513 39.5581L188.533 39.5774L191.45 45.4649C191.699 46.0037 192.198 46.2923 192.735 46.2923Z" fill="white"/>
<path d="M22.8519 553.219H24.0352V305.884H353V553.219H354.184V304.729H22.8519V553.219Z" fill="#66B0F0"/>
<path d="M19.3255 313.599H358.618C366.279 313.599 372.5 309.193 372.5 303.767V266.306C372.5 260.881 366.279 256.475 358.618 256.475H19.3255C11.6644 256.475 5.44302 260.881 5.44302 266.306V303.767C5.44302 309.193 11.6644 313.599 19.3255 313.599Z" fill="white"/>
<path d="M19.327 314.177H358.619C366.715 314.177 373.316 309.501 373.316 303.768V266.307C373.316 260.573 366.715 255.897 358.619 255.897H19.327C11.2312 255.897 4.62952 260.573 4.62952 266.307V303.768C4.62952 309.501 11.2312 314.177 19.327 314.177ZM358.619 257.052C365.818 257.052 371.686 261.208 371.686 266.307V303.768C371.686 308.866 365.818 313.022 358.619 313.022H19.327C12.1277 313.022 6.25955 308.866 6.25955 303.768V266.307C6.25955 261.208 12.1277 257.052 19.327 257.052H358.619Z" fill="#66B0F0"/>
<path d="M18.5047 306.899H359.434C367.095 306.899 373.316 302.489 373.316 297.057V259.559C373.316 254.127 367.095 249.717 359.434 249.717H18.5047C10.8434 249.717 4.62195 254.127 4.62195 259.559V297.057C4.62195 302.489 10.8434 306.899 18.5047 306.899Z" fill="#66B0F0"/>
<path d="M84.7324 255.8H170.609V295.341H84.7324V255.8Z" fill="white"/>
<path d="M26.891 260.072H115.454L115.378 249.721H168.727L184.252 204.121L200.87 234.809L153.95 274.945L176.384 305.421L231.805 269.807C241.842 263.247 247.887 252.068 247.887 240.062C247.887 234.059 246.371 228.133 243.454 222.88L217.585 175.972C206.723 156.289 186.075 144.091 163.66 144.091H80.5855C66.7685 144.091 53.8151 150.825 45.8511 162.138L5.57059 218.359C-6.96069 235.771 5.47466 260.072 26.891 260.072Z" fill="white"/>
<path d="M176.248 306.191L232.13 270.289C242.359 263.593 248.48 252.299 248.48 240.062C248.48 233.943 246.926 227.902 243.971 222.592L218.102 175.684C207.145 155.828 186.285 143.514 163.679 143.514H80.6036C66.6139 143.514 53.4685 150.344 45.3894 161.811L5.10896 218.012C2.0769 222.226 0.311401 227.132 0.0427399 232.173C-0.225922 236.906 0.791153 241.678 2.99803 245.988C5.18573 250.298 8.46729 253.915 12.4589 256.474C16.7191 259.206 21.7086 260.649 26.9092 260.649H116.029L115.952 250.298H169.129L169.263 249.913L184.366 205.564L200.14 234.694L153.162 274.868L176.248 306.191ZM163.659 144.668C185.862 144.668 206.339 156.77 217.085 176.261L242.954 223.169C245.813 228.306 247.31 234.155 247.31 240.062C247.31 251.914 241.399 262.843 231.497 269.327L176.536 304.652L154.736 275.041L201.599 234.944L184.135 202.697L168.323 249.143H114.801L114.878 259.495H26.89C21.9005 259.495 17.1221 258.109 13.0537 255.512C9.23486 253.068 6.08766 249.586 3.99593 245.468C1.90417 241.351 0.925476 236.791 1.17496 232.25C1.44362 227.44 3.13237 222.746 6.03011 218.705L46.3105 162.485C54.1594 151.325 66.9785 144.668 80.5845 144.668H163.659Z" fill="#0171E1"/>
<path d="M158.19 294.916C164.754 303.767 172.833 308.846 176.268 306.287C179.703 303.728 177.17 294.493 170.626 285.642C164.063 276.792 156.751 272.097 153.316 274.656C149.881 277.215 151.647 286.085 158.19 294.916Z" fill="#0171E1"/>
<path d="M129.903 182.11L157.633 143.591H104.322L129.903 182.11ZM155.368 144.745L129.941 180.071L106.471 144.745H155.368Z" fill="#0171E1"/>
<path d="M129.634 195.116C131.476 195.116 132.992 193.596 132.992 191.749C132.992 189.902 131.476 188.382 129.634 188.382C127.792 188.382 126.276 189.902 126.276 191.749C126.276 193.596 127.792 195.116 129.634 195.116ZM129.634 189.536C130.843 189.536 131.841 190.537 131.841 191.749C131.841 192.961 130.843 193.962 129.634 193.962C128.425 193.962 127.427 192.961 127.427 191.749C127.427 190.537 128.425 189.536 129.634 189.536Z" fill="#0171E1"/>
<path d="M129.634 212.817C131.476 212.817 132.992 211.297 132.992 209.45C132.992 207.603 131.476 206.083 129.634 206.083C127.792 206.083 126.276 207.603 126.276 209.45C126.276 211.297 127.792 212.817 129.634 212.817ZM129.634 207.237C130.843 207.237 131.841 208.238 131.841 209.45C131.841 210.662 130.843 211.663 129.634 211.663C128.425 211.663 127.427 210.662 127.427 209.45C127.427 208.238 128.425 207.237 129.634 207.237Z" fill="#0171E1"/>
<path d="M114.13 260.745H115.281V220.918H62.412L74.521 202.082L73.5615 201.466L60.301 222.072H114.13V260.745Z" fill="#0171E1"/>
<path d="M47.3657 220.918H61.3555V222.072H47.3657V220.918Z" fill="#0171E1"/>
<path d="M114.704 260.745C110.422 260.745 106.951 251.812 106.951 240.793C106.951 229.774 110.422 220.841 114.704 220.841C118.986 220.841 122.457 229.774 122.457 240.793C122.457 251.812 118.986 260.745 114.704 260.745Z" fill="#0171E1"/>
<path d="M107.027 260.611V259.456C103.132 259.456 99.8501 250.914 99.8501 240.793C99.8501 230.673 103.132 222.13 107.027 222.13V220.976C102.364 220.976 98.6986 229.672 98.6986 240.793C98.6986 251.914 102.364 260.611 107.027 260.611Z" fill="#0171E1"/>
<path d="M182.579 302.151C186.321 299.361 183.884 289.952 177.052 280.698C173.752 276.253 170.374 272.828 167.265 270.789C163.945 268.615 161.201 268.192 159.321 269.596L160.011 270.52C163.063 268.249 169.703 272.713 176.131 281.39C182.368 289.818 184.997 298.899 181.888 301.227L182.579 302.151Z" fill="#0171E1"/>
<path d="M156.308 128.218C156.174 109.247 143.604 104.052 122.955 105.707C100.694 107.496 109.81 138.204 97.4511 139.223C92.2698 139.647 86.3591 133.759 78.4911 128.91C72.0048 124.524 64.1943 121.965 55.7698 121.965C33.2979 121.965 15.0671 140.243 15.0671 162.774C15.0671 173.144 19.8839 183.168 26.2359 190.364C26.2359 190.364 50.243 156.559 59.5503 153.384C77.8578 147.15 83.6725 163.274 96.3765 165.775C98.0461 166.102 99.8308 166.198 101.788 165.967C119.865 163.89 116.411 134.009 116.411 134.009C121.094 132.085 122.111 127.217 122.283 124.274C122.188 122.85 122.245 121.907 122.245 121.907C122.245 121.907 122.36 122.869 122.283 124.274C122.667 129.815 126.045 143.071 144.87 138.319V144.765C144.87 183.803 144.237 191.384 152.124 201.197C153.295 202.659 161.125 214.453 147.097 220.822C129.019 229.018 141.781 250.587 141.781 250.587H180.027C180.027 250.587 202.729 246.546 204.706 225.882C207.527 196.348 170.585 188.44 165.769 187.536C175.134 186.093 184.287 176.838 184.287 165.621C184.287 155.674 176.669 147.266 168.839 144.495C168.82 144.495 168.82 144.495 168.801 144.476C168.57 144.399 168.34 144.322 168.11 144.245C161.988 142.129 157.479 137.472 156.481 131.835L156.308 128.218Z" fill="#FFCF2D"/>
<path d="M122.188 128.43C122.207 128.43 122.207 128.43 122.188 128.43C122.457 128.43 122.668 128.199 122.668 127.949L122.514 118.117C122.514 117.847 122.303 117.636 122.035 117.636C121.766 117.636 121.555 117.867 121.555 118.117L121.708 127.949C121.728 128.218 121.939 128.43 122.188 128.43Z" fill="#E57281"/>
<path d="M144.027 139.628C144.104 139.628 144.181 139.608 144.257 139.57C148.901 137.126 149.88 134.625 149.938 134.529C150.034 134.279 149.899 134.009 149.65 133.913C149.4 133.817 149.132 133.952 149.036 134.183C149.017 134.221 148.076 136.472 143.816 138.723C143.586 138.839 143.49 139.147 143.605 139.378C143.682 139.531 143.854 139.628 144.027 139.628Z" fill="#E57281"/>
<path d="M79.5672 122.908C76.3876 122.908 73.8101 120.323 73.8101 117.135C73.8101 113.948 76.3876 111.363 79.5672 111.363C82.7467 111.363 85.3242 113.948 85.3242 117.135C85.3242 120.323 82.7467 122.908 79.5672 122.908Z" fill="#FFCF2D"/>
<path d="M147.328 214.184C144.774 214.184 142.703 212.108 142.703 209.547C142.703 206.986 144.774 204.91 147.328 204.91C149.883 204.91 151.953 206.986 151.953 209.547C151.953 212.108 149.883 214.184 147.328 214.184Z" fill="#FFCF2D"/>
<path d="M118.197 279.331L118.216 282.833C118.216 283.141 118.292 283.449 118.408 283.718L126.813 302.497C128.06 305.209 130.766 306.941 133.741 306.941H151.722C156.213 306.941 160.569 305.421 164.1 302.651L164.733 302.15L175.441 293.704C174.252 291.126 172.62 288.374 170.605 285.661C166.767 280.466 162.373 276.58 158.727 274.752H132.916C130.862 279.35 137.54 283.045 137.54 283.045H125.873L121.651 278.446C120.557 277.253 118.58 277.773 118.197 279.331Z" fill="#E57281"/>
<path d="M131.766 301.708H146.907C147.176 301.708 147.387 301.496 147.387 301.227C147.387 300.957 147.176 300.746 146.907 300.746H131.766C128.983 300.746 126.431 299.11 125.28 296.59C125.164 296.34 124.877 296.244 124.646 296.359C124.397 296.474 124.301 296.763 124.416 296.994C125.721 299.861 128.619 301.708 131.766 301.708Z" fill="#9A3B82"/>
<path d="M129.117 295.763H144.259C144.527 295.763 144.738 295.551 144.738 295.282C144.738 295.012 144.527 294.801 144.259 294.801H129.117C126.335 294.801 123.783 293.165 122.631 290.645C122.516 290.394 122.228 290.298 121.998 290.414C121.748 290.529 121.652 290.818 121.768 291.049C123.073 293.915 125.97 295.763 129.117 295.763Z" fill="#9A3B82"/>
<path d="M126.258 289.143H141.399C141.668 289.143 141.879 288.932 141.879 288.662C141.879 288.393 141.668 288.181 141.399 288.181H126.258C123.475 288.181 120.923 286.546 119.772 284.025C119.656 283.775 119.369 283.679 119.138 283.795C118.889 283.91 118.793 284.199 118.908 284.429C120.213 287.296 123.111 289.143 126.258 289.143Z" fill="#9A3B82"/>
<path d="M158.382 294.531C160.089 297.321 162.603 300.226 164.734 302.15L164.753 302.131L175.461 293.684C174.271 291.106 172.64 288.355 170.625 285.642C166.787 280.447 162.392 276.56 158.746 274.732H153.2C152.701 279.1 153.43 286.45 158.382 294.531Z" fill="#9A3B82"/>
<path d="M139.977 235.175C139.977 235.175 130.65 210.22 127.042 210.72C123.454 211.201 135.083 233.328 135.083 233.328L139.977 235.175Z" fill="#0171E1"/>
<path d="M106.951 240.792C106.951 251.471 110.214 260.167 114.301 260.706C114.435 260.725 114.57 260.725 114.704 260.725H152.701C153.852 260.725 154.773 259.802 154.773 258.647V246.487C154.773 243.043 152.663 239.965 149.458 238.753L133.549 232.711C132.11 232.172 130.574 231.884 129.039 231.884H107.776C107.258 234.577 106.951 237.598 106.951 240.792Z" fill="#E57281"/>
<path d="M154.102 252.318C154.371 252.318 154.582 252.107 154.582 251.837C154.582 249.067 152.855 246.546 150.264 245.565L138.251 241.005C138.002 240.909 137.733 241.043 137.637 241.293C137.541 241.544 137.675 241.813 137.925 241.909L149.938 246.469C152.145 247.316 153.642 249.471 153.642 251.856C153.623 252.106 153.834 252.318 154.102 252.318Z" fill="#9A3B82"/>
<path d="M154.102 259.591C154.371 259.591 154.582 259.379 154.582 259.11C154.582 256.339 152.855 253.819 150.264 252.837L138.251 248.277C138.002 248.181 137.733 248.316 137.637 248.566C137.541 248.816 137.675 249.085 137.925 249.182L149.938 253.742C152.145 254.588 153.642 256.743 153.642 259.129C153.623 259.379 153.834 259.591 154.102 259.591Z" fill="#9A3B82"/>
<path d="M150.742 260.553C150.934 260.553 151.126 260.437 151.184 260.245C151.28 259.995 151.145 259.725 150.896 259.629L138.883 255.069C138.633 254.973 138.365 255.108 138.269 255.358C138.173 255.608 138.307 255.877 138.557 255.974L150.57 260.534C150.627 260.534 150.685 260.553 150.742 260.553Z" fill="#9A3B82"/>
<path d="M106.951 240.793C106.951 251.471 110.214 260.168 114.301 260.707C114.435 260.726 114.57 260.726 114.704 260.726C118.984 260.726 122.457 251.798 122.457 240.774C122.457 237.83 122.016 234.482 121.555 231.865H107.872C107.393 234.501 106.951 237.849 106.951 240.793Z" fill="#9A3B82"/>
<path d="M110.136 138.3C110.136 139.416 110.52 140.475 111.153 141.302C111.805 142.148 112.707 142.764 113.801 143.053L116.45 143.745V146.708C116.45 153.866 122.226 159.657 129.365 159.657H131.917C139.037 159.657 144.794 153.885 144.832 146.766V138.3C126.006 143.072 122.629 129.796 122.245 124.255C122.091 127.064 121.151 131.605 117.006 133.702L116.277 133.51C113.168 132.74 110.136 135.087 110.136 138.3Z" fill="#E57281"/>
<path d="M119.964 142.726C120.079 142.726 120.195 142.687 120.271 142.61C122.363 140.821 126.048 141.167 126.086 141.167C126.355 141.186 126.585 140.994 126.604 140.744C126.623 140.474 126.431 140.244 126.182 140.224C126.009 140.205 122.037 139.84 119.638 141.898C119.446 142.071 119.408 142.379 119.58 142.572C119.696 142.668 119.83 142.726 119.964 142.726Z" fill="#9A3B82"/>
<path d="M132.014 153.519C132.283 153.519 132.494 153.308 132.494 153.038C132.532 147.343 133.741 142.841 135.43 142.091C138.405 140.782 141.091 142.187 141.11 142.206C141.341 142.341 141.628 142.245 141.763 142.014C141.897 141.783 141.801 141.494 141.571 141.36C141.437 141.283 138.443 139.705 135.046 141.206C132.916 142.148 131.573 146.67 131.534 153.038C131.534 153.308 131.745 153.519 132.014 153.519Z" fill="#9A3B82"/>
<path d="M137.658 147.651C137.244 147.651 136.909 147.005 136.909 146.208C136.909 145.411 137.244 144.765 137.658 144.765C138.071 144.765 138.406 145.411 138.406 146.208C138.406 147.005 138.071 147.651 137.658 147.651Z" fill="#9A3B82"/>
<path d="M123.724 147.651C123.311 147.651 122.976 147.005 122.976 146.208C122.976 145.411 123.311 144.765 123.724 144.765C124.138 144.765 124.473 145.411 124.473 146.208C124.473 147.005 124.138 147.651 123.724 147.651Z" fill="#9A3B82"/>
<path d="M115.723 140.648C115.992 140.648 116.203 140.436 116.203 140.167C116.203 138.281 114.86 136.626 113.018 136.242C112.768 136.184 112.499 136.357 112.442 136.607C112.384 136.877 112.557 137.127 112.806 137.184C114.207 137.473 115.224 138.743 115.224 140.186C115.244 140.436 115.455 140.648 115.723 140.648Z" fill="#9A3B82"/>
<path d="M321.308 435.999C319.025 441.387 319.696 452.469 331.191 452.315C345.45 452.123 345.085 413.604 345.085 413.604C345.085 413.604 330.52 414.277 321.308 435.999Z" fill="#3FB1B5"/>
<path d="M454.104 422.973C457.674 430.554 452.876 436.653 448.846 434.556C441.803 430.881 438.771 421.434 438.771 421.434C438.771 421.434 450.899 416.201 454.104 422.973Z" fill="#3FB1B5"/>
<path d="M321.497 435.999C329.135 420.665 337.751 413.373 351.549 413.373C374.789 413.373 389.699 438.308 392.54 470.555C392.885 466.553 397.011 462.455 397.318 458.299C401.463 403.079 371.277 381.299 348.632 381.299C330.094 381.28 325.469 407.985 321.497 435.999Z" fill="white"/>
<path d="M391.964 470.612H393.115C393.269 468.765 394.305 466.88 395.399 464.86C396.55 462.762 397.74 460.569 397.893 458.337C400.427 424.532 390.064 405.657 380.929 395.767C372.082 386.205 360.3 380.702 348.632 380.702H348.613C339.977 380.702 333.587 386.32 329.077 397.903C325.085 408.139 322.955 421.723 320.94 435.903L320.441 439.424L322.034 436.249C325.987 428.303 329.979 422.954 334.585 419.375C339.325 415.72 344.871 413.93 351.568 413.93C362.43 413.93 372.006 419.548 379.24 430.169C386.13 440.347 390.524 454.316 391.964 470.612ZM348.613 381.876H348.632C359.993 381.876 371.449 387.225 380.085 396.556C389.066 406.273 399.256 424.84 396.742 458.241C396.589 460.223 395.475 462.301 394.382 464.302C393.825 465.321 393.249 466.38 392.808 467.438C391.1 452.257 386.744 439.212 380.181 429.553C372.716 418.586 362.833 412.795 351.568 412.795C344.602 412.795 338.826 414.661 333.875 418.471C329.729 421.665 326.103 426.244 322.552 432.728C324.414 419.837 326.506 407.658 330.152 398.346C332.243 392.978 334.661 389.033 337.54 386.32C340.687 383.338 344.314 381.876 348.613 381.876Z" fill="#3FB1B5"/>
<path d="M397.877 471.363C400.391 437.961 389.855 418.99 380.567 408.966C371.759 399.442 359.957 393.747 348.999 393.747C337.235 393.747 329.77 400.577 324.052 416.566L325.126 416.951C330.672 401.501 337.811 394.901 348.999 394.901C359.63 394.901 371.125 400.462 379.723 409.755C388.857 419.625 399.201 438.308 396.725 471.286L397.877 471.363Z" fill="#3FB1B5"/>
<path d="M484.25 357.997C490.448 364.154 501.656 389.398 487.781 394.4C473.906 399.422 457.652 349.993 457.652 349.993C457.652 349.993 469.416 343.24 484.25 357.997Z" fill="#FFCF2D"/>
<path d="M485.749 395.344C486.497 395.344 487.246 395.209 487.975 394.959C491.525 393.67 493.751 391.072 494.615 387.205C496.783 377.335 489.299 362.231 484.655 357.613C480.356 353.342 473.524 348.166 465.407 347.916C460.513 347.762 457.501 349.455 457.366 349.532L456.963 349.763L457.117 350.206C457.155 350.302 460.302 359.826 464.927 369.966C471.183 383.665 477.017 391.919 482.294 394.497C483.465 395.036 484.636 395.344 485.749 395.344ZM464.774 349.032C464.985 349.032 465.215 349.032 465.445 349.051C473.16 349.34 479.704 354.304 483.849 358.421C488.435 362.981 495.517 377.816 493.502 386.955C492.734 390.418 490.757 392.746 487.591 393.881C486.075 394.439 484.501 394.285 482.793 393.458C471.49 387.936 459.861 354.708 458.364 350.321C459.266 349.879 461.55 349.032 464.774 349.032Z" fill="#FFCF2D"/>
<path d="M369.86 472.69L374.811 499.607C377.306 513.114 389.05 522.926 402.752 522.926C416.454 522.926 428.199 513.114 430.693 499.607L435.645 472.69C435.645 471.343 435.337 470.054 434.8 468.899C430.828 472.901 417.913 475.826 402.618 475.826C387.534 475.826 374.792 472.978 370.609 469.092C370.129 470.189 369.86 471.42 369.86 472.69Z" fill="#D0F0E4"/>
<path d="M373.104 466.302C373.104 470.112 386.326 473.191 402.638 473.191C418.95 473.191 432.172 470.112 432.172 466.302C432.172 465.995 432.095 465.706 431.922 465.417C430.042 462.031 417.645 459.434 402.638 459.434C387.171 459.434 374.486 462.204 373.219 465.725C373.142 465.918 373.104 466.11 373.104 466.302Z" fill="#66B0F0"/>
<path d="M392.041 426.148C392.041 442.079 394.229 457.125 398.124 470.362H409.331C409.37 403.464 433.703 349.264 463.698 349.264C471.489 349.264 478.896 352.919 485.594 359.499C465.866 336.353 457.672 330.004 446.407 330.004C419.502 330.004 392.041 373.045 392.041 426.148Z" fill="white"/>
<path d="M397.702 470.94H409.907V470.362C409.946 403.906 434.068 349.841 463.698 349.841C471.163 349.841 478.397 353.227 485.191 359.903L486.035 359.114C465.924 335.526 457.787 329.407 446.407 329.407C433.032 329.407 419.272 339.778 408.641 357.845C403.344 366.849 399.161 377.181 396.205 388.552C393.058 400.616 391.484 413.257 391.484 426.129C391.484 441.579 393.595 456.933 397.587 470.497L397.702 470.94ZM408.756 469.785H398.547C394.67 456.413 392.617 441.348 392.617 426.148C392.617 413.372 394.19 400.828 397.318 388.86C400.254 377.604 404.4 367.369 409.639 358.441C414.686 349.86 420.654 342.799 426.91 338.008C433.358 333.082 439.921 330.562 446.407 330.562C456.444 330.562 463.966 335.622 480.432 354.381C475.058 350.591 469.455 348.667 463.698 348.667C456.213 348.667 448.959 351.918 442.166 358.345C435.641 364.502 429.788 373.295 424.76 384.473C414.513 407.292 408.833 437.557 408.756 469.785Z" fill="#FFCF2D"/>
<path d="M402.194 470.401L403.345 470.286C402.021 456.721 401.714 443.522 402.424 431.054C403.096 419.356 404.689 408.235 407.145 398.019C411.712 379.028 419.158 363.405 428.696 352.861C436.813 343.876 445.967 339.124 455.14 339.124C462.24 339.124 466.29 341.202 472.68 345.858L473.352 344.915C466.75 340.105 462.547 337.95 455.121 337.95C445.602 337.95 436.18 342.837 427.832 352.053C418.16 362.751 410.618 378.547 406.013 397.73C403.537 408.024 401.944 419.202 401.254 430.977C400.544 443.522 400.851 456.779 402.194 470.401Z" fill="#FFCF2D"/>
<path d="M402.693 470.343C402.693 470.343 401.042 407.523 435.182 407.312C444.221 407.254 452.684 421.627 452.684 421.627C452.684 421.627 412.71 411.16 410.734 470.343H402.693Z" fill="white"/>
<path d="M402.138 470.921H411.292L411.311 470.363C412.002 449.41 417.529 434.922 427.699 427.303C433.629 422.858 440.058 421.704 444.395 421.511C449.135 421.3 452.493 422.166 452.532 422.166L453.875 422.512L453.165 421.3C453.069 421.146 450.977 417.606 447.734 414.027C443.34 409.159 439.118 406.696 435.222 406.696C435.203 406.696 435.184 406.696 435.164 406.696C428.256 406.735 422.269 409.332 417.375 414.392C413.633 418.26 410.505 423.628 408.068 430.323C406.13 435.653 404.633 441.848 403.596 448.737C401.85 460.435 402.08 470.228 402.08 470.324L402.138 470.921ZM410.179 469.766H403.27C403.251 467.534 403.289 458.934 404.786 448.91C406.379 438.25 410.006 423.743 418.239 415.22C422.902 410.39 428.601 407.928 435.203 407.889C435.222 407.889 435.241 407.889 435.26 407.889C442.38 407.889 449.308 417.452 451.495 420.78C450.056 420.53 447.542 420.222 444.414 420.357C439.904 420.549 433.207 421.742 427.047 426.36C416.646 434.133 410.965 448.736 410.179 469.766Z" fill="#3FB1B5"/>
<path d="M406.3 470.555L407.451 470.517C407.355 466.669 407.375 456.567 409.85 445.735C412.364 434.768 416.567 426.379 422.343 420.819C428.369 415.008 436.103 412.372 445.314 412.988L445.391 411.834C435.834 411.199 427.812 413.95 421.556 419.991C415.626 425.725 411.309 434.287 408.737 445.485C406.223 456.452 406.204 466.669 406.3 470.555Z" fill="#3FB1B5"/>
<path d="M452.837 362.039C451.089 362.039 449.671 360.617 449.671 358.864C449.671 357.111 451.089 355.689 452.837 355.689C454.586 355.689 456.004 357.111 456.004 358.864C456.004 360.617 454.586 362.039 452.837 362.039Z" fill="white"/>
<path d="M452.836 362.616C454.909 362.616 456.578 360.942 456.578 358.864C456.578 356.786 454.909 355.112 452.836 355.112C450.763 355.112 449.094 356.786 449.094 358.864C449.094 360.942 450.763 362.616 452.836 362.616ZM452.836 356.267C454.256 356.267 455.427 357.44 455.427 358.864C455.427 360.288 454.256 361.462 452.836 361.462C451.416 361.462 450.245 360.288 450.245 358.864C450.245 357.44 451.416 356.267 452.836 356.267Z" fill="#FFCF2D"/>
<path d="M378.207 452.834C375.653 452.834 373.582 450.758 373.582 448.197C373.582 445.637 375.653 443.561 378.207 443.561C380.761 443.561 382.832 445.637 382.832 448.197C382.832 450.758 380.761 452.834 378.207 452.834Z" fill="white"/>
<path d="M378.206 453.412C381.065 453.412 383.406 451.064 383.406 448.198C383.406 445.331 381.065 442.983 378.206 442.983C375.346 442.983 373.005 445.331 373.005 448.198C373.005 451.064 375.346 453.412 378.206 453.412ZM378.206 444.138C380.432 444.138 382.255 445.966 382.255 448.198C382.255 450.429 380.432 452.257 378.206 452.257C375.98 452.257 374.156 450.429 374.156 448.198C374.156 445.966 375.98 444.138 378.206 444.138Z" fill="#FFCF2D"/>
<path d="M385.882 363.386C381.059 363.386 377.15 359.466 377.15 354.631C377.15 349.796 381.059 345.877 385.882 345.877C390.704 345.877 394.613 349.796 394.613 354.631C394.613 359.466 390.704 363.386 385.882 363.386Z" fill="#D0F0E4"/>
<path d="M363.505 553.539L371.239 514.923C371.546 513.384 372.736 512.653 373.753 512.48C374.77 512.307 376.133 512.595 376.939 513.942C379.529 518.271 383.367 521.811 388.031 524.178C392.406 526.41 397.453 527.603 402.596 527.622C407.758 527.641 412.805 526.487 417.219 524.293C421.921 521.946 425.797 518.425 428.426 514.115L428.618 513.788C429.424 512.461 430.806 512.191 431.804 512.364C432.802 512.538 433.991 513.288 434.298 514.808L442.051 553.539L443.184 553.308L435.431 514.577C435.085 512.826 433.78 511.556 432.015 511.229C430.249 510.921 428.58 511.672 427.639 513.192L427.448 513.538C424.934 517.656 421.211 521.023 416.72 523.274C412.479 525.39 407.586 526.506 402.615 526.487C397.645 526.468 392.79 525.313 388.568 523.158C384.097 520.869 380.431 517.482 377.937 513.346C377.015 511.806 375.346 511.037 373.561 511.345C371.796 511.653 370.471 512.942 370.126 514.712L362.392 553.327L363.505 553.539Z" fill="#66B0F0"/>
<path d="M402.192 527.064H403.344V553.597H402.192V527.064Z" fill="#66B0F0"/>
<path d="M202.941 552.846H460.168V554H202.941V552.846Z" fill="#66B0F0"/>
<path d="M246.7 291.54H334.575C336.935 291.54 339.045 290.107 339.921 287.922L363.968 228.388C365.112 225.54 363.02 222.424 359.963 222.424H272.088C269.728 222.424 267.618 223.857 266.742 226.042L242.695 285.576C241.533 288.423 243.624 291.54 246.7 291.54Z" fill="white"/>
<path fill-rule="evenodd" clip-rule="evenodd" d="M363.469 228.188C363.469 228.188 363.469 228.188 363.469 228.189L339.421 287.723C338.627 289.704 336.714 291.004 334.573 291.004H246.698C244.003 291.004 242.172 288.274 243.19 285.78L267.238 226.244L267.238 226.243C268.033 224.262 269.945 222.962 272.086 222.962H359.961C362.636 222.962 364.472 225.691 363.469 228.188ZM364.464 228.59C365.749 225.391 363.401 221.888 359.961 221.888H272.086C269.507 221.888 267.2 223.454 266.243 225.843L242.197 285.374C240.89 288.576 243.243 292.078 246.698 292.078H334.573C337.152 292.078 339.459 290.512 340.417 288.123L364.464 228.59Z" fill="#0171E1"/>
<path d="M250.773 291.971H334.608C336.843 291.971 338.863 290.609 339.703 288.532L362.642 231.738C363.733 229.016 361.748 226.061 358.816 226.061H274.981C272.747 226.061 270.726 227.422 269.886 229.499L246.947 286.293C245.857 289.015 247.859 291.971 250.773 291.971Z" fill="#0171E1"/>
<path d="M302.247 266.143C304.714 266.143 307.039 265.176 308.791 263.421C310.221 261.988 311.008 260.09 311.008 258.084C311.008 256.06 310.221 254.161 308.791 252.746C307.629 251.582 306.073 250.938 304.428 250.938C302.784 250.938 301.228 251.582 300.066 252.746C298.081 254.734 298.081 257.958 300.066 259.946C301.711 261.594 304.375 261.594 306.02 259.946C306.306 259.66 306.306 259.212 306.02 258.925C305.734 258.639 305.287 258.639 305 258.925C303.91 260.018 302.158 260.018 301.067 258.925C299.637 257.493 299.637 255.182 301.067 253.749C301.961 252.854 303.159 252.352 304.428 252.352C305.698 252.352 306.896 252.854 307.79 253.749C308.952 254.914 309.577 256.436 309.577 258.084C309.577 259.714 308.934 261.254 307.79 262.418C306.306 263.905 304.357 264.711 302.265 264.711C300.173 264.711 298.206 263.905 296.74 262.418C296.454 262.131 296.007 262.131 295.721 262.418C295.435 262.705 295.435 263.152 295.721 263.439C297.456 265.176 299.78 266.143 302.247 266.143Z" fill="white"/>
<path d="M215.247 297.846H334.464C335.841 297.846 336.949 296.736 336.949 295.357V294.157C336.949 292.777 335.841 291.667 334.464 291.667H215.247C213.87 291.667 212.762 292.777 212.762 294.157V295.357C212.78 296.736 213.888 297.846 215.247 297.846Z" fill="white"/>
<path fill-rule="evenodd" clip-rule="evenodd" d="M334.467 292.204C335.547 292.204 336.416 293.073 336.416 294.156V295.356C336.416 296.438 335.547 297.308 334.467 297.308H215.25C214.192 297.308 213.317 296.442 213.301 295.352V294.156C213.301 293.073 214.169 292.204 215.25 292.204H334.467ZM337.488 294.156C337.488 292.48 336.14 291.129 334.467 291.129H215.25C213.577 291.129 212.228 292.48 212.228 294.156V295.359L212.228 295.363C212.25 297.029 213.591 298.383 215.25 298.383H334.467C336.14 298.383 337.488 297.032 337.488 295.356V294.156Z" fill="#0171E1"/>
</svg>
