<svg width="435" height="481" viewBox="0 0 435 481" fill="none" xmlns="http://www.w3.org/2000/svg">
<path fill-rule="evenodd" clip-rule="evenodd" d="M49.4336 468.667H315.042V469.9H49.4336V468.667Z" fill="#3FB1B5"/>
<path fill-rule="evenodd" clip-rule="evenodd" d="M296.442 481H4.08203V480.046H296.442V481Z" fill="#66B0F0"/>
<path d="M295.153 4.9209V52.7702C295.153 62.1411 287.508 69.7535 278.097 69.7535H224.816C234.227 69.7535 241.872 62.1643 241.872 52.7702V4.9209H295.153Z" fill="white"/>
<path fill-rule="evenodd" clip-rule="evenodd" d="M241.291 4.34277H295.733V52.7706C295.733 62.4609 287.829 70.3323 278.097 70.3323H224.816V69.1754C233.907 69.1754 241.291 61.8446 241.291 52.7706V4.34277ZM231.126 69.1754H278.097C287.187 69.1754 294.572 61.822 294.572 52.7706V5.49967H242.453V52.7706C242.453 60.2659 237.746 66.6501 231.126 69.1754Z" fill="#66B0F0"/>
<path d="M270.545 0.293945H266.246V10.4978H270.545V0.293945Z" fill="#FFCF2D"/>
<path d="M279.654 23.1086C279.05 23.1086 278.446 22.8773 277.958 22.4376L276.169 20.8643C275.611 20.3784 274.867 20.3784 274.31 20.8643L272.614 22.3682C271.614 23.2475 270.22 23.2475 269.198 22.3682L267.641 21.0031C267.083 20.5172 266.34 20.5172 265.782 21.0031L264.341 22.2757C263.342 23.1549 261.948 23.1549 260.926 22.2757L259.741 21.2345C259.183 20.7486 258.439 20.7486 257.882 21.2345L256.604 22.3682C255.605 23.2475 254.21 23.2475 253.188 22.3682L252.003 21.327C251.445 20.8411 250.702 20.8411 250.144 21.327C249.912 21.5353 249.54 21.5121 249.331 21.2807C249.122 21.0494 249.145 20.6791 249.377 20.4709C250.376 19.5917 251.771 19.5917 252.793 20.4709L253.978 21.5121C254.536 21.998 255.279 21.998 255.837 21.5121L257.115 20.3784C258.114 19.4991 259.508 19.4991 260.531 20.3784L261.716 21.4196C262.273 21.9055 263.017 21.9055 263.575 21.4196L265.015 20.147C266.014 19.2677 267.409 19.2677 268.431 20.147L269.988 21.5121C270.546 21.998 271.289 21.998 271.847 21.5121L273.543 20.0081C274.542 19.1289 275.936 19.1289 276.959 20.0081L278.748 21.5815C279.306 22.0674 280.049 22.0674 280.607 21.5815L282.466 19.9387C283.465 19.0595 284.859 19.0595 285.881 19.9387C286.114 20.147 286.137 20.5172 285.928 20.7486C285.719 20.9799 285.347 21.0031 285.115 20.7948C284.557 20.3089 283.813 20.3089 283.256 20.7948L281.397 22.4376C280.839 22.8773 280.258 23.1086 279.654 23.1086Z" fill="#66B0F0"/>
<path d="M279.654 32.6174C279.05 32.6174 278.446 32.386 277.958 31.9464L276.169 30.373C275.611 29.8871 274.867 29.8871 274.31 30.373L272.614 31.877C271.614 32.7562 270.22 32.7562 269.198 31.877L267.641 30.5119C267.083 30.026 266.34 30.026 265.782 30.5119L264.341 31.7844C263.342 32.6637 261.948 32.6637 260.926 31.7844L259.741 30.7432C259.183 30.2573 258.439 30.2573 257.882 30.7432L256.604 31.877C255.605 32.7562 254.21 32.7562 253.188 31.877L252.003 30.8358C251.445 30.3499 250.702 30.3499 250.144 30.8358C249.912 31.044 249.54 31.0209 249.331 30.7895C249.122 30.5581 249.145 30.1879 249.377 29.9797C250.376 29.1004 251.771 29.1004 252.793 29.9797L253.978 31.0209C254.536 31.5068 255.279 31.5068 255.837 31.0209L257.115 29.8871C258.114 29.0079 259.508 29.0079 260.531 29.8871L261.716 30.9283C262.273 31.4142 263.017 31.4142 263.575 30.9283L265.015 29.6558C266.014 28.7765 267.409 28.7765 268.431 29.6558L269.988 31.0209C270.546 31.5068 271.289 31.5068 271.847 31.0209L273.543 29.5169C274.542 28.6377 275.936 28.6377 276.959 29.5169L278.748 31.0903C279.306 31.5762 280.049 31.5762 280.607 31.0903L282.466 29.4475C283.465 28.5683 284.859 28.5683 285.881 29.4475C286.114 29.6558 286.137 30.026 285.928 30.2573C285.719 30.4887 285.347 30.5119 285.115 30.3036C284.557 29.8177 283.813 29.8177 283.256 30.3036L281.397 31.9464C280.839 32.4091 280.258 32.6174 279.654 32.6174Z" fill="#66B0F0"/>
<path d="M279.654 42.1272C279.05 42.1272 278.446 41.8958 277.958 41.4562L276.169 39.8828C275.611 39.3969 274.867 39.3969 274.31 39.8828L272.614 41.3868C271.614 42.266 270.22 42.266 269.198 41.3868L267.641 40.0216C267.083 39.5357 266.34 39.5357 265.782 40.0216L264.341 41.2942C263.342 42.1734 261.948 42.1734 260.926 41.2942L259.741 40.253C259.183 39.7671 258.439 39.7671 257.882 40.253L256.604 41.3868C255.605 42.266 254.21 42.266 253.188 41.3868L252.003 40.3456C251.445 39.8597 250.702 39.8597 250.144 40.3456C249.912 40.5538 249.54 40.5307 249.331 40.2993C249.122 40.0679 249.145 39.6977 249.377 39.4895C250.376 38.6102 251.771 38.6102 252.793 39.4895L253.978 40.5307C254.536 41.0166 255.279 41.0166 255.837 40.5307L257.115 39.3969C258.114 38.5177 259.508 38.5177 260.531 39.3969L261.716 40.4381C262.273 40.924 263.017 40.924 263.575 40.4381L265.015 39.1655C266.014 38.2863 267.409 38.2863 268.431 39.1655L269.988 40.5307C270.546 41.0166 271.289 41.0166 271.847 40.5307L273.543 39.0267C274.542 38.1475 275.936 38.1475 276.959 39.0267L278.748 40.6001C279.306 41.086 280.049 41.086 280.607 40.6001L282.466 38.9573C283.465 38.078 284.859 38.078 285.881 38.9573C286.114 39.1655 286.137 39.5357 285.928 39.7671C285.719 39.9985 285.347 40.0216 285.115 39.8134C284.557 39.3275 283.813 39.3275 283.256 39.8134L281.397 41.4562C280.839 41.9189 280.258 42.1272 279.654 42.1272Z" fill="#66B0F0"/>
<path d="M279.654 51.6594C279.05 51.6594 278.446 51.428 277.958 50.9884L276.169 49.415C275.611 48.9291 274.867 48.9291 274.31 49.415L272.614 50.919C271.614 51.7982 270.22 51.7982 269.198 50.919L267.641 49.5539C267.083 49.068 266.34 49.068 265.782 49.5539L264.341 50.8264C263.342 51.7057 261.948 51.7057 260.926 50.8264L259.741 49.7852C259.183 49.2993 258.439 49.2993 257.882 49.7852L256.604 50.919C255.605 51.7982 254.21 51.7982 253.188 50.919L252.003 49.8778C251.445 49.3919 250.702 49.3919 250.144 49.8778C249.912 50.086 249.54 50.0629 249.331 49.8315C249.122 49.6001 249.145 49.2299 249.377 49.0217C250.376 48.1425 251.771 48.1425 252.793 49.0217L253.978 50.0629C254.536 50.5488 255.279 50.5488 255.837 50.0629L257.115 48.9291C258.114 48.0499 259.508 48.0499 260.531 48.9291L261.716 49.9703C262.273 50.4562 263.017 50.4562 263.575 49.9703L265.015 48.6978C266.014 47.8185 267.409 47.8185 268.431 48.6978L269.988 50.0629C270.546 50.5488 271.289 50.5488 271.847 50.0629L273.543 48.5589C274.542 47.6797 275.936 47.6797 276.959 48.5589L278.748 50.1323C279.306 50.6182 280.049 50.6182 280.607 50.1323L282.466 48.4895C283.465 47.6103 284.859 47.6103 285.881 48.4895C286.114 48.6978 286.137 49.068 285.928 49.2993C285.719 49.5307 285.347 49.5539 285.115 49.3456C284.557 48.8597 283.813 48.8597 283.256 49.3456L281.397 50.9884C280.839 51.428 280.258 51.6594 279.654 51.6594Z" fill="#66B0F0"/>
<path d="M350.013 4.91992H312.742V42.0333H350.013V4.91992Z" fill="#FFCF2D"/>
<path d="M320.933 3.33727L318.234 0.00488281L308.393 7.94256L311.092 11.2749L320.933 3.33727Z" fill="#87C3FF"/>
<path d="M351.946 11.2562L354.648 7.92676L344.799 -2.5395e-05L342.096 3.32937L351.946 11.2562Z" fill="#87C3FF"/>
<path d="M342.136 13.7139H319.527V15.1022H342.136V13.7139Z" fill="white"/>
<path d="M342.136 19.7061H319.527V21.0943H342.136V19.7061Z" fill="white"/>
<path d="M342.136 25.7217H319.527V27.1099H342.136V25.7217Z" fill="white"/>
<path d="M342.136 31.7148H319.527V33.1031H342.136V31.7148Z" fill="white"/>
<path d="M378.452 404.178C377.912 404.019 377.613 403.939 377.613 403.939L371.081 425.243L346.489 418.818C346.29 418.639 346.19 418.54 346.19 418.54C346.19 418.54 246.607 340.822 241.373 303.524C236.159 266.227 277.87 230.839 277.87 230.839C277.87 230.839 366.825 398.27 377.833 403.74C378.052 403.86 378.272 403.999 378.452 404.178Z" fill="#E57281"/>
<path d="M298.928 270.006C295.811 286.616 284.864 320.253 273.538 352.797C256.757 334.794 243.213 316.633 241.375 303.504C238.059 279.872 253.621 256.977 265.447 243.41C269.782 239.949 274.456 236.766 279.511 233.922C282.607 239.71 289.778 253.118 298.928 270.006Z" fill="#9A3B82"/>
<path d="M434.347 418.52L397.77 441.893L387.162 440.302L377.394 446.468L380.55 452.913L364.469 463.197C343.154 443.882 346.17 418.759 346.17 418.759L371.061 425.263L377.593 403.959C377.593 403.959 399.947 410.464 416.448 409.907C432.989 409.35 434.347 418.52 434.347 418.52Z" fill="white"/>
<path fill-rule="evenodd" clip-rule="evenodd" d="M377.195 403.222L377.763 403.387L377.595 403.96C377.763 403.387 377.763 403.387 377.763 403.387L377.778 403.391L377.826 403.405C377.868 403.417 377.931 403.435 378.014 403.459C378.18 403.506 378.427 403.575 378.747 403.663C379.387 403.839 380.321 404.09 381.494 404.389C383.841 404.989 387.141 405.782 390.954 406.558C398.592 408.112 408.25 409.587 416.429 409.311C424.814 409.029 429.458 411.212 432.009 413.568C433.279 414.741 434.01 415.938 434.424 416.851C434.631 417.307 434.758 417.693 434.835 417.969C434.873 418.107 434.899 418.217 434.916 418.297C434.924 418.336 434.93 418.368 434.934 418.391C434.936 418.402 434.938 418.412 434.939 418.419L434.94 418.428L434.941 418.431L434.941 418.433C434.941 418.433 434.941 418.434 434.348 418.521L434.941 418.434L434.998 418.815L397.905 442.517L387.296 440.926L378.169 446.687L381.324 453.129L364.407 463.948L364.067 463.64C353.298 453.881 348.673 442.65 346.743 433.863C345.778 429.471 345.485 425.687 345.434 422.998C345.409 421.653 345.444 420.582 345.486 419.843C345.506 419.474 345.529 419.188 345.546 418.993C345.555 418.896 345.562 418.821 345.568 418.77C345.571 418.744 345.573 418.725 345.574 418.711L345.576 418.695L345.577 418.691L345.577 418.689C345.577 418.689 345.577 418.689 346.172 418.759L345.577 418.689L345.658 418.008L370.658 424.541L377.195 403.222ZM346.707 419.516C346.699 419.633 346.69 419.765 346.682 419.91C346.642 420.621 346.608 421.663 346.633 422.976C346.682 425.601 346.968 429.305 347.913 433.608C349.783 442.119 354.231 452.964 364.535 462.448L379.779 452.699L376.622 446.251L387.032 439.679L397.637 441.27L433.668 418.246C433.605 418.025 433.5 417.713 433.331 417.342C432.974 416.553 432.331 415.493 431.194 414.443C428.931 412.353 424.625 410.229 416.469 410.504C408.147 410.785 398.378 409.286 390.714 407.727C386.877 406.947 383.557 406.149 381.197 405.546C380.016 405.244 379.075 404.991 378.428 404.814C378.265 404.769 378.121 404.729 377.996 404.694L371.468 425.987L346.707 419.516Z" fill="#87C3FF"/>
<path fill-rule="evenodd" clip-rule="evenodd" d="M393.298 406.022C393.248 405.579 393.173 404.954 393.072 404.21C392.866 402.699 392.551 400.689 392.113 398.706C391.677 396.735 391.111 394.747 390.391 393.304C390.032 392.586 389.612 391.953 389.11 391.531C388.589 391.093 387.948 390.861 387.232 391.049L387.23 391.05L387.229 391.05C386.514 391.242 386.051 391.779 385.777 392.426C385.506 393.063 385.391 393.858 385.38 394.713C385.357 396.429 385.753 398.556 386.4 400.568C387.046 402.579 387.963 404.536 389.025 405.893C389.554 406.57 390.148 407.133 390.795 407.462C391.46 407.801 392.194 407.894 392.926 407.595C394.163 407.09 395.327 405.933 396.358 404.588C397.403 403.225 398.369 401.592 399.19 400.032C400.012 398.468 400.696 396.963 401.174 395.85C401.414 395.293 401.602 394.833 401.73 394.512C401.795 394.351 401.844 394.225 401.878 394.139C401.894 394.096 401.907 394.063 401.916 394.04L401.926 394.014L401.929 394.005L401.929 394.005C401.929 394.005 401.929 394.005 401.368 393.795C400.807 393.584 400.808 393.584 400.808 393.584L400.807 393.585L400.807 393.586L400.805 393.592L400.796 393.615C400.788 393.636 400.776 393.667 400.76 393.709C400.728 393.791 400.68 393.914 400.617 394.07C400.492 394.384 400.307 394.834 400.072 395.381C399.602 396.475 398.932 397.95 398.128 399.478C397.323 401.008 396.393 402.576 395.406 403.864C394.696 404.79 393.984 405.533 393.298 406.022ZM392.153 406.574C391.898 406.603 391.631 406.547 391.34 406.399C390.909 406.18 390.443 405.764 389.97 405.159C389.027 403.953 388.163 402.14 387.541 400.204C386.92 398.271 386.558 396.276 386.578 394.728C386.588 393.951 386.694 393.328 386.88 392.891C387.062 392.463 387.291 392.27 387.539 392.203C387.787 392.138 388.036 392.19 388.337 392.443C388.657 392.712 388.989 393.178 389.317 393.835C389.97 395.143 390.511 397.014 390.942 398.963C391.371 400.902 391.681 402.877 391.884 404.37C391.986 405.116 392.06 405.74 392.109 406.177C392.127 406.334 392.142 406.468 392.153 406.574Z" fill="#87C3FF"/>
<path fill-rule="evenodd" clip-rule="evenodd" d="M433.146 415.843L398.336 437.485L386.783 435.634L374.658 442.85L349.977 442.47L349.995 441.276L374.336 441.652L386.543 434.387L398.083 436.236L432.511 414.831L433.146 415.843Z" fill="#87C3FF"/>
<path fill-rule="evenodd" clip-rule="evenodd" d="M384.84 416.327L387.117 405.765L388.289 406.015L386.012 416.578L384.84 416.327Z" fill="#87C3FF"/>
<path fill-rule="evenodd" clip-rule="evenodd" d="M389.793 417.521L392.07 406.958L393.242 407.209L390.965 417.771L389.793 417.521Z" fill="#87C3FF"/>
<path fill-rule="evenodd" clip-rule="evenodd" d="M394.969 418.376L397.246 407.813L398.418 408.064L396.141 418.627L394.969 418.376Z" fill="#87C3FF"/>
<path d="M269.422 222.704C269.422 222.704 284.065 229.507 284.065 254.452C284.065 278.561 228.171 426.199 228.171 426.199L210.971 440.721L193.512 421.684C202.042 413.608 177.55 267.6 269.422 222.704Z" fill="#E57281"/>
<path d="M267.865 469.007L224.396 469.047L216.325 462.005L204.759 461.945L203.92 469.067L186.88 469.087C177.611 440.363 193.592 421.664 193.592 421.664L210.931 440.681L228.251 426.18C228.251 426.18 243.273 443.724 257.457 452.119C271.68 460.533 267.865 469.007 267.865 469.007Z" fill="white"/>
<path fill-rule="evenodd" clip-rule="evenodd" d="M193.579 420.761L210.989 439.855L228.323 425.342L228.709 425.793L228.253 426.18C228.709 425.793 228.709 425.793 228.709 425.793L228.719 425.805L228.751 425.842C228.779 425.875 228.822 425.924 228.878 425.988C228.99 426.118 229.158 426.309 229.376 426.556C229.812 427.05 230.452 427.765 231.264 428.65C232.889 430.42 235.202 432.868 237.958 435.577C243.476 441.003 250.737 447.447 257.765 451.606C264.975 455.872 267.703 460.209 268.576 463.569C269.011 465.241 268.978 466.645 268.833 467.638C268.76 468.134 268.66 468.528 268.575 468.802C268.533 468.939 268.494 469.047 268.466 469.122C268.458 469.142 268.451 469.159 268.445 469.174C268.44 469.189 268.435 469.201 268.43 469.211C268.426 469.222 268.422 469.231 268.419 469.238L268.415 469.246L268.413 469.25C268.413 469.251 268.413 469.252 267.866 469.007L268.413 469.252L268.254 469.604L224.172 469.644L216.1 462.601L205.293 462.545L204.454 469.663L186.445 469.684L186.311 469.269C181.631 454.767 183.323 442.778 186.194 434.411C187.629 430.231 189.358 426.956 190.73 424.723C191.416 423.607 192.014 422.75 192.442 422.171C192.656 421.881 192.828 421.66 192.947 421.51C193.006 421.436 193.053 421.379 193.085 421.34C193.101 421.32 193.114 421.305 193.122 421.295L193.133 421.283L193.136 421.279L193.136 421.278C193.137 421.278 193.137 421.278 193.593 421.664L193.137 421.278L193.579 420.761ZM193.625 422.587C193.559 422.674 193.487 422.77 193.408 422.877C192.998 423.433 192.419 424.261 191.752 425.346C190.418 427.517 188.73 430.713 187.329 434.797C184.554 442.881 182.895 454.455 187.32 468.49L203.388 468.471L204.228 461.346L216.553 461.41L224.622 468.45L267.442 468.411C267.508 468.19 267.588 467.87 267.647 467.466C267.773 466.607 267.805 465.366 267.416 463.868C266.641 460.887 264.165 456.781 257.152 452.632C249.997 448.397 242.654 441.871 237.116 436.426C234.343 433.7 232.014 431.237 230.379 429.455C229.561 428.564 228.917 427.843 228.476 427.344C228.367 427.221 228.27 427.111 228.186 427.015L210.877 441.508L193.625 422.587Z" fill="#87C3FF"/>
<path fill-rule="evenodd" clip-rule="evenodd" d="M248.268 420.056C249.158 419.934 250.017 420.153 250.76 420.796C251.498 421.434 251.838 422.23 251.835 423.104C251.833 423.949 251.513 424.825 251.029 425.679C250.063 427.385 248.324 429.202 246.484 430.844C244.633 432.495 242.634 434.01 241.101 435.11C240.393 435.618 239.783 436.039 239.33 436.345C239.529 436.364 239.771 436.373 240.059 436.368C240.779 436.357 241.686 436.265 242.723 436.111C244.795 435.802 247.323 435.255 249.783 434.658C252.24 434.062 254.615 433.421 256.378 432.928C257.259 432.682 257.986 432.473 258.492 432.326C258.745 432.252 258.944 432.194 259.078 432.154C259.146 432.134 259.197 432.119 259.232 432.108L259.283 432.093C259.283 432.093 259.283 432.093 259.456 432.664C259.629 433.236 259.628 433.236 259.628 433.236L259.575 433.252C259.555 433.258 259.53 433.265 259.5 433.274C259.476 433.281 259.449 433.289 259.419 433.298C259.283 433.338 259.083 433.397 258.828 433.471C258.318 433.62 257.587 433.83 256.702 434.077C254.931 434.572 252.541 435.218 250.067 435.818C247.595 436.417 245.025 436.975 242.9 437.291C241.839 437.449 240.873 437.549 240.078 437.562C239.318 437.573 238.596 437.51 238.112 437.246C237.453 436.885 237.331 436.103 237.354 435.447C237.379 434.736 237.582 433.859 237.898 432.913C238.535 431.01 239.683 428.683 241.063 426.543C242.438 424.411 244.078 422.412 245.72 421.209C246.542 420.607 247.405 420.174 248.268 420.056ZM238.555 435.427C239.007 435.122 239.648 434.682 240.401 434.142C241.915 433.055 243.877 431.568 245.684 429.955C247.503 428.332 249.119 426.622 249.986 425.092C250.419 424.328 250.635 423.659 250.637 423.101C250.638 422.573 250.449 422.108 249.974 421.697C249.503 421.29 248.995 421.161 248.431 421.238C247.842 421.319 247.166 421.631 246.431 422.17C244.959 423.248 243.413 425.108 242.071 427.188C240.734 429.261 239.635 431.499 239.036 433.29C238.746 434.156 238.584 434.886 238.555 435.427Z" fill="#87C3FF"/>
<path fill-rule="evenodd" clip-rule="evenodd" d="M184.266 444.189L184.905 443.18L205.155 455.898H219.363L228.332 463.397H268.207V464.591H227.896L218.926 457.092H204.808L184.266 444.189Z" fill="#87C3FF"/>
<path fill-rule="evenodd" clip-rule="evenodd" d="M226.27 439.483L233.94 431.845L234.788 432.689L227.117 440.327L226.27 439.483Z" fill="#87C3FF"/>
<path fill-rule="evenodd" clip-rule="evenodd" d="M229.785 443.163L237.456 435.524L238.304 436.368L230.633 444.007L229.785 443.163Z" fill="#87C3FF"/>
<path fill-rule="evenodd" clip-rule="evenodd" d="M233.66 446.664L241.331 439.025L242.179 439.869L234.508 447.508L233.66 446.664Z" fill="#87C3FF"/>
<path d="M269.426 222.703C234.887 239.572 216.788 270.762 207.219 303.524H102.402C75.574 303.524 55.5775 278.878 61.2309 252.76L68.9219 217.193H251.168C257.92 217.193 264.192 219.222 269.426 222.703Z" fill="#87C3FF"/>
<path d="M191.598 256.798L229.333 256.719L223.74 265.849L191.598 256.798Z" fill="#E57281"/>
<path fill-rule="evenodd" clip-rule="evenodd" d="M108.676 216.609C109 216.677 109.208 216.993 109.14 217.315L107.682 224.277C107.682 224.277 107.682 224.277 107.682 224.277C104.244 240.716 116.825 256.142 133.684 256.142H229.005C239.061 242.273 252.185 230.361 269.36 221.969C269.657 221.824 270.016 221.946 270.162 222.242C270.308 222.538 270.185 222.895 269.888 223.04C252.806 231.387 239.775 243.254 229.798 257.087L229.619 257.336H133.684C116.064 257.336 102.915 241.213 106.509 224.034L107.967 217.072C108.035 216.749 108.352 216.542 108.676 216.609Z" fill="white"/>
<path fill-rule="evenodd" clip-rule="evenodd" d="M191.023 256.614C191.115 256.297 191.447 256.114 191.765 256.205L224.254 265.489L223.857 266.154C216.877 277.857 211.741 290.639 207.936 303.671C207.844 303.988 207.511 304.17 207.194 304.078C206.876 303.986 206.693 303.655 206.785 303.338C210.54 290.478 215.59 277.837 222.433 266.21L191.434 257.352C191.116 257.261 190.932 256.931 191.023 256.614Z" fill="white"/>
<path d="M44.4293 121.653L63.6267 196.646H27.8088C6.95327 196.646 -6.47096 174.586 3.19769 156.186L30.7054 103.81C38.4962 88.9908 53.8981 79.7012 70.6984 79.7012H77.1908C55.1367 79.6813 38.9757 100.369 44.4293 121.653Z" fill="#3FB1B5"/>
<path d="M265.489 102.198C276.776 102.198 286.165 100.706 288.442 98.6176L253.424 174.207C247.091 187.893 233.327 196.645 218.205 196.645C213.77 196.645 209.415 195.89 205.3 194.437C201.185 192.985 197.31 190.857 193.854 188.072L171.78 170.328C171.78 170.328 169.582 183.198 153.901 186.481V217.154H68.9005L44.4292 121.633C38.9757 100.348 55.1367 79.6406 77.1907 79.6406H136.701C141.955 79.6406 147.129 80.2971 152.123 81.5701C165.787 85.0314 178.052 93.028 186.722 104.486L215.808 142.917L241.937 97.444C241.937 97.4838 241.917 97.5434 241.917 97.5832C241.937 100.229 252.505 102.198 265.489 102.198Z" fill="#3FB1B5"/>
<path fill-rule="evenodd" clip-rule="evenodd" d="M44.0843 121.073C44.4056 120.994 44.7305 121.189 44.8101 121.509L63.608 197.099C63.6875 197.419 63.4916 197.742 63.1703 197.821C62.849 197.901 62.5241 197.706 62.4445 197.386L43.6466 121.796C43.5671 121.476 43.763 121.153 44.0843 121.073Z" fill="white"/>
<path fill-rule="evenodd" clip-rule="evenodd" d="M154.869 153.204C155.11 152.978 155.489 152.99 155.716 153.23L172.416 170.934C172.643 171.174 172.631 171.552 172.39 171.778C172.148 172.003 171.769 171.991 171.543 171.751L154.842 154.047C154.616 153.807 154.627 153.429 154.869 153.204Z" fill="white"/>
<path d="M288.962 97.5032L288.443 98.6172C286.165 100.726 276.776 102.198 265.49 102.198C252.505 102.198 241.938 100.228 241.938 97.6226C241.938 97.5828 241.937 97.5231 241.957 97.4833C242.317 94.9371 252.745 92.749 265.51 92.749C278.255 92.749 288.603 94.9371 288.962 97.5032C288.962 97.4833 288.962 97.4833 288.962 97.5032Z" fill="#87C3FF"/>
<path d="M299.431 59.3108C299.431 60.4447 299.152 61.5586 298.632 62.5333C298.113 63.5081 297.354 64.3634 296.415 65.0198L295.955 65.3381L292.38 84.335C291.8 87.4182 289.962 90.1434 287.306 91.8343L282.411 94.9374L278.536 97.404L276.738 101.681C273.402 102.019 269.586 102.218 265.511 102.218C261.396 102.218 257.521 102.019 254.145 101.661V72.2009C254.145 70.9278 254.424 69.6746 254.964 68.5208L261.476 54.5566C261.476 54.5566 268.588 56.3071 265.311 65C262.335 72.8971 269.127 70.8681 272.942 69.4557C276.358 68.1827 291.281 60.6237 297.114 57.8587C298.193 57.3415 299.431 58.1372 299.431 59.3108Z" fill="#E57281"/>
<path fill-rule="evenodd" clip-rule="evenodd" d="M293.291 76.6258C293.562 76.6763 293.74 76.9361 293.69 77.206C293.085 80.4249 291.166 83.2485 288.394 85.013L279.624 90.5831C279.391 90.7307 279.082 90.6628 278.934 90.4312C278.786 90.1996 278.854 89.8922 279.086 89.7445L287.856 84.175C290.397 82.5578 292.154 79.9708 292.708 77.0231C292.759 76.7532 293.019 76.5752 293.291 76.6258Z" fill="#9A3B82"/>
<path fill-rule="evenodd" clip-rule="evenodd" d="M294.728 68.5691C294.999 68.6196 295.178 68.8794 295.127 69.1494C294.522 72.3682 292.604 75.1919 289.831 76.9564L281.061 82.5264C280.828 82.6741 280.52 82.6061 280.371 82.3745C280.223 82.143 280.291 81.8355 280.524 81.6878L289.293 76.1183C289.293 76.1183 289.293 76.1182 289.293 76.1181C289.293 76.1181 289.293 76.1181 289.293 76.1181C291.834 74.501 293.591 71.914 294.145 68.9665C294.196 68.6965 294.457 68.5186 294.728 68.5691Z" fill="#9A3B82"/>
<path fill-rule="evenodd" clip-rule="evenodd" d="M295.736 65.2905C295.883 65.5224 295.814 65.8297 295.581 65.9768L281.478 74.8885C281.245 75.0357 280.937 74.967 280.789 74.7351C280.641 74.5032 280.71 74.1959 280.943 74.0487L295.046 65.137C295.279 64.9899 295.588 65.0586 295.736 65.2905Z" fill="#9A3B82"/>
<path d="M283.171 94.4399L282.392 94.9372L278.516 97.4038L276.718 101.681C273.382 102.019 269.567 102.218 265.492 102.218C261.376 102.218 257.501 102.019 254.125 101.661V93.3856C257.501 92.9878 261.376 92.769 265.492 92.769C272.543 92.7491 278.856 93.4055 283.171 94.4399Z" fill="#9A3B82"/>
<path d="M150.266 81.1132C147.37 84.9922 136.583 94.1226 100.265 94.1226C53.5401 94.1226 83.445 79.7208 83.445 79.7208L103.262 46.7598L124.517 59.7492V70.1925C124.517 75.4639 128.812 79.7208 134.085 79.7208H135.464C140.418 79.7009 145.532 79.9197 150.266 81.1132Z" fill="#E57281"/>
<path d="M124.498 59.7287V62.3943L83.4258 79.7003L103.243 46.7393L124.498 59.7287Z" fill="#9A3B82"/>
<path d="M125.613 61.0209H130.128C134.283 61.0209 137.659 57.6591 137.659 53.5216V28.4775H110.711V46.1814C110.711 54.3769 117.383 61.0209 125.613 61.0209Z" fill="#E57281"/>
<path fill-rule="evenodd" clip-rule="evenodd" d="M133.457 49.8301L133.457 49.8297L133.457 49.829L133.456 49.8283C133.456 49.828 133.456 49.8281 133.456 49.8284C133.456 49.8284 133.456 49.8284 133.456 49.8284M133.456 49.8284C133.456 49.8285 133.456 49.8286 133.457 49.8288C133.457 49.83 133.459 49.8331 133.462 49.8378C133.468 49.8471 133.478 49.8631 133.493 49.8848C133.523 49.9282 133.571 49.9941 133.638 50.0751C133.772 50.2373 133.98 50.4581 134.271 50.6799C134.847 51.12 135.757 51.5719 137.081 51.5719C137.357 51.5719 137.58 51.7946 137.58 52.0692C137.58 52.3439 137.357 52.5665 137.081 52.5665C135.508 52.5665 134.39 52.0238 133.663 51.4694C133.302 51.1939 133.04 50.9173 132.866 50.7065C132.779 50.601 132.714 50.5115 132.669 50.4461C132.646 50.4134 132.629 50.3867 132.616 50.3669C132.61 50.357 132.605 50.3489 132.601 50.3426L132.596 50.3346L132.595 50.3317L132.594 50.3305L132.594 50.33C132.594 50.3297 132.593 50.3295 133.025 50.08" fill="#73325A"/>
<path d="M134.463 44.0534C134.992 44.0534 135.422 43.2251 135.422 42.2034C135.422 41.1818 134.992 40.3535 134.463 40.3535C133.933 40.3535 133.504 41.1818 133.504 42.2034C133.504 43.2251 133.933 44.0534 134.463 44.0534Z" fill="#73325A"/>
<path d="M115.847 31.0839C115.847 31.0839 138.081 44.4513 145.313 32.8145C151.665 22.6099 123.518 17.3584 113.69 17.3186C103.002 17.2788 88.839 21.9932 89.0787 37.6482C89.2785 50.5383 89.8178 69.3959 82.1468 66.1137C54.8589 54.457 30.6074 66.6309 30.5275 89.825C30.4476 113.019 57.4758 115.187 58.155 109.2C58.8542 103.232 41.3748 104.605 43.732 120.101C46.0692 135.597 56.497 154.971 80.309 154.971C109.075 154.991 127.394 117.276 109.595 113.437C95.9506 110.493 123.498 136.71 131.669 109.458C140.458 80.1177 108.696 70.5099 107.917 52.7861C107.137 35.0623 115.847 31.0839 115.847 31.0839Z" fill="#FFCF2D"/>
<path fill-rule="evenodd" clip-rule="evenodd" d="M97.0142 21.1809C101.968 17.981 108.287 16.8014 113.691 16.8215C118.659 16.8416 128.208 18.1732 135.733 20.7854C139.486 22.0883 142.807 23.7331 144.79 25.7458C145.787 26.7586 146.471 27.8902 146.673 29.1417C146.877 30.4012 146.582 31.719 145.737 33.0764C143.832 36.141 140.935 37.5497 137.719 37.9471C134.521 38.3423 130.988 37.7428 127.727 36.7904C124.459 35.8362 121.427 34.5163 119.214 33.4376C118.107 32.8977 117.203 32.4171 116.574 32.0709C116.26 31.8978 116.015 31.7582 115.848 31.6616C115.843 31.6591 115.839 31.6567 115.835 31.6544C115.804 31.6722 115.77 31.6922 115.734 31.7145C115.515 31.8471 115.196 32.0589 114.813 32.3688C114.046 32.9883 113.018 34.0009 112.009 35.5584C109.993 38.6685 108.029 43.9885 108.415 52.7646C108.603 57.045 110.662 60.8695 113.589 64.691C115.051 66.6 116.719 68.4952 118.464 70.4389C118.761 70.7698 119.06 71.1021 119.36 71.4361C120.822 73.0598 122.319 74.7227 123.764 76.4476C127.249 80.6082 130.466 85.1707 132.249 90.5623C134.036 95.9657 134.372 102.172 132.147 109.601C130.076 116.507 126.743 120.129 123.041 121.624C121.085 122.414 119.059 122.595 117.115 122.379C117.198 126.426 115.644 131.242 112.842 135.907C106.829 145.917 94.9148 155.479 80.3081 155.469C68.2476 155.469 59.5528 150.555 53.5888 143.672C47.6369 136.803 44.4164 127.991 43.2375 120.175C42.6652 116.412 43.2303 113.421 44.4518 111.138C44.2586 111.068 44.0653 110.994 43.8722 110.918C36.8857 108.164 29.9867 101.662 30.0275 89.8235C30.0681 78.0323 36.2645 69.0179 45.9193 64.4513C55.5588 59.8921 68.5964 59.7847 82.3431 65.6569L82.3434 65.657C83.2226 66.0332 83.9273 66.0696 84.5039 65.8878C85.0845 65.7047 85.6093 65.2772 86.0801 64.5848C87.0356 63.1793 87.6706 60.8273 88.0687 57.8795C88.8145 52.359 88.6972 45.0495 88.5973 38.8233C88.591 38.4297 88.5847 38.0404 88.5788 37.6561C88.4561 29.6475 92.0317 24.3991 97.0142 21.1809ZM45.41 111.465C44.2522 113.549 43.6677 116.362 44.2252 120.026L44.2253 120.027C45.3836 127.707 48.5456 136.33 54.345 143.022C60.1321 149.701 68.5571 154.474 80.3084 154.474H80.3088C94.4682 154.484 106.097 145.198 111.985 135.396C114.771 130.757 116.237 126.058 116.111 122.232C114.751 121.984 113.445 121.554 112.246 121.017C110.653 120.303 109.234 119.394 108.107 118.451C106.987 117.514 106.127 116.519 105.689 115.624C105.47 115.176 105.338 114.716 105.366 114.28C105.395 113.822 105.602 113.417 106 113.134C106.377 112.866 106.885 112.736 107.482 112.71C108.085 112.684 108.822 112.762 109.7 112.951C112.02 113.452 113.786 114.514 115.013 116.01C116.21 117.471 116.867 119.312 117.058 121.371C118.915 121.601 120.833 121.442 122.666 120.702C126 119.356 129.175 116.036 131.189 109.316C133.359 102.075 133.021 96.0775 131.3 90.8734C129.575 85.6577 126.451 81.2091 122.997 77.0847C121.564 75.3745 120.081 73.7272 118.62 72.1036C118.318 71.7687 118.018 71.4348 117.719 71.1016C115.974 69.157 114.283 67.2367 112.795 65.2941C109.822 61.4124 107.618 57.3895 107.417 52.8081C107.024 43.8603 109.025 38.3292 111.169 35.0192C112.24 33.3666 113.341 32.2769 114.183 31.5965C114.604 31.2565 114.96 31.0191 115.214 30.8649C115.342 30.7877 115.444 30.7314 115.516 30.6934C115.552 30.6744 115.58 30.66 115.601 30.6499C115.611 30.6449 115.62 30.6409 115.626 30.6379L115.634 30.6342L115.638 30.6325C115.638 30.6323 115.638 30.6321 115.847 31.0841L115.638 30.6321L115.879 30.5224L116.105 30.6584L116.098 30.6695C116.105 30.6584 116.105 30.6584 116.105 30.6584L116.105 30.6587L116.108 30.6603L116.119 30.667C116.129 30.673 116.145 30.6821 116.165 30.6942C116.206 30.7184 116.268 30.7545 116.349 30.8012C116.511 30.8947 116.75 31.031 117.058 31.2006C117.674 31.54 118.563 32.0128 119.653 32.5443C121.836 33.6083 124.813 34.903 128.008 35.836C131.209 36.7709 134.591 37.3314 137.596 36.9601C140.582 36.591 143.176 35.3068 144.887 32.553L144.888 32.5527C145.631 31.3591 145.846 30.2806 145.687 29.2996C145.527 28.3106 144.978 27.3575 144.076 26.4422C142.261 24.5989 139.122 23.0151 135.404 21.7246C127.987 19.1499 118.548 17.8358 113.687 17.8161M116.037 121.205C115.831 119.408 115.237 117.857 114.239 116.639C113.173 115.339 111.617 114.382 109.488 113.923C108.661 113.745 108.014 113.682 107.525 113.703C107.031 113.725 106.74 113.83 106.58 113.943C106.441 114.042 106.374 114.166 106.363 114.344C106.35 114.544 106.41 114.826 106.587 115.188C106.94 115.91 107.686 116.8 108.749 117.689C109.806 118.573 111.147 119.434 112.656 120.11C113.72 120.587 114.86 120.969 116.037 121.205ZM45.41 111.465C48.3735 112.407 51.275 112.699 53.5923 112.455C54.9487 112.312 56.1357 111.983 57.0213 111.467C57.9095 110.95 58.542 110.211 58.6506 109.257C58.7528 108.383 58.5205 107.618 58.028 107.008C57.5433 106.408 56.8316 105.987 56.0134 105.732C54.3815 105.224 52.2183 105.339 50.1412 106.138C48.2092 106.881 46.3197 108.228 44.9708 110.267C44.7273 110.181 44.4836 110.089 44.2398 109.993C37.5624 107.361 30.9872 101.183 31.0263 89.8269C31.0656 78.4241 37.035 69.7545 46.3478 65.3497C55.676 60.9377 68.408 60.7865 81.9491 66.5709C82.9877 67.0152 83.9441 67.1075 84.8055 66.836C85.6629 66.5656 86.3529 65.9577 86.9072 65.1423C88.0018 63.5323 88.6578 60.9797 89.0587 58.0121C89.8149 52.4139 89.6962 45.0336 89.5964 38.8316C89.5899 38.4295 89.5835 38.0322 89.5775 37.6409C89.4604 29.9944 92.8466 25.0582 97.5577 22.0153C102.297 18.9542 108.404 17.7965 113.687 17.8161M45.9559 110.593C47.1665 108.868 48.8125 107.715 50.5011 107.066C52.4119 106.33 54.3401 106.253 55.7152 106.681C56.4006 106.895 56.9213 107.225 57.2496 107.631C57.5697 108.028 57.7307 108.525 57.6584 109.142L57.6582 109.144C57.5967 109.686 57.2361 110.19 56.5168 110.609C55.7946 111.03 54.7592 111.332 53.4874 111.466C51.3829 111.687 48.7151 111.437 45.9559 110.593Z" fill="white"/>
<path fill-rule="evenodd" clip-rule="evenodd" d="M130.19 42.3234H114.289V41.1299H130.19V42.3234Z" fill="#3FB1B5"/>
<path fill-rule="evenodd" clip-rule="evenodd" d="M135.087 37.1515C133.055 37.1515 131.171 39.32 131.171 42.3235C131.171 45.3269 133.055 47.4954 135.087 47.4954C137.119 47.4954 139.002 45.3269 139.002 42.3235C139.002 39.32 137.119 37.1515 135.087 37.1515ZM129.973 42.3235C129.973 38.955 132.132 35.958 135.087 35.958C138.041 35.958 140.201 38.955 140.201 42.3235C140.201 45.6919 138.041 48.6889 135.087 48.6889C132.132 48.6889 129.973 45.6919 129.973 42.3235Z" fill="#3FB1B5"/>
<path fill-rule="evenodd" clip-rule="evenodd" d="M110.436 13.9172C108.231 13.9172 106.46 15.6972 106.46 17.8757V34.6247H105.262V17.8757C105.262 15.0414 107.566 12.7236 110.436 12.7236H115.43C118.276 12.7236 120.604 15.0181 120.604 17.8757H119.405C119.405 15.6807 117.617 13.9172 115.43 13.9172H110.436Z" fill="#66B0F0"/>
<path d="M110.673 53.0649H101.064C98.607 53.0649 96.6094 51.0757 96.6094 48.629V39.0609C96.6094 36.6142 98.607 34.625 101.064 34.625H110.673C113.13 34.625 115.128 36.6142 115.128 39.0609V48.629C115.108 51.0757 113.13 53.0649 110.673 53.0649Z" fill="white"/>
<path fill-rule="evenodd" clip-rule="evenodd" d="M101.066 35.2218C98.9397 35.2218 97.2103 36.9439 97.2103 39.061V48.629C97.2103 50.7462 98.9397 52.4682 101.066 52.4682H110.674C112.795 52.4682 114.511 50.7508 114.53 48.6265V39.061C114.53 36.9439 112.801 35.2218 110.674 35.2218H101.066ZM96.0117 39.061C96.0117 36.2847 98.2777 34.0283 101.066 34.0283H110.674C113.463 34.0283 115.729 36.2847 115.729 39.061V48.6315L115.729 48.6339C115.706 51.402 113.467 53.6617 110.674 53.6617H101.066C98.2777 53.6617 96.0117 51.4053 96.0117 48.629V39.061Z" fill="#66B0F0"/>
<path d="M108.179 49.9022H103.484C101.467 49.9022 99.8086 48.271 99.8086 46.242V41.5674C99.8086 39.5583 101.447 37.9072 103.484 37.9072H108.179C110.196 37.9072 111.854 39.5384 111.854 41.5674V46.242C111.854 48.271 110.216 49.9022 108.179 49.9022Z" fill="white"/>
<path fill-rule="evenodd" clip-rule="evenodd" d="M103.482 38.5041C101.778 38.5041 100.406 39.8858 100.406 41.5674V46.2421C100.406 47.9394 101.793 49.3054 103.482 49.3054H108.177C109.883 49.3054 111.253 47.9415 111.253 46.2421V41.5674C111.253 39.8701 109.865 38.5041 108.177 38.5041H103.482ZM99.207 41.5674C99.207 39.2309 101.111 37.3105 103.482 37.3105H108.177C110.523 37.3105 112.452 39.2068 112.452 41.5674V46.2421C112.452 48.6006 110.545 50.499 108.177 50.499H103.482C101.136 50.499 99.207 48.6027 99.207 46.2421V41.5674Z" fill="#66B0F0"/>
<path fill-rule="evenodd" clip-rule="evenodd" d="M101.203 49.0863L109.553 38.0264L110.511 38.7436L102.161 49.8035L101.203 49.0863Z" fill="#66B0F0"/>
<path fill-rule="evenodd" clip-rule="evenodd" d="M99.5664 47.1946L106.798 37.6465L107.755 38.3651L100.523 47.9132L99.5664 47.1946Z" fill="#66B0F0"/>
<path fill-rule="evenodd" clip-rule="evenodd" d="M103.941 49.5423L111.173 39.9941L112.13 40.7128L104.898 50.261L103.941 49.5423Z" fill="#66B0F0"/>
<path fill-rule="evenodd" clip-rule="evenodd" d="M106.84 49.5432L111.375 43.5557L112.332 44.2743L107.797 50.2618L106.84 49.5432Z" fill="#66B0F0"/>
<path fill-rule="evenodd" clip-rule="evenodd" d="M99.3477 43.5942L103.862 37.6465L104.818 38.3662L100.304 44.3139L99.3477 43.5942Z" fill="#66B0F0"/>
<path fill-rule="evenodd" clip-rule="evenodd" d="M98.1501 325.803V314.843H99.3486V325.803C99.3486 331.424 94.7654 335.988 89.1207 335.988H64.4297V334.794H89.1207C94.1034 334.794 98.1501 330.765 98.1501 325.803Z" fill="#66B0F0"/>
<path fill-rule="evenodd" clip-rule="evenodd" d="M107.359 415.517V314.963H108.558V415.517H107.359Z" fill="#66B0F0"/>
<path fill-rule="evenodd" clip-rule="evenodd" d="M102.905 416.113C81.2225 416.113 63.8509 430.395 63.8509 447.762H62.6523C62.6523 429.521 80.799 414.92 102.905 414.92H112.853C134.959 414.92 153.106 429.521 153.106 447.762H151.907C151.907 430.395 134.536 416.113 112.853 416.113H102.905Z" fill="#66B0F0"/>
<path d="M204.022 316.494H58.9922C51.7208 316.494 45.8477 310.626 45.8477 303.405H207.458L204.022 316.494Z" fill="#FFCF2D"/>
<path d="M62.3715 469.085C68.285 469.085 73.0789 464.311 73.0789 458.423C73.0789 452.534 68.285 447.761 62.3715 447.761C56.4579 447.761 51.6641 452.534 51.6641 458.423C51.6641 464.311 56.4579 469.085 62.3715 469.085Z" fill="#FFCF2D"/>
<path d="M56.9185 338.117H78.4132C80.1711 338.117 81.5895 336.705 81.5895 334.954V334.715C81.5895 332.965 80.1711 331.553 78.4132 331.553H56.9185C55.1605 331.553 53.7422 332.965 53.7422 334.715V334.954C53.7422 336.705 55.1605 338.117 56.9185 338.117Z" fill="#FFCF2D"/>
<path fill-rule="evenodd" clip-rule="evenodd" d="M12.045 211.286C9.38929 203.857 14.9117 196.048 22.8376 196.048H98.4887C105.854 196.048 112.412 200.663 114.894 207.563L114.895 207.564L149.6 304.4H45.4282L12.045 211.286ZM13.174 210.886C10.7961 204.232 15.7414 197.241 22.8376 197.241H98.4887C105.346 197.241 111.454 201.538 113.766 207.966L147.899 303.206H46.2729L13.1742 210.886C13.1742 210.886 13.1741 210.886 13.174 210.886Z" fill="#FFCF2D"/>
<path fill-rule="evenodd" clip-rule="evenodd" d="M15.2461 199.608H91.836C98.9618 199.608 105.3 204.064 107.702 210.746L107.703 210.746L141.249 304.4H50.9441V303.206H139.549L106.574 211.148C104.342 204.94 98.4541 200.802 91.836 200.802H15.2461V199.608Z" fill="#FFCF2D"/>
<path d="M152.325 469.085C158.238 469.085 163.032 464.311 163.032 458.423C163.032 452.534 158.238 447.761 152.325 447.761C146.411 447.761 141.617 452.534 141.617 458.423C141.617 464.311 146.411 469.085 152.325 469.085Z" fill="#FFCF2D"/>
</svg>
