<svg width="50" height="50" viewBox="0 0 50 50" fill="none" xmlns="http://www.w3.org/2000/svg">
<g clip-path="url(#clip0_38_21)">
<mask id="mask0_38_21" style="mask-type:luminance" maskUnits="userSpaceOnUse" x="0" y="0" width="50" height="50">
<path d="M37.8788 0H12.1212C5.42685 0 0 5.42685 0 12.1212V37.8788C0 44.5731 5.42685 50 12.1212 50H37.8788C44.5731 50 50 44.5731 50 37.8788V12.1212C50 5.42685 44.5731 0 37.8788 0Z" fill="white"/>
</mask>
<g mask="url(#mask0_38_21)">
<path d="M50 0H0V50H50V0Z" fill="#87C3FF"/>
<path d="M50 25C63.8072 25 75 13.8071 75 1.14441e-05C75 -13.8071 63.8072 -25 50 -25C36.1929 -25 25 -13.8071 25 1.14441e-05C25 13.8071 36.1929 25 50 25Z" fill="#0171E1"/>
<path d="M30.8841 23.8585H16.1123V18.0131H30.8841C31.7469 18.0131 32.3469 18.1636 32.648 18.4262C32.9491 18.6888 33.1356 19.1759 33.1356 19.8875V21.9864C33.1356 22.7361 32.9491 23.2233 32.648 23.4859C32.3469 23.7485 31.7469 23.8608 30.8841 23.8608V23.8585ZM31.8975 12.5022H9.84766V37.5H16.1123V29.3672H27.6574L33.1356 37.5H40.1507L34.1108 29.3291C36.3375 28.9991 37.3374 28.3167 38.1621 27.192C38.9867 26.0674 39.4003 24.2693 39.4003 21.8697V19.9953C39.4003 18.5721 39.2495 17.4475 38.9867 16.5855C38.7238 15.7235 38.2745 14.9737 37.6363 14.3003C36.9622 13.6628 36.2117 13.2138 35.3106 12.913C34.4096 12.6504 33.2839 12.5 31.8975 12.5V12.5022Z" fill="white"/>
</g>
</g>
<defs>
<clipPath id="clip0_38_21">
<rect width="50" height="50" fill="white"/>
</clipPath>
</defs>
</svg>
