<svg width="420" height="317" viewBox="0 0 420 317" fill="none" xmlns="http://www.w3.org/2000/svg">
<g clip-path="url(#clip0_49_1315)">
<path d="M359.832 171.725C359.832 220.482 331.25 263.617 287.433 289.875C259.34 306.713 224.981 316.615 187.881 316.615C138.458 316.615 100.757 297.934 72.3978 269.317C46.2583 242.948 28.0574 208.134 15.9298 171.725C-38.2106 9.16367 52.2315 -35.1851 187.881 26.8346C274.25 66.3273 359.832 91.7063 359.832 171.725Z" fill="#0171E1"/>
<path d="M287.433 86.623V290.261C259.34 307.099 224.98 317 187.881 317C138.457 317 100.757 298.32 72.3975 269.703V86.623H287.433Z" fill="#F2F2F2"/>
<path d="M93.0802 185.847C104.339 182.265 116.021 180.182 127.823 179.652C133.738 179.4 139.662 179.632 145.539 180.345C151.359 181.115 157.108 182.346 162.733 184.026C168.29 185.636 173.77 187.495 179.309 189.165C184.935 190.884 190.655 192.28 196.441 193.346C202.196 194.388 208.009 195.081 213.848 195.421C219.629 195.757 225.468 195.823 231.233 195.207C236.618 194.688 241.893 193.351 246.875 191.241C251.522 189.213 255.816 186.459 259.596 183.081C260.54 182.239 261.448 181.359 262.32 180.443C262.834 179.905 262.018 179.086 261.502 179.625C254.132 187.33 244.445 192.108 233.938 193.703C228.214 194.572 222.381 194.623 216.606 194.399C210.703 194.171 204.819 193.576 198.989 192.618C193.23 191.663 187.533 190.366 181.927 188.734C176.421 187.139 170.99 185.3 165.503 183.641C159.968 181.903 154.318 180.557 148.594 179.612C142.853 178.738 137.051 178.335 131.245 178.408C119.643 178.593 108.116 180.301 96.9578 183.486C95.5564 183.879 94.1614 184.295 92.7729 184.732C92.0654 184.953 92.3674 186.07 93.0802 185.847H93.0802Z" fill="#3F3D56"/>
<path d="M93.0802 215.138C104.339 211.556 116.021 209.473 127.823 208.943C133.738 208.691 139.662 208.923 145.539 209.636C151.359 210.406 157.108 211.637 162.733 213.317C168.29 214.927 173.77 216.786 179.309 218.456C184.935 220.175 190.655 221.571 196.441 222.637C202.196 223.679 208.009 224.372 213.848 224.712C219.629 225.048 225.468 225.114 231.233 224.498C236.618 223.979 241.893 222.642 246.875 220.532C251.522 218.504 255.816 215.75 259.596 212.372C260.54 211.53 261.448 210.65 262.32 209.734C262.834 209.196 262.018 208.377 261.502 208.916C254.132 216.621 244.445 221.399 233.938 222.994C228.214 223.863 222.381 223.914 216.606 223.69C210.703 223.462 204.819 222.867 198.989 221.909C193.23 220.954 187.533 219.657 181.927 218.025C176.421 216.43 170.99 214.591 165.503 212.932C159.968 211.194 154.318 209.848 148.594 208.903C142.853 208.029 137.051 207.626 131.245 207.699C119.643 207.884 108.116 209.592 96.9578 212.777C95.5564 213.17 94.1614 213.586 92.7729 214.023C92.0654 214.244 92.3674 215.361 93.0802 215.138H93.0802Z" fill="#3F3D56"/>
<path d="M93.0802 159.254C104.339 155.672 116.021 153.589 127.823 153.059C133.738 152.807 139.662 153.039 145.539 153.752C151.359 154.522 157.108 155.753 162.733 157.434C168.29 159.043 173.77 160.902 179.309 162.572C184.935 164.291 190.655 165.687 196.441 166.753C202.196 167.795 208.009 168.488 213.848 168.828C219.629 169.164 225.468 169.23 231.233 168.614C236.618 168.095 241.893 166.758 246.875 164.648C251.522 162.621 255.816 159.866 259.596 156.488C260.54 155.646 261.448 154.766 262.32 153.85C262.834 153.312 262.018 152.493 261.502 153.032C254.132 160.737 244.445 165.515 233.938 167.11C228.214 167.979 222.381 168.03 216.606 167.806C210.703 167.578 204.819 166.983 198.989 166.026C193.23 165.07 187.533 163.773 181.927 162.141C176.421 160.546 170.99 158.707 165.503 157.048C159.968 155.31 154.318 153.964 148.594 153.019C142.853 152.145 137.051 151.742 131.245 151.815C119.643 152.001 108.116 153.708 96.9578 156.893C95.5564 157.287 94.1614 157.702 92.7729 158.139C92.0654 158.361 92.3674 159.477 93.0802 159.254H93.0802Z" fill="#3F3D56"/>
<path d="M91.7028 108.973C94.4999 107.734 97.7042 107.95 100.607 108.669C103.737 109.444 106.685 110.791 109.766 111.723C115.281 113.366 121.14 113.477 126.714 112.044C129.852 111.244 132.846 109.96 135.59 108.24C136.218 107.845 135.638 106.844 135.006 107.241C130.116 110.295 124.463 111.907 118.697 111.891C115.806 111.887 112.93 111.463 110.16 110.634C107.101 109.717 104.177 108.385 101.079 107.595C97.7957 106.758 94.2751 106.577 91.1193 107.975C90.4404 108.276 91.0279 109.272 91.7028 108.973Z" fill="#3F3D56"/>
<path d="M177.603 286.264C187.394 286.264 195.33 278.327 195.33 268.535C195.33 258.744 187.394 250.807 177.603 250.807C167.813 250.807 159.876 258.744 159.876 268.535C159.876 278.327 167.813 286.264 177.603 286.264Z" fill="#3F3D56"/>
<path d="M82.0317 50.3944C87.3525 50.3944 91.6659 46.0806 91.6659 40.7592C91.6659 35.4378 87.3525 31.124 82.0317 31.124C76.7108 31.124 72.3975 35.4378 72.3975 40.7592C72.3975 46.0806 76.7108 50.3944 82.0317 50.3944Z" fill="#F2F2F2"/>
<path d="M166.428 74.6751C170.046 74.6751 172.979 71.7417 172.979 68.1232C172.979 64.5047 170.046 61.5713 166.428 61.5713C162.81 61.5713 159.876 64.5047 159.876 68.1232C159.876 71.7417 162.81 74.6751 166.428 74.6751Z" fill="#F2F2F2"/>
<path d="M60.0654 137.496C63.6836 137.496 66.6167 134.563 66.6167 130.944C66.6167 127.326 63.6836 124.393 60.0654 124.393C56.4473 124.393 53.5142 127.326 53.5142 130.944C53.5142 134.563 56.4473 137.496 60.0654 137.496Z" fill="#F2F2F2"/>
<path d="M33.6892 82.2705H32.9668V211.476H33.6892V82.2705Z" fill="#3F3D56"/>
<path d="M33.4677 200.403C41.2482 200.403 47.5555 186.008 47.5555 168.251C47.5555 150.494 41.2482 136.099 33.4677 136.099C25.6872 136.099 19.3799 150.494 19.3799 168.251C19.3799 186.008 25.6872 200.403 33.4677 200.403Z" fill="#3F3D56"/>
<path d="M33.4677 127.067C41.2482 127.067 47.5555 112.672 47.5555 94.915C47.5555 77.1578 41.2482 62.7627 33.4677 62.7627C25.6872 62.7627 19.3799 77.1578 19.3799 94.915C19.3799 112.672 25.6872 127.067 33.4677 127.067Z" fill="#3F3D56"/>
<path d="M33.8137 68.6466L33.1215 68.4391C33.1653 68.293 37.4125 53.7369 30.4386 44.3663C26.4997 39.074 19.7406 36.3905 10.3491 36.3905V35.668C19.983 35.668 26.9376 38.4503 31.0201 43.9377C38.2099 53.602 33.8585 68.4973 33.8137 68.6466Z" fill="#3F3D56"/>
<path d="M10.349 45.0602C15.3365 45.0602 19.3796 41.0166 19.3796 36.0286C19.3796 31.0406 15.3365 26.9971 10.349 26.9971C5.36152 26.9971 1.31836 31.0406 1.31836 36.0286C1.31836 41.0166 5.36152 45.0602 10.349 45.0602Z" fill="#3F3D56"/>
<path d="M297.019 240.755L290.262 302.921H336.882L338.909 298.191L341.611 302.921H385.528C385.528 302.921 382.15 238.728 376.069 236.701C369.989 234.674 297.019 240.755 297.019 240.755Z" fill="#2F2E41"/>
<path d="M336.883 104.261C349.943 104.261 360.531 93.6726 360.531 80.611C360.531 67.5494 349.943 56.9609 336.883 56.9609C323.823 56.9609 313.235 67.5494 313.235 80.611C313.235 93.6726 323.823 104.261 336.883 104.261Z" fill="#FFB8B8"/>
<path d="M323.368 95.476C323.368 95.476 325.395 117.099 323.368 118.45C321.341 119.802 355.799 119.126 355.799 119.126C355.799 119.126 351.07 99.5303 355.799 90.0703L323.368 95.476Z" fill="#FFB8B8"/>
<path d="M335.531 113.721C335.531 113.721 352.917 116.429 354.359 111.021L363.233 123.181L363.909 244.81C363.909 244.81 291.614 253.594 288.912 239.404C286.209 225.214 316.613 113.045 316.613 113.045L324.268 112.55C324.268 112.55 334.18 113.721 335.531 113.721Z" fill="#D0CDE1"/>
<path d="M324.151 107L312.558 111.018L279.451 119.126L280.803 200.212C280.803 200.212 252.426 281.298 265.263 287.379C278.1 293.461 296.343 279.271 301.748 269.135C307.153 258.999 326.071 118.451 326.071 115.748C326.071 113.045 324.151 107 324.151 107Z" fill="#3F3D56"/>
<path d="M353.923 107L358.501 111.018L390.933 125.883L374.717 207.645C374.717 207.645 396.338 281.974 388.23 286.028C380.122 290.082 367.961 301.569 365.258 294.812C362.555 288.055 346.641 114.47 353.923 107Z" fill="#3F3D56"/>
<path d="M372.691 215.078C372.691 215.078 342.287 202.239 341.611 213.726C340.936 225.214 376.069 233.322 376.069 229.944C376.069 226.565 372.691 215.078 372.691 215.078Z" fill="#FFB8B8"/>
<path d="M298.371 210.348C298.371 210.348 333.504 236.701 319.991 243.458C306.478 250.215 288.912 219.808 288.912 219.808L298.371 210.348Z" fill="#FFB8B8"/>
<path d="M347.38 45.9674C347.491 45.7322 347.67 45.5357 347.894 45.4029C348.117 45.2702 348.376 45.2074 348.635 45.2225C337.809 44.5748 326.405 45.8368 317.348 51.8034C314.811 53.4745 312.443 55.5178 309.555 56.4595L311.899 58.298L309.098 59.1518L313.22 61.816C312.804 62.2892 312.27 62.6439 311.672 62.8441C311.075 63.0443 310.435 63.0829 309.818 62.9559C311.609 63.4793 312.928 65.0735 313.598 66.8155C314.267 68.5574 314.388 70.4545 314.501 72.3174C315.193 69.6295 318.126 68.0472 320.897 67.8865C323.668 67.7257 326.37 68.64 329.067 69.2972C334.94 70.7246 341.039 70.9593 347.005 69.9874C344.979 74.0529 346.688 78.9023 348.407 83.1066L351.841 91.5012C353.747 91.6929 355.094 89.7972 356.53 88.529C357.839 87.3732 352.628 97.5385 353.435 97.166C354.483 96.6822 365.544 84.4693 366.062 83.4375C368.425 78.7301 369.843 73.4794 369.629 68.2164C369.416 62.9534 367.491 57.6877 363.863 53.8686C361.4 51.276 357.993 50.8219 355.483 48.6671C354.495 47.8189 354.491 47.1564 353.133 46.6619C352.682 46.4977 347.455 45.8019 347.38 45.9674Z" fill="#2F2E41"/>
<path d="M284.181 121.153L279.451 119.126L241.615 181.292C241.615 181.292 234.859 197.509 247.02 204.942C259.182 212.375 287.559 234.673 287.559 234.673L303.775 209.672C303.775 209.672 270.668 194.13 272.695 188.049C274.722 181.968 285.532 165.75 285.532 165.75L284.181 121.153Z" fill="#3F3D56"/>
<path d="M382.15 124.532L390.934 125.884C390.934 125.884 427.419 197.51 418.635 211.024C409.852 224.538 374.043 243.458 374.043 243.458C374.043 243.458 373.367 221.16 367.286 213.051L388.231 204.942L376.745 160.345L382.15 124.532Z" fill="#3F3D56"/>
</g>
<defs>
<clipPath id="clip0_49_1315">
<rect width="420" height="317" fill="white"/>
</clipPath>
</defs>
</svg>
