<svg width="50" height="50" viewBox="0 0 50 50" fill="none" xmlns="http://www.w3.org/2000/svg">
<path d="M37.5159 0H12.484C5.5893 0 0 5.5893 0 12.484V37.5159C0 44.4107 5.5893 50 12.484 50H37.5159C44.4107 50 50 44.4107 50 37.5159V12.484C50 5.5893 44.4107 0 37.5159 0Z" fill="url(#paint0_linear_38_29)"/>
<path d="M37.5159 0H12.484C5.5893 0 0 5.5893 0 12.484V37.5159C0 44.4107 5.5893 50 12.484 50H37.5159C44.4107 50 50 44.4107 50 37.5159V12.484C50 5.5893 44.4107 0 37.5159 0Z" fill="url(#paint1_radial_38_29)"/>
<path fill-rule="evenodd" clip-rule="evenodd" d="M25.4108 43.9165C21.6604 43.9165 19.9176 43.369 16.8881 41.179C14.9719 43.6427 8.90383 45.5681 8.63918 42.274C8.63918 39.8012 8.09168 37.7116 7.47118 35.4303C6.73208 32.6198 5.89258 29.49 5.89258 24.9549C5.89258 14.1236 14.7803 5.9751 25.3104 5.9751C35.8497 5.9751 44.1078 14.5251 44.1078 25.0553C44.1431 35.4226 35.778 43.8612 25.4108 43.9165ZM25.5659 15.3372C20.4377 15.0726 16.441 18.6222 15.5559 24.1884C14.8259 28.7965 16.1216 34.4083 17.2257 34.7003C17.755 34.8281 19.0872 33.7514 19.9176 32.921C21.2906 33.8695 22.8896 34.4392 24.5531 34.5726C29.8667 34.8282 34.4071 30.7829 34.7638 25.4751C34.9715 20.156 30.8803 15.6508 25.5659 15.3464V15.3372Z" fill="white"/>
<defs>
<linearGradient id="paint0_linear_38_29" x1="5.89235" y1="38.0268" x2="50" y2="25" gradientUnits="userSpaceOnUse">
<stop stop-color="#0171E1"/>
<stop offset="0.662" stop-color="#D9ECFF"/>
<stop offset="1" stop-color="#87C3FF"/>
</linearGradient>
<radialGradient id="paint1_radial_38_29" cx="0" cy="0" r="1" gradientUnits="userSpaceOnUse" gradientTransform="translate(-1.18954 -21.9593) rotate(51.356) scale(60.6759 25)">
<stop stop-color="#0000FF"/>
<stop offset="1" stop-opacity="0"/>
</radialGradient>
</defs>
</svg>
