<svg width="379" height="263" viewBox="0 0 379 263" fill="none" xmlns="http://www.w3.org/2000/svg">
<g clip-path="url(#clip0_35_855)">
<path d="M360.802 226.426V263H305.699L316.436 206.836C316.091 209.053 322.964 213.211 332.368 217.379C335.743 218.876 339.507 220.361 343.526 221.769C350.01 224.053 355.983 225.605 360.802 226.426C360.802 226.426 360.791 226.426 360.802 226.426Z" fill="#9A3B82"/>
<path d="M360.802 215.428V225.217C355.984 224.397 350.021 222.855 343.515 220.572C328.182 215.195 316.38 208.554 317.046 205.572C317.058 205.527 317.069 205.483 317.08 205.45C318.112 202.534 331.691 204.552 347.235 209.995C352.231 211.747 356.739 213.554 360.525 215.295C360.613 215.339 360.702 215.383 360.802 215.428Z" fill="#FFCF2D"/>
<path d="M353.241 130.683C347.867 130.683 343.515 135.029 343.515 140.383V166.969C343.515 172.323 339.163 176.669 333.8 176.669H294.852C300.225 176.669 304.566 172.323 304.566 166.969V140.383C304.566 135.017 308.919 130.683 314.281 130.683H353.241Z" fill="white"/>
<path fill-rule="evenodd" clip-rule="evenodd" d="M314.281 130.96C309.072 130.96 304.844 135.171 304.844 140.383V166.969C304.844 171.325 302.05 175.033 298.147 176.392H333.8C339.009 176.392 343.237 172.17 343.237 166.969V140.383C343.237 136.026 346.038 132.319 349.945 130.96H314.281ZM353.241 130.405H314.281C308.766 130.405 304.289 134.864 304.289 140.383V166.969C304.289 172.17 300.072 176.392 294.852 176.392V176.946H333.8C339.316 176.946 343.792 172.476 343.792 166.969V140.383C343.792 135.182 348.02 130.96 353.241 130.96V130.405Z" fill="#FFCF2D"/>
<path d="M336.21 144.441H311.406V167.423H336.21V144.441Z" fill="white"/>
<path fill-rule="evenodd" clip-rule="evenodd" d="M311.129 144.164H336.488V167.701H311.129V144.164ZM311.684 144.718V167.146H335.932V144.718H311.684Z" fill="#FFCF2D"/>
<path fill-rule="evenodd" clip-rule="evenodd" d="M311.406 147.446H336.199V148.001H311.406V147.446Z" fill="#FFCF2D"/>
<path fill-rule="evenodd" clip-rule="evenodd" d="M311.406 150.728H336.199V151.283H311.406V150.728Z" fill="#FFCF2D"/>
<path fill-rule="evenodd" clip-rule="evenodd" d="M311.406 154.02H336.199V154.575H311.406V154.02Z" fill="#FFCF2D"/>
<path fill-rule="evenodd" clip-rule="evenodd" d="M311.406 157.302H336.199V157.857H311.406V157.302Z" fill="#FFCF2D"/>
<path fill-rule="evenodd" clip-rule="evenodd" d="M311.406 160.594H336.199V161.149H311.406V160.594Z" fill="#FFCF2D"/>
<path fill-rule="evenodd" clip-rule="evenodd" d="M311.406 163.876H336.199V164.431H311.406V163.876Z" fill="#FFCF2D"/>
<path d="M343.516 140.383C343.516 135.051 347.823 130.727 353.142 130.683C358.471 130.727 362.768 135.051 362.768 140.383H343.516Z" fill="#66B0F0"/>
<path fill-rule="evenodd" clip-rule="evenodd" d="M353.142 130.405L353.144 130.405C358.626 130.451 363.046 134.898 363.046 140.383V140.66H343.238V140.383C343.238 134.898 347.669 130.451 353.14 130.405L353.142 130.405ZM353.142 130.96C348.069 131.003 343.943 135.055 343.797 140.106H362.486C362.341 135.054 358.225 131.003 353.142 130.96Z" fill="#FFCF2D"/>
<path d="M333.845 176.913C333.834 176.913 333.811 176.913 333.8 176.913H294.996C294.974 176.913 294.952 176.913 294.93 176.913C290.944 176.858 287.535 174.397 286.092 170.916H324.974C326.428 174.397 329.837 176.858 333.845 176.913Z" fill="#FFCF2D"/>
<path d="M313.027 141.802H308.541V138.21H310.651V140.205C310.651 140.25 310.673 140.283 310.695 140.294L310.706 140.305L313.027 141.802Z" fill="#FE5244"/>
<path d="M314.769 139.452V139.929C314.769 140.017 314.758 140.106 314.758 140.195C314.758 140.217 314.747 140.25 314.747 140.272C314.736 140.317 314.736 140.361 314.725 140.405C314.603 141.015 314.236 141.514 313.781 141.703C313.748 141.714 313.715 141.725 313.681 141.736C313.626 141.758 313.559 141.769 313.504 141.78C313.481 141.78 313.459 141.791 313.437 141.791L310.895 140.139C310.917 139.751 311.161 139.441 311.45 139.441H314.769V139.452Z" fill="#FE5244"/>
<path d="M339.54 138.21V141.802H335.055L337.364 140.305L337.375 140.294C337.386 140.283 337.386 140.283 337.397 140.283C337.397 140.272 337.408 140.272 337.408 140.261C337.408 140.261 337.408 140.25 337.42 140.25C337.42 140.239 337.42 140.239 337.431 140.239C337.431 140.239 337.431 140.239 337.431 140.227C337.431 140.216 337.431 140.216 337.431 140.205V138.21H339.54Z" fill="#FE5244"/>
<path d="M337.207 140.151L334.664 141.803C334.598 141.792 334.531 141.781 334.465 141.769C334.442 141.758 334.42 141.758 334.398 141.747C334.365 141.736 334.342 141.725 334.309 141.714C334.287 141.703 334.254 141.692 334.231 141.681C333.887 141.492 333.599 141.126 333.454 140.672C333.432 140.605 333.41 140.539 333.399 140.472C333.388 140.45 333.388 140.417 333.376 140.384C333.354 140.239 333.332 140.095 333.332 139.94V139.463H336.663C336.94 139.452 337.185 139.763 337.207 140.151Z" fill="#FE5244"/>
<path d="M337.209 136.392V139.519C337.187 139.497 337.165 139.463 337.143 139.441C337.098 139.397 337.054 139.364 337.009 139.33C336.898 139.264 336.776 139.219 336.654 139.219H311.44C311.307 139.219 311.185 139.264 311.085 139.33C311.04 139.364 310.996 139.397 310.951 139.441C310.929 139.463 310.907 139.485 310.885 139.519V136.392C310.885 135.971 311.129 135.638 311.44 135.638H336.654C336.954 135.638 337.209 135.982 337.209 136.392Z" fill="#FE5244"/>
<path d="M360.802 181.758V225.217H360.791C355.973 224.397 350.011 222.856 343.504 220.572C339.485 219.164 335.721 217.667 332.346 216.182L334.156 206.093L337.231 188.965C327.583 185.949 326.018 176.681 326.018 176.681H333.778C339.152 176.681 343.493 172.335 343.493 166.98V163.787H338.508C335.011 163.787 332.168 160.35 332.168 156.858V155.727H343.249C345.303 155.727 347.235 156.692 348.467 158.333L356.572 169.142C359.326 172.778 360.802 177.202 360.802 181.758Z" fill="#A0505A"/>
<path d="M360.802 215.428V225.217H360.791C355.972 224.397 350.01 222.856 343.504 220.572C339.485 219.164 335.721 217.667 332.346 216.182L334.155 206.093C338.152 207.068 342.594 208.388 347.212 210.006C352.209 211.758 356.716 213.565 360.491 215.306C360.613 215.339 360.702 215.383 360.802 215.428Z" fill="#73325A"/>
<path d="M344.004 163.787H338.652C335.155 163.787 332.312 160.35 332.312 156.858V155.727H344.004V163.787Z" fill="#A0505A"/>
<path fill-rule="evenodd" clip-rule="evenodd" d="M340.543 174.845C340.543 174.845 340.543 174.845 340.641 174.586C340.738 174.326 340.739 174.326 340.739 174.326L340.739 174.326L340.741 174.327L340.746 174.329C340.751 174.331 340.757 174.333 340.765 174.336C340.781 174.343 340.805 174.352 340.834 174.365C340.894 174.39 340.981 174.427 341.091 174.478C341.31 174.58 341.622 174.735 341.997 174.953C342.747 175.389 343.753 176.075 344.78 177.077C346.839 179.084 348.978 182.355 349.333 187.404L348.78 187.443C348.435 182.547 346.367 179.399 344.392 177.474C343.403 176.509 342.436 175.85 341.718 175.433C341.359 175.224 341.062 175.076 340.857 174.981C340.754 174.933 340.674 174.898 340.621 174.876C340.594 174.865 340.574 174.857 340.561 174.852C340.554 174.849 340.549 174.847 340.547 174.846L340.543 174.845L340.543 174.845ZM340.543 174.845C340.543 174.845 340.543 174.845 340.543 174.845L340.543 174.845Z" fill="#73325A"/>
<path fill-rule="evenodd" clip-rule="evenodd" d="M342.506 189.475H337.254V188.92H342.506V189.475Z" fill="#73325A"/>
<path fill-rule="evenodd" clip-rule="evenodd" d="M346.704 68.0262C346.291 62.8131 340.435 59.9581 336.061 62.845L332.542 65.173L332.174 64.6184L335.694 62.2901C340.491 59.1238 346.915 62.2555 347.368 67.9737L348.134 77.6521C348.134 77.6521 348.134 77.6522 348.134 77.6521C348.536 82.7172 354.117 85.6038 358.49 83.0132L360.71 81.6942L361.051 82.2658L358.83 83.5851L358.83 83.5853C354.033 86.4272 347.911 83.2605 347.47 77.7048L346.704 68.0262Z" fill="#FFCF2D"/>
<path d="M281.207 28.9424L326.428 55.1508L349.2 106.204L323.075 88.632L294.686 55.4169L281.207 28.9424Z" fill="#9A3B82"/>
<path fill-rule="evenodd" clip-rule="evenodd" d="M327.245 54.1867L281.162 27.4668L281.497 26.8916L327.766 53.7195L351.07 105.946L350.462 106.217L327.245 54.1867Z" fill="#FFCF2D"/>
<path d="M322.604 89.7591C324.718 87.9777 319.969 78.8913 311.998 69.4641C304.028 60.0369 295.853 53.8388 293.74 55.6202C291.627 57.4016 296.376 66.4879 304.346 75.9151C312.317 85.3423 320.491 91.5405 322.604 89.7591Z" fill="white"/>
<path d="M321.319 90.3038C323.39 88.558 318.732 79.6483 310.916 70.4036C303.1 61.1589 295.084 55.0798 293.013 56.8257C290.942 58.5715 295.6 67.4811 303.417 76.7259C311.233 85.9706 319.248 92.0496 321.319 90.3038Z" fill="white"/>
<path fill-rule="evenodd" clip-rule="evenodd" d="M294.754 63.8352C296.624 67.4136 299.73 71.9353 303.629 76.5469C307.528 81.1585 311.472 84.9738 314.691 87.4154C316.302 88.6375 317.72 89.506 318.852 89.9615C319.418 90.1894 319.898 90.3082 320.287 90.3236C320.674 90.339 320.95 90.2521 321.141 90.0918C321.331 89.9315 321.463 89.6744 321.513 89.2909C321.562 88.9052 321.526 88.4123 321.396 87.8167C321.136 86.6263 320.516 85.0851 319.58 83.2938C317.709 79.7154 314.604 75.1938 310.704 70.5822C306.805 65.9706 302.862 62.1552 299.643 59.7137C298.031 58.4915 296.614 57.6231 295.482 57.1675C294.916 56.9396 294.435 56.8209 294.046 56.8054C293.659 56.79 293.383 56.8769 293.193 57.0372C293.003 57.1976 292.871 57.4546 292.821 57.8382C292.771 58.2238 292.808 58.7168 292.938 59.3123C293.198 60.5028 293.817 62.044 294.754 63.8352ZM292.27 57.767C292.332 57.2931 292.507 56.8898 292.835 56.6137C293.162 56.3376 293.59 56.2325 294.068 56.2515C294.544 56.2704 295.091 56.4124 295.689 56.6534C296.887 57.1355 298.35 58.0373 299.979 59.2722C303.239 61.745 307.211 65.5915 311.129 70.2246C315.046 74.8577 318.177 79.4132 320.072 83.0373C321.018 84.8473 321.663 86.4386 321.938 87.6986C322.076 88.3284 322.124 88.8901 322.063 89.362C322.002 89.836 321.826 90.2392 321.499 90.5154C321.171 90.7915 320.744 90.8965 320.265 90.8775C319.789 90.8586 319.243 90.7166 318.644 90.4757C317.446 89.9935 315.983 89.0918 314.355 87.8568C311.095 85.3841 307.122 81.5376 303.205 76.9045C299.288 72.2713 296.156 67.7158 294.262 64.0917C293.315 62.2817 292.671 60.6904 292.395 59.4304C292.258 58.8007 292.209 58.239 292.27 57.767Z" fill="#FFCF2D"/>
<path d="M326.829 86.1712L322.521 89.7965C323.321 89.1202 323.143 87.4129 322.177 85.0293C320.589 81.1047 316.87 75.373 311.918 69.4971C306.955 63.6324 301.915 59.0093 298.306 56.792C296.119 55.4395 294.454 54.9738 293.654 55.6501L297.962 52.0248C300.072 50.2399 308.621 56.0714 316.592 65.506C324.564 74.9406 328.95 84.3974 326.829 86.1712Z" fill="#FFCF2D"/>
<path d="M372.848 72.301C374.069 71.7135 375.257 71.1924 376.401 70.76C377.078 71.4695 377.666 72.301 378.121 73.2323C378.577 74.1636 378.865 75.1392 378.999 76.1037C377.944 76.7245 376.8 77.3454 375.59 77.933C369.517 80.8709 363.988 81.9906 363.233 80.4385C362.467 78.8753 366.775 75.239 372.848 72.301Z" fill="#FFCF2D"/>
<path fill-rule="evenodd" clip-rule="evenodd" d="M362.124 80.1945C361.566 80.1945 361.113 80.6462 361.113 81.2033C361.113 81.7605 361.566 82.2122 362.124 82.2122C362.682 82.2122 363.134 81.7605 363.134 81.2033C363.134 80.6462 362.682 80.1945 362.124 80.1945ZM360.447 81.2033C360.447 80.2788 361.198 79.5293 362.124 79.5293C363.05 79.5293 363.8 80.2788 363.8 81.2033C363.8 82.1279 363.05 82.8774 362.124 82.8774C361.198 82.8774 360.447 82.1279 360.447 81.2033Z" fill="#9A3B82"/>
<path d="M282.84 216.061V263.001H229.291L236.153 212.025C236.153 214.087 246.6 216.66 259.49 217.768C272.381 218.888 282.84 218.123 282.84 216.061Z" fill="#66B0F0"/>
<path d="M282.596 214.852C282.596 216.914 272.237 217.679 259.469 216.559C246.701 215.44 236.342 212.868 236.342 210.817C236.342 208.754 246.701 207.99 259.469 209.109C272.248 210.218 282.596 212.79 282.596 214.852Z" fill="#3FB1B5"/>
<path fill-rule="evenodd" clip-rule="evenodd" d="M293.071 113.161L289.841 111.074L290.203 110.515L293.457 112.618L293.468 112.627C294.412 113.356 294.737 114.671 294.633 116.285C294.528 117.913 293.984 119.938 293.071 122.215C291.244 126.774 287.912 132.422 283.513 138.082C279.114 143.748 274.465 148.376 270.498 151.277C268.516 152.727 266.688 153.757 265.136 154.264C263.596 154.766 262.239 154.78 261.295 154.051L261.283 154.041L259.672 152.522L260.129 152.038L261.716 153.534C262.394 154.049 263.466 154.109 264.929 153.631C266.387 153.155 268.15 152.17 270.104 150.741C274.009 147.885 278.614 143.306 282.986 137.675L282.986 137.675C287.358 132.049 290.655 126.455 292.453 121.968C293.352 119.722 293.87 117.772 293.968 116.243C294.067 114.708 293.741 113.687 293.071 113.161Z" fill="#66B0F0"/>
<path d="M245 163.388L281.806 129.752L294.674 90.6277L255.392 126.271L245 163.388Z" fill="#66B0F0"/>
<path fill-rule="evenodd" clip-rule="evenodd" d="M296.354 90.8004C296.529 90.8577 296.624 91.0456 296.567 91.2201L283.472 131.048L243.349 167.714C243.213 167.838 243.003 167.829 242.878 167.694C242.754 167.558 242.764 167.348 242.899 167.224L282.893 130.675L295.934 91.0126C295.992 90.8381 296.18 90.7431 296.354 90.8004Z" fill="#FE5244"/>
<path fill-rule="evenodd" clip-rule="evenodd" d="M229.127 162.782L264.079 129.401L264.539 129.882L229.588 163.263L229.587 163.263C227.653 165.107 224.491 163.364 225.034 160.738L226.011 156.004L226.011 156.004C226.394 154.162 224.3 152.817 222.781 153.923L222.781 153.923L211.234 162.316L210.842 161.778L222.388 153.386C222.388 153.386 222.389 153.386 222.389 153.386M226.664 156.139C227.169 153.702 224.4 151.921 222.389 153.386L226.664 156.139ZM226.664 156.139L225.687 160.872L225.687 160.873C225.275 162.859 227.664 164.176 229.127 162.782L229.127 162.782" fill="#FE5244"/>
<path d="M201.633 173.999C200.601 174.863 199.568 175.661 198.569 176.36C197.736 175.839 196.97 175.185 196.293 174.387C195.626 173.588 195.105 172.724 194.738 171.814C195.604 170.95 196.559 170.074 197.592 169.198C202.754 164.863 207.839 162.413 208.961 163.744C210.071 165.074 206.796 169.664 201.633 173.999Z" fill="#FFCF2D"/>
<path fill-rule="evenodd" clip-rule="evenodd" d="M209.96 161.847C209.402 161.847 208.949 162.299 208.949 162.856C208.949 163.413 209.402 163.865 209.96 163.865C210.518 163.865 210.97 163.413 210.97 162.856C210.97 162.298 210.518 161.847 209.96 161.847ZM208.283 162.856C208.283 161.931 209.034 161.182 209.96 161.182C210.886 161.182 211.636 161.931 211.636 162.856C211.636 163.78 210.886 164.53 209.96 164.53C209.034 164.53 208.283 163.78 208.283 162.856Z" fill="#FE5244"/>
<path d="M265.962 180.728V216.981C263.908 216.893 261.721 216.759 259.467 216.56C251.151 215.839 243.868 214.487 239.793 213.068L240.404 209.054L242.446 195.584H239.804C236.04 195.584 232.998 192.547 232.998 188.788V175.44C232.998 172.802 233.953 170.263 235.696 168.278L244.389 158.356C244.956 157.713 246.022 158.112 246.022 158.966V172.458C246.022 174.077 245.444 175.64 244.389 176.87L243.612 177.779H253.05C254.415 177.779 255.215 176.261 254.448 175.13C253.283 173.434 251.751 171.017 250.296 168.223C247.398 162.691 252.428 159.598 252.428 159.598L263.941 174.509C265.251 176.316 265.962 178.5 265.962 180.728Z" fill="#FFCF2D"/>
<path fill-rule="evenodd" clip-rule="evenodd" d="M246.023 157.967C246.176 157.967 246.3 158.091 246.3 158.244V172.457C246.3 174.142 245.7 175.769 244.602 177.05L244.602 177.05M244.602 177.05L243.825 177.959C243.725 178.075 243.55 178.089 243.433 177.99C243.317 177.89 243.303 177.715 243.402 177.599L244.18 176.69L244.18 176.69C245.191 175.509 245.745 174.01 245.745 172.457V158.244C245.745 158.091 245.87 157.967 246.023 157.967" fill="white"/>
<path fill-rule="evenodd" clip-rule="evenodd" d="M243.796 177.561C243.91 177.663 243.92 177.838 243.818 177.952L237.579 184.948C237.477 185.062 237.301 185.072 237.187 184.97C237.072 184.869 237.062 184.693 237.164 184.579L243.404 177.584C243.506 177.469 243.681 177.459 243.796 177.561Z" fill="white"/>
<path fill-rule="evenodd" clip-rule="evenodd" d="M246.021 166.006C246.174 166.006 246.299 166.13 246.299 166.283C246.299 167.967 245.698 169.594 244.6 170.875C244.6 170.875 244.6 170.875 244.6 170.875L243.821 171.786L237.59 178.773C237.488 178.887 237.313 178.898 237.198 178.796C237.084 178.694 237.074 178.519 237.176 178.404L243.402 171.422L244.178 170.515C245.19 169.335 245.743 167.835 245.743 166.283C245.743 166.13 245.868 166.006 246.021 166.006Z" fill="white"/>
<path fill-rule="evenodd" clip-rule="evenodd" d="M246.021 159.841C246.174 159.841 246.299 159.965 246.299 160.118C246.299 161.803 245.698 163.43 244.6 164.711C244.6 164.711 244.6 164.711 244.6 164.711L243.821 165.622L237.59 172.609C237.488 172.723 237.313 172.733 237.198 172.631C237.084 172.529 237.074 172.354 237.176 172.24L243.402 165.258L244.178 164.35C245.19 163.17 245.743 161.671 245.743 160.118C245.743 159.965 245.868 159.841 246.021 159.841Z" fill="white"/>
<path fill-rule="evenodd" clip-rule="evenodd" d="M242.168 195.95C242.168 195.797 242.292 195.673 242.446 195.673H247.231C247.384 195.673 247.508 195.797 247.508 195.95C247.508 196.103 247.384 196.228 247.231 196.228H242.446C242.292 196.228 242.168 196.103 242.168 195.95Z" fill="white"/>
<path d="M265.962 209.819V216.981C263.908 216.892 261.721 216.759 259.467 216.559C251.151 215.839 243.868 214.486 239.793 213.067L240.404 209.054C244.578 208.444 251.562 208.411 259.478 209.098C261.721 209.309 263.897 209.542 265.962 209.819Z" fill="#FE5244"/>
<path d="M212.227 263H150.307V201.703C150.307 204.319 160.488 206.437 173.056 206.437C185.624 206.437 195.806 204.319 195.806 201.703V201.692L212.227 263Z" fill="#3FB1B5"/>
<path d="M195.639 200.483C195.639 203.111 185.569 205.228 173.134 205.228C160.699 205.228 150.629 203.111 150.629 200.494V200.483C150.662 197.878 160.721 195.76 173.134 195.76C185.547 195.76 195.617 197.878 195.639 200.483Z" fill="#66B0F0"/>
<path d="M195.639 200.528C195.561 203.123 185.513 205.229 173.134 205.229C170.746 205.229 168.459 205.151 166.305 205.007V182.202H154.559C153.06 182.202 151.85 180.994 151.85 179.497V177.668C151.85 176.848 152.216 176.116 152.793 175.617C152.216 175.118 151.85 174.386 151.85 173.566V171.737C151.85 171.016 152.138 170.351 152.605 169.874C152.138 169.386 151.85 168.732 151.85 168.012V166.182C151.85 165.44 152.149 164.763 152.638 164.264C152.149 163.777 151.85 163.1 151.85 162.358V159.043C151.85 157.546 153.06 156.338 154.559 156.338H169.558C170.058 156.049 170.869 155.029 169.492 154.431L166.272 153.677C163.718 152.402 162.097 150.284 162.097 147.424H173.422C175.321 147.424 177.019 148.621 177.663 150.406L195.361 199.741L195.639 200.528Z" fill="#E57281"/>
<path d="M195.694 200.55C195.66 200.517 195.638 200.495 195.638 200.495C195.638 203.111 185.568 205.229 173.133 205.229C170.746 205.229 168.459 205.151 166.305 205.007V195.994C168.459 195.85 170.757 195.772 173.133 195.772C184.347 195.772 193.651 197.502 195.36 199.752C195.405 199.808 195.527 200.107 195.694 200.55Z" fill="#9A3B82"/>
<path d="M169.814 125.517V134.508C169.814 139.397 165.85 143.355 160.954 143.355C156.057 143.355 152.094 139.397 152.094 134.508V125.517C152.094 127.712 156.057 129.486 160.954 129.486C165.85 129.486 169.814 127.712 169.814 125.517Z" fill="white"/>
<path d="M160.954 129.485C165.847 129.485 169.814 127.708 169.814 125.516C169.814 123.324 165.847 121.547 160.954 121.547C156.06 121.547 152.094 123.324 152.094 125.516C152.094 127.708 156.06 129.485 160.954 129.485Z" fill="#FFCF2D"/>
<path fill-rule="evenodd" clip-rule="evenodd" d="M151.762 109.818H170.148V134.497C170.148 137.902 168.292 140.87 165.54 142.457L165.374 142.168C165.374 142.175 165.374 142.181 165.374 142.188L165.528 142.457C164.181 143.227 162.614 143.676 160.955 143.676C159.32 143.676 157.785 143.252 156.451 142.501H156.447L156.398 142.473C156.392 142.47 156.386 142.466 156.38 142.463C156.378 142.461 156.375 142.46 156.373 142.458L156.369 142.457C153.617 140.87 151.762 137.902 151.762 134.497V109.818ZM165.283 141.836C167.796 140.352 169.482 137.623 169.482 134.497V110.483H152.428V134.497C152.428 137.631 154.122 140.366 156.645 141.847H156.647L156.694 141.874C156.701 141.877 156.707 141.881 156.714 141.885C156.716 141.887 156.719 141.888 156.722 141.89L156.724 141.891C157.973 142.606 159.415 143.011 160.955 143.011C162.493 143.011 163.946 142.595 165.197 141.88L165.274 141.836H165.283Z" fill="#FFCF2D"/>
<path d="M160.954 114.12C165.902 114.12 169.914 112.343 169.914 110.151C169.914 107.959 165.902 106.182 160.954 106.182C156.006 106.182 151.994 107.959 151.994 110.151C151.994 112.343 156.006 114.12 160.954 114.12Z" fill="white"/>
<path fill-rule="evenodd" clip-rule="evenodd" d="M152.899 108.797C152.48 109.236 152.272 109.693 152.272 110.151C152.272 110.608 152.48 111.065 152.899 111.504C153.32 111.945 153.942 112.354 154.731 112.704C156.31 113.403 158.51 113.842 160.954 113.842C163.399 113.842 165.599 113.403 167.177 112.704C167.967 112.354 168.589 111.945 169.009 111.504C169.428 111.065 169.637 110.608 169.637 110.151C169.637 109.693 169.428 109.236 169.009 108.797C168.589 108.357 167.967 107.947 167.177 107.598C165.599 106.898 163.399 106.459 160.954 106.459C158.51 106.459 156.31 106.898 154.731 107.598C153.942 107.947 153.32 108.357 152.899 108.797ZM154.506 107.091C156.171 106.354 158.451 105.905 160.954 105.905C163.458 105.905 165.738 106.354 167.402 107.091C168.234 107.459 168.925 107.905 169.411 108.414C169.899 108.925 170.192 109.512 170.192 110.151C170.192 110.789 169.899 111.376 169.411 111.887C168.925 112.396 168.234 112.842 167.402 113.21C165.738 113.948 163.458 114.397 160.954 114.397C158.451 114.397 156.171 113.948 154.506 113.21C153.674 112.842 152.984 112.396 152.498 111.887C152.01 111.376 151.717 110.789 151.717 110.151C151.717 109.512 152.01 108.925 152.498 108.415C152.984 107.905 153.674 107.459 154.506 107.091Z" fill="#FFCF2D"/>
<path d="M160.955 110.749C161.678 110.749 162.265 110.164 162.265 109.441C162.265 108.719 161.678 108.133 160.955 108.133C160.231 108.133 159.645 108.719 159.645 109.441C159.645 110.164 160.231 110.749 160.955 110.749Z" fill="#FFCF2D"/>
<path d="M158.067 137.467C158.704 137.467 159.221 136.951 159.221 136.314C159.221 135.678 158.704 135.161 158.067 135.161C157.429 135.161 156.912 135.678 156.912 136.314C156.912 136.951 157.429 137.467 158.067 137.467Z" fill="white"/>
<path fill-rule="evenodd" clip-rule="evenodd" d="M158.067 135.439C157.583 135.439 157.19 135.831 157.19 136.315C157.19 136.799 157.583 137.191 158.067 137.191C158.551 137.191 158.944 136.799 158.944 136.315C158.944 135.831 158.551 135.439 158.067 135.439ZM156.635 136.315C156.635 135.525 157.276 134.885 158.067 134.885C158.858 134.885 159.499 135.525 159.499 136.315C159.499 137.105 158.858 137.745 158.067 137.745C157.276 137.745 156.635 137.105 156.635 136.315Z" fill="#FFCF2D"/>
<path d="M164.996 126.47C165.523 126.47 165.951 126.043 165.951 125.517C165.951 124.99 165.523 124.563 164.996 124.563C164.469 124.563 164.041 124.99 164.041 125.517C164.041 126.043 164.469 126.47 164.996 126.47Z" fill="white"/>
<path d="M155.758 133.622C156.285 133.622 156.712 133.195 156.712 132.668C156.712 132.142 156.285 131.715 155.758 131.715C155.23 131.715 154.803 132.142 154.803 132.668C154.803 133.195 155.23 133.622 155.758 133.622Z" fill="#FFCF2D"/>
<path d="M169.469 188.409H152.437C152.127 188.409 152.038 187.999 152.304 187.855L158.255 185.605C159.188 185.25 159.81 184.352 159.81 183.354V147.922C159.81 145.571 158.588 143.365 156.557 142.179C157.856 142.922 159.354 143.343 160.953 143.343C162.563 143.343 164.062 142.911 165.361 142.168C163.318 143.343 162.097 145.56 162.097 147.911V183.343C162.097 184.341 162.719 185.239 163.651 185.594L169.602 187.844C169.869 187.999 169.78 188.409 169.469 188.409Z" fill="white"/>
<path fill-rule="evenodd" clip-rule="evenodd" d="M163.614 143.225C162.773 143.482 161.881 143.621 160.953 143.621C160.025 143.621 159.128 143.483 158.283 143.226C159.434 144.491 160.087 146.169 160.087 147.923V183.355C160.087 184.468 159.394 185.469 158.354 185.865L158.354 185.865L152.428 188.106C152.428 188.106 152.428 188.106 152.427 188.106C152.427 188.107 152.426 188.108 152.426 188.109C152.424 188.112 152.423 188.118 152.425 188.125C152.426 188.129 152.427 188.131 152.428 188.132C152.428 188.133 152.428 188.133 152.429 188.133C152.431 188.133 152.433 188.133 152.438 188.133H169.469C169.473 188.133 169.476 188.133 169.478 188.133C169.478 188.133 169.478 188.133 169.479 188.133C169.479 188.131 169.481 188.129 169.482 188.125C169.483 188.116 169.483 188.108 169.48 188.102C169.479 188.1 169.478 188.097 169.476 188.095C169.475 188.094 169.474 188.094 169.474 188.093L163.553 185.854L163.552 185.854C162.512 185.458 161.819 184.457 161.819 183.344V147.912C161.819 146.166 162.467 144.489 163.614 143.225ZM160.953 143.067C162.513 143.067 163.964 142.648 165.223 141.928L165.5 142.409C163.547 143.532 162.374 145.655 162.374 147.912V183.344C162.374 184.226 162.925 185.021 163.75 185.335L163.75 185.336M158.157 185.346C158.157 185.346 158.157 185.347 158.157 185.347L152.188 187.604L152.172 187.612C151.916 187.751 151.832 188.023 151.884 188.249C151.937 188.48 152.137 188.688 152.438 188.688H169.469C169.77 188.688 169.97 188.48 170.023 188.247C170.075 188.02 169.991 187.75 169.742 187.606L169.722 187.594L163.75 185.336M158.157 185.346C158.982 185.032 159.532 184.237 159.532 183.355V147.923C159.532 145.667 158.36 143.554 156.417 142.419L156.695 141.939C157.953 142.659 159.404 143.067 160.953 143.067" fill="#FFCF2D"/>
<path d="M154.647 96.8353C155.481 96.8353 156.157 96.1603 156.157 95.3276C156.157 94.4949 155.481 93.8198 154.647 93.8198C153.813 93.8198 153.137 94.4949 153.137 95.3276C153.137 96.1603 153.813 96.8353 154.647 96.8353Z" fill="#FFCF2D"/>
<path d="M164.996 99.2636C165.719 99.2636 166.306 98.6779 166.306 97.9554C166.306 97.2329 165.719 96.6472 164.996 96.6472C164.272 96.6472 163.686 97.2329 163.686 97.9554C163.686 98.6779 164.272 99.2636 164.996 99.2636Z" fill="white"/>
<path fill-rule="evenodd" clip-rule="evenodd" d="M164.996 96.9244C164.426 96.9244 163.963 97.386 163.963 97.9555C163.963 98.5249 164.426 98.9865 164.996 98.9865C165.566 98.9865 166.028 98.5249 166.028 97.9555C166.028 97.386 165.566 96.9244 164.996 96.9244ZM163.408 97.9555C163.408 97.0799 164.119 96.3701 164.996 96.3701C165.873 96.3701 166.584 97.0799 166.584 97.9555C166.584 98.831 165.873 99.5408 164.996 99.5408C164.119 99.5408 163.408 98.831 163.408 97.9555Z" fill="#FFCF2D"/>
<path d="M158.58 104.364C159.107 104.364 159.535 103.937 159.535 103.41C159.535 102.884 159.107 102.457 158.58 102.457C158.053 102.457 157.625 102.884 157.625 103.41C157.625 103.937 158.053 104.364 158.58 104.364Z" fill="white"/>
<path fill-rule="evenodd" clip-rule="evenodd" d="M158.578 102.734C158.204 102.734 157.901 103.037 157.901 103.41C157.901 103.784 158.204 104.086 158.578 104.086C158.952 104.086 159.255 103.784 159.255 103.41C159.255 103.037 158.952 102.734 158.578 102.734ZM157.346 103.41C157.346 102.73 157.897 102.179 158.578 102.179C159.259 102.179 159.811 102.73 159.811 103.41C159.811 104.09 159.259 104.641 158.578 104.641C157.897 104.641 157.346 104.09 157.346 103.41Z" fill="#FFCF2D"/>
<path d="M158.079 92.7559C158.515 92.7559 158.868 92.4035 158.868 91.9688C158.868 91.5341 158.515 91.1816 158.079 91.1816C157.644 91.1816 157.291 91.5341 157.291 91.9688C157.291 92.4035 157.644 92.7559 158.079 92.7559Z" fill="#FFCF2D"/>
<path d="M172.367 159.896V182.213H154.559C153.06 182.213 151.85 181.004 151.85 179.508V177.678C151.85 176.858 152.216 176.126 152.793 175.627C152.216 175.128 151.85 174.397 151.85 173.576V171.747C151.85 171.026 152.138 170.361 152.605 169.884C152.138 169.397 151.85 168.743 151.85 168.022V166.193C151.85 165.45 152.149 164.774 152.638 164.275C152.149 163.787 151.85 163.111 151.85 162.368V159.907H172.367V159.896Z" fill="#E57281"/>
<path fill-rule="evenodd" clip-rule="evenodd" d="M152.16 173.144C152.314 173.144 152.438 173.268 152.438 173.421C152.438 174.964 153.69 176.215 155.236 176.215H169.647C171.193 176.215 172.445 174.964 172.445 173.421C172.445 173.268 172.569 173.144 172.723 173.144C172.876 173.144 173 173.268 173 173.421C173 175.27 171.499 176.769 169.647 176.769H155.236C153.384 176.769 151.883 175.27 151.883 173.421C151.883 173.268 152.007 173.144 152.16 173.144Z" fill="#9A3B82"/>
<path fill-rule="evenodd" clip-rule="evenodd" d="M152.16 167.612C152.314 167.612 152.438 167.736 152.438 167.889C152.438 169.432 153.69 170.683 155.236 170.683H169.647C171.193 170.683 172.445 169.432 172.445 167.889C172.445 167.736 172.569 167.612 172.723 167.612C172.876 167.612 173 167.736 173 167.889C173 169.739 171.499 171.237 169.647 171.237H155.236C153.384 171.237 151.883 169.739 151.883 167.889C151.883 167.736 152.007 167.612 152.16 167.612Z" fill="#9A3B82"/>
<path fill-rule="evenodd" clip-rule="evenodd" d="M152.16 162.08C152.314 162.08 152.438 162.204 152.438 162.357C152.438 163.9 153.69 165.151 155.236 165.151H169.647C171.193 165.151 172.445 163.9 172.445 162.357C172.445 162.204 172.569 162.08 172.723 162.08C172.876 162.08 173 162.204 173 162.357C173 164.206 171.499 165.705 169.647 165.705H155.236C153.384 165.705 151.883 164.206 151.883 162.357C151.883 162.204 152.007 162.08 152.16 162.08Z" fill="#9A3B82"/>
<path fill-rule="evenodd" clip-rule="evenodd" d="M172.723 157.933C172.876 157.933 173.001 158.057 173.001 158.21V178.953C173.001 180.802 171.5 182.301 169.648 182.301H155.092C154.939 182.301 154.814 182.177 154.814 182.024C154.814 181.871 154.939 181.747 155.092 181.747H169.648C171.193 181.747 172.446 180.496 172.446 178.953V158.21C172.446 158.057 172.57 157.933 172.723 157.933Z" fill="#9A3B82"/>
<path fill-rule="evenodd" clip-rule="evenodd" d="M169.446 156.625C168.533 156.625 167.792 157.366 167.792 158.277C167.792 159.329 166.933 160.173 165.893 160.173H157.633C156.991 160.173 156.467 159.649 156.467 159.008C156.467 158.368 156.991 157.844 157.633 157.844H159.109C159.263 157.844 159.387 157.968 159.387 158.122C159.387 158.275 159.263 158.399 159.109 158.399H157.633C157.297 158.399 157.022 158.674 157.022 159.008C157.022 159.343 157.297 159.618 157.633 159.618H165.893C166.629 159.618 167.236 159.02 167.236 158.277C167.236 157.059 168.227 156.071 169.446 156.071H170.789C172.008 156.071 172.999 157.059 172.999 158.277V161.869C172.999 162.022 172.874 162.146 172.721 162.146C172.568 162.146 172.444 162.022 172.444 161.869V158.277C172.444 157.366 171.702 156.625 170.789 156.625H169.446Z" fill="#9A3B82"/>
<path d="M259.925 43.8642L222.964 81.7134L180.352 34.8065L226.861 2.12354L259.925 43.8642Z" fill="#3FB1B5"/>
<path fill-rule="evenodd" clip-rule="evenodd" d="M177.311 34.6513L226.031 0.544666L225.648 0L176.309 34.5409L221.274 83.756L221.767 83.3077L177.311 34.6513Z" fill="#FFCF2D"/>
<path fill-rule="evenodd" clip-rule="evenodd" d="M234.214 48.6142C233.564 44.2274 229.48 41.1831 225.077 41.8324L222.291 42.2426L222.193 41.5845L224.98 41.1743C224.98 41.1743 224.98 41.1743 224.98 41.1743C229.748 40.4712 234.169 43.7683 234.873 48.5167L234.873 48.5172L237.305 65.0581C237.305 65.058 237.305 65.0581 237.305 65.0581C238.094 70.4131 243.851 73.4789 248.745 71.1369L248.745 71.1369L260.369 65.5825L260.657 66.1826L249.032 71.7368" fill="#FFCF2D"/>
<path d="M275.335 69.0527C276.523 69.6957 277.645 70.3609 278.666 71.0261C278.488 71.9906 278.155 72.944 277.667 73.8642C277.178 74.7733 276.557 75.5826 275.846 76.2589C274.725 75.7711 273.548 75.2057 272.36 74.5627C266.42 71.3587 262.278 67.5338 263.1 66.015C263.922 64.4961 269.395 65.8487 275.335 69.0527Z" fill="#FFCF2D"/>
<path fill-rule="evenodd" clip-rule="evenodd" d="M261.835 64.5626C261.277 64.5626 260.824 65.0143 260.824 65.5715C260.824 66.1287 261.277 66.5804 261.835 66.5804C262.393 66.5804 262.845 66.1287 262.845 65.5715C262.845 65.0143 262.393 64.5626 261.835 64.5626ZM260.158 65.5715C260.158 64.647 260.909 63.8975 261.835 63.8975C262.761 63.8975 263.511 64.647 263.511 65.5715C263.511 66.4961 262.761 67.2456 261.835 67.2456C260.909 67.2456 260.158 66.4961 260.158 65.5715Z" fill="#66B0F0"/>
<path d="M129.732 221.47V263H81.668V238.533C82.7116 241.26 94.9468 239.519 108.004 234.53C119.75 230.04 128.821 224.519 129.732 221.47Z" fill="#FE5244"/>
<path d="M129.732 220.262C128.81 223.311 119.75 228.832 107.992 233.322C94.9468 238.311 82.7115 240.052 81.6568 237.324C80.602 234.597 91.1496 228.422 104.206 223.433C117.252 218.444 128.688 216.615 129.732 219.342C129.843 219.619 129.843 219.93 129.732 220.262Z" fill="#66B0F0"/>
<path d="M119.551 192.723V227.912L116.898 229.253C114.211 230.562 111.202 231.859 108.005 233.078C102.131 235.329 96.4133 236.914 91.8168 237.735L94.4592 227.369L98.7671 210.451C96.7242 210.451 94.7923 209.542 93.4933 207.967L75.8066 187.879C78.8377 185.118 83.3676 188.876 83.3676 188.876L81.6689 180.218C81.2692 178.167 81.8687 176.038 83.2788 174.497L88.6525 168.61C89.7183 167.446 91.6391 167.901 92.0832 169.409L95.9026 182.568C95.9026 182.568 105.384 189.797 107.161 189.797C109.17 189.797 109.87 188.167 106.117 182.812C103.297 178.788 106.117 175.85 106.117 175.85L115.299 183.566C117.997 185.85 119.551 189.198 119.551 192.723Z" fill="white"/>
<path fill-rule="evenodd" clip-rule="evenodd" d="M88.8573 168.797C88.8572 168.797 88.8572 168.797 88.8571 168.797L83.4834 174.684C82.1327 176.161 81.5582 178.2 81.941 180.165C81.9411 180.165 81.9411 180.165 81.9411 180.165L83.7896 189.587L83.19 189.09L83.1878 189.088C83.186 189.087 83.1832 189.084 83.1792 189.081C83.1714 189.075 83.1594 189.065 83.1433 189.052C83.1111 189.027 83.0629 188.989 83 188.942C82.8743 188.848 82.6903 188.715 82.4599 188.564C81.9981 188.262 81.3544 187.889 80.6218 187.6C79.2182 187.048 77.5619 186.832 76.201 187.907L93.7044 207.788L93.7073 207.791C94.9535 209.302 96.8068 210.174 98.7668 210.174H99.1238L94.728 227.437L92.1922 237.385C96.6947 236.547 102.225 234.996 107.905 232.82L107.905 232.819C111.095 231.603 114.096 230.309 116.774 229.005C116.775 229.005 116.775 229.005 116.776 229.004L119.274 227.742V192.724C119.274 189.28 117.755 186.009 115.12 183.778C115.12 183.778 115.119 183.778 115.119 183.778L106.152 176.241C106.095 176.316 106.026 176.41 105.953 176.523C105.744 176.844 105.493 177.311 105.326 177.898C104.995 179.06 104.985 180.713 106.344 182.653C107.288 184 107.957 185.119 108.396 186.044C108.834 186.965 109.053 187.709 109.077 188.302C109.101 188.903 108.922 189.368 108.549 189.673C108.188 189.967 107.692 190.074 107.16 190.074C106.871 190.074 106.478 189.935 106.05 189.738C105.609 189.534 105.083 189.247 104.51 188.905C103.363 188.223 102.005 187.315 100.706 186.41C99.4073 185.504 98.1644 184.599 97.2464 183.921C96.7874 183.581 96.4095 183.298 96.1462 183.1C96.0146 183.001 95.9116 182.923 95.8415 182.87C95.8064 182.844 95.7796 182.823 95.7615 182.81L95.734 182.789C95.7339 182.789 95.7339 182.789 95.9023 182.568L95.7339 182.789L95.6612 182.733L91.8167 169.487C91.8166 169.487 91.8165 169.486 91.8165 169.486C91.4324 168.184 89.7757 167.795 88.8573 168.797ZM96.1434 182.403L92.3496 169.332L92.3493 169.33C91.8448 167.618 89.6606 167.098 88.4474 168.423L88.4471 168.424L83.0736 174.31C81.6043 175.916 80.9797 178.134 81.3962 180.271L82.9577 188.23C82.8973 188.189 82.8328 188.145 82.7644 188.101C82.2821 187.785 81.604 187.391 80.8252 187.085C79.2783 186.476 77.253 186.186 75.6193 187.674L75.418 187.857L93.2817 208.147C94.558 209.692 96.4202 210.62 98.4121 210.719L94.19 227.3L91.4412 238.083L91.8654 238.008C96.4813 237.184 102.216 235.593 108.103 233.337C108.103 233.337 108.103 233.337 108.103 233.337L108.004 233.078L108.104 233.337C108.104 233.337 108.104 233.337 108.103 233.337C111.308 232.115 114.324 230.815 117.019 229.503L117.021 229.502L117.023 229.501L119.829 228.082V192.724C119.829 189.117 118.238 185.691 115.478 183.355L106.096 175.471L105.916 175.658L106.117 175.85C105.916 175.658 105.916 175.658 105.916 175.658L105.915 175.66L105.913 175.662C105.911 175.664 105.908 175.667 105.905 175.671C105.898 175.678 105.889 175.687 105.878 175.7C105.856 175.725 105.824 175.762 105.786 175.81C105.709 175.904 105.604 176.043 105.488 176.221C105.256 176.577 104.978 177.095 104.792 177.746C104.418 179.059 104.429 180.887 105.889 182.971C106.822 184.302 107.473 185.394 107.895 186.282C108.319 187.172 108.503 187.839 108.522 188.324C108.541 188.799 108.403 189.076 108.197 189.244C107.979 189.422 107.633 189.52 107.16 189.52C107.006 189.52 106.714 189.433 106.283 189.234C105.866 189.043 105.36 188.766 104.794 188.429C103.664 187.757 102.318 186.857 101.024 185.955C99.7307 185.054 98.4922 184.152 97.5768 183.475C97.1191 183.137 96.7424 182.855 96.4802 182.658C96.3491 182.559 96.2467 182.481 96.177 182.429C96.1648 182.419 96.1536 182.411 96.1434 182.403Z" fill="#FFCF2D"/>
<path fill-rule="evenodd" clip-rule="evenodd" d="M85.4824 171.695C86.6531 170.412 88.7041 170.914 89.1851 172.569L92.8356 185.146L99.4841 190.457L99.1373 190.89L92.3514 185.469L88.6519 172.724C88.6519 172.724 88.6519 172.724 88.6519 172.724C88.2891 171.475 86.765 171.112 85.8928 172.068L85.4824 171.695Z" fill="#FFCF2D"/>
<path fill-rule="evenodd" clip-rule="evenodd" d="M82.2734 175.398C83.386 174.172 85.4056 174.646 85.8655 176.228L89.3166 188.129L95.0893 192.819L94.739 193.249L88.8316 188.45L85.3324 176.382C84.993 175.215 83.5041 174.868 82.6848 175.77L82.2734 175.398Z" fill="#FFCF2D"/>
<path fill-rule="evenodd" clip-rule="evenodd" d="M83.5344 188.676L89.9296 194.03L89.5729 194.455L83.1777 189.1L83.5344 188.676Z" fill="#FFCF2D"/>
<path fill-rule="evenodd" clip-rule="evenodd" d="M106.24 210.729H98.7676V210.174H106.24V210.729Z" fill="#FFCF2D"/>
<path d="M119.552 218.844V228.145C116.243 229.897 112.302 231.671 108.005 233.322C102.12 235.573 96.4026 237.158 91.7949 237.979L94.4596 227.602C97.4129 226.183 100.722 224.764 104.219 223.433C109.87 221.283 115.222 219.708 119.552 218.844Z" fill="#FFCF2D"/>
<path fill-rule="evenodd" clip-rule="evenodd" d="M115.073 109.188L111.72 101.841L112.326 101.565L115.723 109.007L115.729 109.059C116.072 111.98 113.987 114.617 111.064 114.971L111.062 114.971C108.504 115.271 106.679 117.588 106.98 120.145C106.98 120.145 106.98 120.145 106.98 120.146L107.468 124.247L106.807 124.326L106.318 120.223C105.975 117.304 108.058 114.654 110.984 114.311C113.528 114.002 115.343 111.723 115.073 109.188Z" fill="#FFCF2D"/>
<path d="M151.082 77.9443L168.869 50.228L107.693 49.7402L87.6523 103.022L120.738 101.47L151.082 77.9443Z" fill="#FE5244"/>
<path fill-rule="evenodd" clip-rule="evenodd" d="M105.41 47.0884L169.605 47.8116L169.598 48.4768L105.868 47.7588L84.7108 103.462L84.0879 103.226L105.41 47.0884Z" fill="#FFCF2D"/>
<path d="M149.984 73.7873C153.536 79.8738 147.497 90.0069 136.483 96.4149C125.469 102.823 113.667 103.078 110.114 96.9914C109.625 96.1599 109.325 95.2619 109.181 94.2974C108.293 88.2109 114.1 79.896 123.615 74.3639C133.13 68.8317 143.233 67.8783 148.096 71.6477C148.862 72.2463 149.495 72.9559 149.984 73.7873Z" fill="#66B0F0"/>
<path fill-rule="evenodd" clip-rule="evenodd" d="M137.634 69.8484C133.364 70.3015 128.504 71.9056 123.781 74.6513C119.059 77.3969 115.266 80.8283 112.767 84.3163C110.262 87.8114 109.083 91.3248 109.51 94.2488C109.648 95.1753 109.935 96.032 110.4 96.8231L110.401 96.8239C112.088 99.715 115.774 101.159 120.492 101.056C125.197 100.954 130.847 99.3086 136.314 96.1275C141.782 92.9464 146 88.8484 148.409 84.8104C150.824 80.7613 151.383 76.8464 149.695 73.9554C149.229 73.162 148.625 72.484 147.89 71.9098C145.554 70.0994 141.913 69.3944 137.634 69.8484ZM137.564 69.1869C141.931 68.7236 145.773 69.4263 148.3 71.3849L148.301 71.3857C149.098 72.0088 149.759 72.7496 150.27 73.6191L150.271 73.6199C152.136 76.8153 151.451 81.0099 148.981 85.1508C146.504 89.3028 142.196 93.4754 136.65 96.7023C131.103 99.9291 125.345 101.616 120.507 101.721C115.682 101.826 111.691 100.354 109.825 97.1593C109.313 96.2877 109.001 95.3486 108.851 94.3465L108.851 94.3453C108.389 91.1829 109.669 87.4959 112.225 83.9292C114.786 80.3551 118.654 76.863 123.446 74.0764C128.239 71.29 133.188 69.6512 137.564 69.1869Z" fill="white"/>
<path fill-rule="evenodd" clip-rule="evenodd" d="M136.778 64.8379C132.06 64.942 126.402 66.5904 120.933 69.7698C115.459 72.9547 111.233 77.0589 108.819 81.1065C106.399 85.1634 105.83 89.1018 107.532 92.0182L107.532 92.0183L108.912 94.3825C108.909 94.3668 108.907 94.3511 108.905 94.3354L109.18 94.2975L108.905 94.337C108.452 91.1948 109.724 87.5225 112.274 83.9617C114.828 80.3947 118.687 76.9076 123.474 74.1245C128.26 71.3415 133.202 69.7056 137.569 69.2422C141.929 68.7797 145.754 69.4826 148.265 71.4289L148.266 71.4296C148.278 71.439 148.29 71.4484 148.302 71.4578L146.922 69.0934C145.22 66.1771 141.506 64.7335 136.778 64.8379ZM150.222 73.6473L147.402 68.8143L147.402 68.8142C145.552 65.644 141.582 64.1774 136.765 64.2837C131.937 64.3902 126.188 66.0733 120.654 69.2908L120.654 69.2908C115.114 72.5139 110.813 76.6802 108.342 80.8228C105.877 84.956 105.202 89.1273 107.053 92.2973C107.053 92.2974 107.053 92.2974 107.053 92.2974L109.849 97.0913C109.857 97.1048 109.865 97.1183 109.873 97.1318L110.352 96.852L110.352 96.8513C110.344 96.8385 110.337 96.8258 110.33 96.813C109.873 96.0241 109.581 95.1736 109.455 94.2596L109.455 94.2588L109.455 94.258C109.03 91.3137 110.218 87.7854 112.725 84.2841C115.228 80.789 119.025 77.3525 123.753 74.6035C128.481 71.8544 133.349 70.2475 137.628 69.7935C141.915 69.3386 145.572 70.0436 147.924 71.8665C148.664 72.4448 149.273 73.1281 149.743 73.9278L150.222 73.648L150.222 73.6473Z" fill="white"/>
<path d="M106.182 139.231C105.749 140.506 105.283 141.725 104.794 142.845C103.806 142.834 102.807 142.668 101.83 142.335C100.842 142.002 99.9537 141.537 99.1543 140.949C99.443 139.763 99.7982 138.51 100.231 137.235C102.385 130.849 105.45 126.126 107.093 126.67C108.736 127.224 108.325 132.845 106.182 139.231Z" fill="#FFCF2D"/>
<path fill-rule="evenodd" clip-rule="evenodd" d="M107.315 124.342C106.757 124.342 106.305 124.793 106.305 125.351C106.305 125.908 106.757 126.359 107.315 126.359C107.873 126.359 108.326 125.908 108.326 125.351C108.326 124.793 107.873 124.342 107.315 124.342ZM105.639 125.351C105.639 124.426 106.389 123.677 107.315 123.677C108.241 123.677 108.992 124.426 108.992 125.351C108.992 126.275 108.241 127.025 107.315 127.025C106.389 127.025 105.639 126.275 105.639 125.351Z" fill="#66B0F0"/>
<path d="M49.9921 217.622V262.999H0.0742188V196.214C1.05126 199.485 11.4989 206.303 24.4669 212.001C38.2676 218.088 49.7034 220.594 49.9921 217.622Z" fill="#66B0F0"/>
<path d="M49.9928 216.414C49.693 219.385 38.2683 216.869 24.4676 210.793C11.4997 205.084 1.05199 198.266 0.0749469 195.006C0.00833047 194.796 -0.013879 194.596 0.00832641 194.419C0.296997 191.447 11.7328 193.964 25.5335 200.04C39.3342 206.115 50.2926 213.443 49.9928 216.414Z" fill="#9A3B82"/>
<path d="M20.4505 151.326C21.6385 148.887 24.1144 147.335 26.8346 147.335H34.6842L35.095 178.843L40.5686 207.801L42.3118 217.003C37.693 215.983 31.3867 213.843 24.4808 210.805C20.5726 209.087 15.6763 206.537 12.4121 204.741V166.404C12.4121 165.883 12.512 165.362 12.6897 164.874L20.4505 151.326Z" fill="#A0505A"/>
<path d="M42.2981 217.003C37.6793 215.983 31.373 213.843 24.4671 210.805C20.5589 209.087 15.6626 206.537 12.3984 204.741V195.107C15.9624 196.249 21.2362 198.156 25.533 200.04C31.3286 202.59 36.3914 205.218 40.5661 207.801L42.2981 217.003Z" fill="#73325A"/>
<path d="M71.5316 111.914L29.7743 188.632C28.231 191.47 23.9787 192.147 20.2815 190.14C16.5843 188.133 14.8411 184.209 16.3844 181.36L58.1418 104.641L71.5316 111.914Z" fill="white"/>
<path fill-rule="evenodd" clip-rule="evenodd" d="M58.0313 104.264L71.9089 111.802L30.0191 188.764C29.1977 190.274 27.664 191.192 25.88 191.476C24.0965 191.759 22.0475 191.413 20.1497 190.383C16.3808 188.337 14.4951 184.266 16.1411 181.227L16.1414 181.226L58.0313 104.264ZM58.2539 105.016L16.6294 181.491C15.1888 184.15 16.7894 187.928 20.4148 189.896C22.2143 190.872 24.1401 191.191 25.7928 190.928C27.4452 190.666 28.8092 189.827 29.5312 188.499L71.1561 112.024L58.2539 105.016Z" fill="#FFCF2D"/>
<path d="M71.5247 111.932C73.0707 109.092 71.3279 105.163 67.6321 103.158C63.9363 101.152 59.687 101.829 58.141 104.669C56.595 107.51 58.3378 111.438 62.0336 113.444C65.7294 115.449 69.9787 114.773 71.5247 111.932Z" fill="#66B0F0"/>
<path fill-rule="evenodd" clip-rule="evenodd" d="M58.3843 104.802C56.9417 107.452 58.5413 111.233 62.1656 113.2C65.7899 115.167 69.8377 114.45 71.2803 111.8C72.7229 109.149 71.1233 105.368 67.499 103.401C63.8747 101.434 59.8269 102.151 58.3843 104.802ZM61.9005 113.687C58.1333 111.643 56.2473 107.567 57.8966 104.537C59.5459 101.506 63.9968 100.87 67.7641 102.914C71.5314 104.959 73.4173 109.034 71.768 112.065C70.1187 115.095 65.6678 115.732 61.9005 113.687Z" fill="#FFCF2D"/>
<path d="M44.252 141.281L63.9815 125.195L63.6706 130.915L69.9881 132.489L55.5989 141.359C59.4627 140.693 64.1147 140.15 67.9452 140.45C72.5084 140.804 70.9762 146.137 69.2664 150.694C73.2634 150.305 86.6644 142.201 91.7161 143.731C94.8027 144.662 93.6924 150.948 92.8042 154.419C94.0921 154.485 100.609 154.407 100.609 154.407L97.1676 157.545L99.055 160.682C91.7272 161.004 91.6384 159.851 92.5599 154.662C92.7154 149.019 86.4534 154.441 73.119 157.623C66.5129 159.197 67.3678 154.906 68.9999 150.439C68.3449 148.388 63.4486 146.159 47.716 150.261L44.252 141.281Z" fill="#FE5244"/>
<path d="M44.5418 151.082C47.7611 151.082 50.3708 148.476 50.3708 145.262C50.3708 142.047 47.7611 139.441 44.5418 139.441C41.3226 139.441 38.7129 142.047 38.7129 145.262C38.7129 148.476 41.3226 151.082 44.5418 151.082Z" fill="white"/>
<path fill-rule="evenodd" clip-rule="evenodd" d="M44.542 139.718C41.4761 139.718 38.9907 142.199 38.9907 145.261C38.9907 148.322 41.4761 150.804 44.542 150.804C47.608 150.804 50.0934 148.322 50.0934 145.261C50.0934 142.199 47.608 139.718 44.542 139.718ZM38.4355 145.261C38.4355 141.893 41.1695 139.163 44.542 139.163C47.9146 139.163 50.6485 141.893 50.6485 145.261C50.6485 148.629 47.9146 151.358 44.542 151.358C41.1695 151.358 38.4355 148.629 38.4355 145.261Z" fill="#FE5244"/>
<path d="M42.53 147.335V147.701C42.53 151.426 39.5101 154.453 35.7685 154.453H28.6738V147.335H42.53Z" fill="#A0505A"/>
<path d="M51.169 161.005L49.2926 165.395L47.1054 170.528L45.9174 173.311L44.1076 177.557C44.0632 177.668 43.9966 177.79 43.9411 177.89C43.9411 177.901 43.93 177.901 43.93 177.912C43.3527 178.91 42.2313 179.531 40.9989 179.531H26.6208C24.8777 179.531 23.6897 177.879 24.3337 176.36L25.3773 173.91L27.6756 168.522L29.6519 163.876L31.395 159.797C31.9057 158.599 33.1381 157.812 34.5149 157.812H48.8929C50.6249 157.834 51.8129 159.486 51.169 161.005Z" fill="#A0505A"/>
<path fill-rule="evenodd" clip-rule="evenodd" d="M32.6504 163.111C31.7977 163.111 31.0062 163.476 30.4585 164.084C30.3559 164.198 30.1804 164.207 30.0665 164.104C29.9526 164.002 29.9433 163.827 30.0459 163.713C30.6972 162.99 31.6378 162.557 32.6504 162.557H46.3845C47.9953 162.557 49.1651 163.944 49.0031 165.425C48.9864 165.577 48.8494 165.687 48.697 165.671C48.5446 165.654 48.4346 165.517 48.4512 165.365C48.5778 164.207 47.6603 163.111 46.3845 163.111H32.6504Z" fill="#73325A"/>
<path fill-rule="evenodd" clip-rule="evenodd" d="M30.663 167.889C29.8593 167.889 29.1195 168.204 28.5832 168.739C28.4748 168.848 28.2991 168.848 28.1907 168.739C28.0823 168.631 28.0823 168.456 28.1907 168.347C28.8313 167.708 29.7125 167.335 30.663 167.335H44.3971C46.1549 167.335 47.3788 168.971 46.9295 170.591C46.8886 170.738 46.7357 170.825 46.588 170.784C46.4402 170.743 46.3536 170.59 46.3945 170.443C46.7447 169.18 45.7924 167.889 44.3971 167.889H30.663Z" fill="#73325A"/>
<path fill-rule="evenodd" clip-rule="evenodd" d="M28.4532 173.322C27.6806 173.322 26.9604 173.616 26.4231 174.122C26.3116 174.227 26.1359 174.222 26.0307 174.111C25.9256 174 25.9307 173.824 26.0422 173.719C26.6818 173.117 27.5381 172.768 28.4532 172.768H42.1873C43.9948 172.768 45.2564 174.526 44.6697 176.197C44.619 176.341 44.4606 176.417 44.3159 176.366C44.1713 176.316 44.0952 176.158 44.1459 176.013C44.6029 174.712 43.6217 173.322 42.1873 173.322H28.4532Z" fill="#73325A"/>
<path d="M75.8951 32.0574C76.8166 31.0707 77.7381 30.1505 78.6486 29.3301C79.5368 29.7403 80.3806 30.3057 81.1467 31.0152C81.9017 31.7248 82.5345 32.523 83.0119 33.3766C82.2569 34.3412 81.4131 35.3279 80.4916 36.3146C75.8951 41.2481 71.1542 44.2968 69.8774 43.1217C68.6117 41.9465 71.2985 36.9908 75.8951 32.0574Z" fill="#FFCF2D"/>
<path d="M43.6317 71.1258L42.1662 72.0349C36.848 75.3276 26.4891 68.2433 19.0392 56.2145C11.5781 44.1856 9.84612 31.7799 15.1532 28.4872L16.6632 27.5559L25.6453 53.9418L43.6317 71.1258Z" fill="#66B0F0"/>
<path d="M58.5076 85.3502L43.6299 71.1262L25.6324 53.9311L16.6503 27.5563L8.62305 3.97534L46.0059 34.053L58.5076 85.3502Z" fill="#66B0F0"/>
<path fill-rule="evenodd" clip-rule="evenodd" d="M7.93945 2.99707L46.304 33.8645L59.102 86.3776L43.4008 71.3663L25.3444 54.1149L16.3361 27.6632L7.93945 2.99707ZM9.30894 4.95319L16.9668 27.449L25.9227 53.7468L43.8614 70.8857L57.9155 84.3223L45.7101 34.241L9.30894 4.95319Z" fill="white"/>
<path fill-rule="evenodd" clip-rule="evenodd" d="M9.61922 2.70508L47.559 32.5435L59.9989 83.8638L59.3514 84.0203L46.9657 32.9237L9.20703 3.22764L9.61922 2.70508Z" fill="#9A3B82"/>
<path fill-rule="evenodd" clip-rule="evenodd" d="M52.6069 45.1949C51.4827 41.7031 47.8475 39.661 44.2652 40.5289L44.2649 40.5289C40.4913 41.4392 38.1695 45.2394 39.0812 49.0078L38.4337 49.164C37.4357 45.039 39.9768 40.8791 44.1083 39.8824C48.0308 38.9323 52.0114 41.1688 53.2416 44.9931L53.2422 44.9947L56.3625 55.0518L56.3626 55.0521C57.9809 60.2856 65.5319 59.8817 66.5871 54.4988L68.3856 45.2641L69.0396 45.3911L67.2409 54.6262L67.2408 54.6266C66.0533 60.6848 57.55 61.1457 55.7262 55.2487M55.7261 55.2484L52.6074 45.1965C52.6072 45.196 52.607 45.1954 52.6069 45.1949" fill="#FFCF2D"/>
<path fill-rule="evenodd" clip-rule="evenodd" d="M69.1335 43.2331C68.5755 43.2331 68.1232 43.6847 68.1232 44.2419C68.1232 44.7991 68.5755 45.2508 69.1335 45.2508C69.6915 45.2508 70.1439 44.7991 70.1439 44.2419C70.1439 43.6847 69.6915 43.2331 69.1335 43.2331ZM67.457 44.2419C67.457 43.3174 68.2076 42.5679 69.1335 42.5679C70.0595 42.5679 70.81 43.3174 70.81 44.2419C70.81 45.1665 70.0594 45.916 69.1335 45.916C68.2076 45.916 67.457 45.1665 67.457 44.2419Z" fill="#66B0F0"/>
</g>
<defs>
<clipPath id="clip0_35_855">
<rect width="379" height="263" fill="white"/>
</clipPath>
</defs>
</svg>
