<svg width="307" height="185" viewBox="0 0 307 185" fill="none" xmlns="http://www.w3.org/2000/svg">
<path d="M79.5498 133.448L76.1291 127.888C77.2343 125 78.5006 122.176 79.9219 119.431L82.1677 121.333L80.4163 118.486C82.2072 115.109 83.6057 112.987 83.6057 112.987C83.6057 112.987 90.4617 124.355 92.5895 136.288L87.9181 143.24L93.0151 139.266C93.166 140.654 93.23 142.05 93.2067 143.446C92.9251 157.521 88.1273 168.839 82.4906 168.725C76.8538 168.611 72.5126 157.108 72.7942 143.033C72.8815 138.67 73.9541 134.124 75.3922 129.929L79.5498 133.448Z" fill="#E6E6E6"/>
<path d="M64.0696 139.656L58.2842 136.675C57.7462 133.628 57.3796 130.552 57.1859 127.463L60.0853 127.923L57.1232 126.397C56.9214 122.575 57.0283 120.031 57.0283 120.031C57.0283 120.031 68.7385 126.198 76.691 135.306L76.2641 143.686L78.5856 137.634C79.428 138.744 80.2002 139.906 80.8976 141.113C87.8886 153.308 89.5967 165.492 84.7127 168.325C79.8288 171.158 70.2022 163.569 63.2112 151.374C61.0439 147.593 59.6267 143.144 58.702 138.805L64.0696 139.656Z" fill="#E6E6E6"/>
<path d="M93.1179 184.667C86.4517 185.096 79.1881 184.642 71.4609 184.667V166.869C78.2699 167.935 85.531 167.826 93.1179 166.869V184.667Z" fill="#E6E6E6"/>
<path d="M250.253 103.262L179.507 114.721L179.207 45.5319L249.953 0L250.253 103.262Z" fill="#E6E6E6"/>
<path d="M243.657 93.0087L182.504 106.278V48.3766L243.657 14.9863V93.0087Z" fill="white"/>
<path d="M237.662 39.9329L186.102 63.1609V55.0111L237.662 29.3867V39.9329Z" fill="#3F3D56"/>
<path d="M237.662 61.6453L186.102 79.94V71.8986L237.662 51.2393V61.6453Z" fill="#0171E1"/>
<path d="M206.021 51.5698C206.031 51.5287 206.054 51.492 206.087 51.4653C206.119 51.4386 206.16 51.4234 206.202 51.422C206.244 51.4206 206.286 51.4331 206.32 51.4575C206.354 51.482 206.38 51.5171 206.393 51.5575L207.227 54.2043L208.227 57.3752C208.242 57.4216 208.239 57.4717 208.219 57.5158C208.198 57.5599 208.162 57.5948 208.118 57.6135L206.185 58.4236L204.486 59.1357C204.453 59.1495 204.417 59.1539 204.382 59.1482C204.346 59.1426 204.313 59.1272 204.286 59.1038C204.259 59.0804 204.239 59.0499 204.228 59.0156C204.217 58.9813 204.216 58.9447 204.224 58.9098L205.153 55.1136L206.021 51.5698Z" fill="#E6E6E6"/>
<path d="M202.921 71.3056C202.937 71.2377 202.975 71.1771 203.029 71.1331C203.083 71.0891 203.15 71.064 203.22 71.0617C203.289 71.0594 203.358 71.08 203.414 71.1204C203.471 71.1607 203.513 71.2186 203.534 71.2853L204.234 73.504L205.199 76.5645C205.223 76.641 205.218 76.7238 205.185 76.7965C205.151 76.8693 205.092 76.9268 205.018 76.9577L203.192 77.7233L201.723 78.339C201.668 78.3618 201.609 78.369 201.55 78.3597C201.492 78.3504 201.437 78.325 201.393 78.2864C201.348 78.2478 201.315 78.1974 201.296 78.1408C201.278 78.0843 201.276 78.0238 201.291 77.9662L202.16 74.4133L202.921 71.3056Z" fill="#E6E6E6"/>
<path d="M237.662 83.3586L186.102 96.72V88.1835L237.662 72.3125V83.3586Z" fill="#F2F2F2"/>
<path d="M236.463 45.7992C236.463 47.6154 235.654 49.4213 234.665 49.8294C233.684 50.234 232.895 49.1103 232.895 47.3228C232.895 45.5353 233.684 43.7379 234.665 43.3047C235.654 42.8678 236.463 43.983 236.463 45.7992Z" fill="#3F3D56"/>
<path d="M235.262 46.311C235.262 46.9164 234.993 47.5206 234.663 47.6602C234.333 47.7994 234.066 47.4237 234.066 46.8215C234.066 46.2194 234.333 45.6161 234.663 45.4737C234.993 45.3309 235.262 45.7056 235.262 46.311Z" fill="white"/>
<path d="M236.463 66.9086C236.463 68.7248 235.654 70.5306 234.665 70.9388C233.684 71.3433 232.895 70.2196 232.895 68.4322C232.895 66.6447 233.684 64.8473 234.665 64.4141C235.654 63.9771 236.463 65.0924 236.463 66.9086Z" fill="#0171E1"/>
<path d="M235.262 67.4204C235.262 68.0258 234.993 68.63 234.663 68.7696C234.333 68.9088 234.066 68.5331 234.066 67.9309C234.066 67.3288 234.333 66.7255 234.663 66.5831C234.993 66.4403 235.262 66.815 235.262 67.4204Z" fill="white"/>
<path d="M236.463 88.0189C236.463 89.8352 235.654 91.641 234.665 92.0491C233.684 92.4537 232.895 91.33 232.895 89.5425C232.895 87.755 233.684 85.9576 234.665 85.5245C235.654 85.0875 236.463 86.2027 236.463 88.0189Z" fill="#F2F2F2"/>
<path d="M235.262 88.5307C235.262 89.1361 234.993 89.7404 234.663 89.8799C234.333 90.0191 234.066 89.6434 234.066 89.0413C234.066 88.4391 234.333 87.8358 234.663 87.6934C234.993 87.5506 235.262 87.9253 235.262 88.5307Z" fill="white"/>
<path d="M207.714 88.7968C207.73 88.7289 207.768 88.6684 207.822 88.6243C207.876 88.5803 207.943 88.5552 208.013 88.5529C208.082 88.5506 208.151 88.5712 208.207 88.6116C208.264 88.6519 208.306 88.7098 208.327 88.7765L209.027 90.9952L209.992 94.0557C210.016 94.1322 210.011 94.215 209.978 94.2877C209.944 94.3605 209.885 94.418 209.811 94.4488L207.984 95.2145L206.516 95.8302C206.461 95.853 206.402 95.8602 206.343 95.8509C206.285 95.8416 206.23 95.8162 206.186 95.7776C206.141 95.739 206.107 95.6886 206.089 95.632C206.071 95.5755 206.069 95.515 206.083 95.4574L206.953 91.9045L207.714 88.7968Z" fill="#E6E6E6"/>
<path d="M195.542 85.0869L198.332 82.4986C198.332 82.4986 204.645 78.1237 202.44 75.7186C200.234 73.3135 195.79 78.922 195.79 78.922L193.031 80.7397L195.542 85.0869Z" fill="#FBBEBE"/>
<path d="M158.666 86.2909L157.042 88.5405C157.042 88.5405 154.771 97.3247 166.261 97.7912C166.261 97.7912 180.936 104.948 184.568 100.464C188.201 95.9804 198.224 85.1953 198.224 85.1953L192.328 79.167L180.312 91.8008L168.655 85.9246C168.655 85.9246 162.651 82.5934 158.666 86.2909Z" fill="#2F2E41"/>
<path d="M151.018 127.976L135.805 184.363L137.721 184.748L153.701 127.976H151.018Z" fill="#E6E6E6"/>
<path d="M169.465 127.976L184.678 184.363L182.761 184.748L166.781 127.976H169.465Z" fill="#E6E6E6"/>
<path d="M159.07 126.818L161.622 184.456L163.837 184.556L160.987 126.047L159.07 126.818Z" fill="#E6E6E6"/>
<path d="M166.161 125.906C166.161 127.368 162.183 128.937 156.962 129.442C151.358 129.983 146.504 129.104 146.504 127.442C146.504 125.781 151.358 124.143 156.962 123.808C162.183 123.497 166.161 124.444 166.161 125.906Z" fill="#E6E6E6"/>
<path d="M171.721 116.021L175.554 118.72C175.554 118.72 192.037 130.674 190.504 135.301C188.971 139.929 180.538 158.438 180.538 158.438L169.805 154.968L182.071 135.301L175.554 129.131L172.105 120.648L171.721 116.021Z" fill="#2F2E41"/>
<path d="M156.771 109.08C156.771 109.08 149.104 121.034 153.704 124.505C158.304 127.975 171.337 141.472 171.337 141.472L174.02 147.642L183.603 178.877L195.486 172.707L184.753 148.413C184.753 148.413 183.603 139.544 179.77 134.531C175.937 129.518 174.403 122.191 174.403 122.191L175.553 118.721L168.69 107.673L156.771 109.08Z" fill="#2F2E41"/>
<path d="M177.617 156.229L170.727 154.12C170.727 154.12 163.287 153.812 163.671 156.511C164.054 159.21 170.187 176.949 172.104 175.792C174.02 174.635 172.487 169.236 172.487 169.236L177.617 156.229Z" fill="#2F2E41"/>
<path d="M162.329 71.4824L158.496 75.7242L164.629 85.7503L167.312 78.0379L162.329 71.4824Z" fill="#E2ABAB"/>
<path d="M165.97 86.3283L159.162 74.9863L156.771 75.531V79.3872L156.004 111.779L168.653 109.851C168.653 109.851 169.42 89.0276 165.97 86.3283Z" fill="#0171E1"/>
<path d="M162.517 85.9429L156.768 75.5312L151.784 77.845L142.968 114.093L137.602 124.505C137.602 124.505 155.234 133.374 159.451 124.505C163.667 115.635 164.051 95.969 164.051 95.969L162.517 85.9429Z" fill="#2F2E41"/>
<path d="M154.086 79.3876L151.787 77.8451C151.787 77.8451 142.97 75.917 142.97 87.4855C142.97 87.4855 136.454 102.525 141.054 105.995C145.653 109.466 156.77 119.106 156.77 119.106L162.519 112.936L149.487 101.368L154.853 89.4136C154.853 89.4136 157.92 83.2438 154.086 79.3876Z" fill="#2F2E41"/>
<path d="M156.77 116.406L159.453 119.106C159.453 119.106 164.053 125.276 166.353 122.962C168.652 120.648 162.903 116.406 162.903 116.406L160.986 113.707L156.77 116.406Z" fill="#FBBEBE"/>
<path d="M165.526 82.8291L172.104 99.054C172.104 99.054 174.787 107.152 174.787 110.237V118.72L167.504 109.08C167.504 109.08 163.549 83.957 165.526 82.8291Z" fill="#2F2E41"/>
<path d="M186.47 175.801C186.47 175.801 184.571 183.322 187.063 183.959C189.555 184.596 210.466 185.135 210.48 181.579C210.493 178.024 196.908 175.087 196.908 175.087L191.889 171.848L186.47 175.801Z" fill="#2F2E41"/>
<path d="M167.122 78.6156C170.933 78.6156 174.022 75.508 174.022 71.6745C174.022 67.841 170.933 64.7334 167.122 64.7334C163.312 64.7334 160.223 67.841 160.223 71.6745C160.223 75.508 163.312 78.6156 167.122 78.6156Z" fill="#FBBEBE"/>
<path d="M174.476 70.429C174.476 70.429 175.824 64.5537 174.476 63.1979V64.1018C174.476 64.1018 173.577 60.9382 171.78 61.8421C171.78 61.8421 169.534 60.0344 169.085 60.9382C166.442 58.5341 154.721 60.788 160.41 73.4105C160.41 73.4105 161.448 69.5251 161.448 70.8809C161.448 70.8809 164.143 68.1693 164.592 67.2654C165.042 66.3615 172.679 72.2367 174.476 70.429Z" fill="#2F2E41"/>
</svg>
