<svg width="307" height="185" viewBox="0 0 307 185" fill="none" xmlns="http://www.w3.org/2000/svg">
<g clip-path="url(#clip0_49_1073)">
<path d="M139.286 0H63.5859V18.4402H139.286V0Z" fill="#E6E6E6"/>
<path d="M65.5703 16.4491H137.298V1.99121H65.5703V16.4491Z" fill="white"/>
<path d="M79.233 14.7281C82.2676 14.7281 84.7276 12.2621 84.7276 9.22002C84.7276 6.17798 82.2676 3.71191 79.233 3.71191C76.1983 3.71191 73.7383 6.17798 73.7383 9.22002C73.7383 12.2621 76.1983 14.7281 79.233 14.7281Z" fill="#0171E1"/>
<path d="M129.134 7.06445H92.375V8.26187H129.134V7.06445Z" fill="#0171E1"/>
<path d="M129.134 10.1777H92.375V11.3751H129.134V10.1777Z" fill="#0171E1"/>
<path d="M111.7 31.0332H36V49.4734H111.7V31.0332Z" fill="#E6E6E6"/>
<path d="M37.9883 47.4823H109.715V33.0244H37.9883V47.4823Z" fill="white"/>
<path d="M51.647 45.7613C54.6817 45.7613 57.1417 43.2953 57.1417 40.2532C57.1417 37.2112 54.6817 34.7451 51.647 34.7451C48.6124 34.7451 46.1523 37.2112 46.1523 40.2532C46.1523 43.2953 48.6124 45.7613 51.647 45.7613Z" fill="#E6E6E6"/>
<path d="M101.544 38.0977H64.7852V39.2951H101.544V38.0977Z" fill="#E6E6E6"/>
<path d="M101.544 41.2109H64.7852V42.4084H101.544V41.2109Z" fill="#E6E6E6"/>
<path d="M111.7 62.0664H36V80.5066H111.7V62.0664Z" fill="#E6E6E6"/>
<path d="M37.9883 78.5155H109.715V64.0576H37.9883V78.5155Z" fill="white"/>
<path d="M51.647 76.7945C54.6817 76.7945 57.1417 74.3285 57.1417 71.2864C57.1417 68.2444 54.6817 65.7783 51.647 65.7783C48.6124 65.7783 46.1523 68.2444 46.1523 71.2864C46.1523 74.3285 48.6124 76.7945 51.647 76.7945Z" fill="#E6E6E6"/>
<path d="M101.544 69.1318H64.7852V70.3292H101.544V69.1318Z" fill="#E6E6E6"/>
<path d="M101.544 72.2451H64.7852V73.4425H101.544V72.2451Z" fill="#E6E6E6"/>
<path d="M154.488 27.8593L159.375 39.917L162.382 48.2067L170.276 36.5258C170.276 36.5258 165.389 31.6273 165.389 25.2217L154.488 27.8593Z" fill="#E2ABAB"/>
<path d="M139.83 155.973L137.574 167.277L143.964 172.552L146.596 155.973H139.83Z" fill="#FBBEBE"/>
<path d="M176.666 153.335L175.914 166.9L182.304 165.769L183.056 154.088L176.666 153.335Z" fill="#FBBEBE"/>
<path d="M159.938 34.0762C164.713 34.0762 168.584 30.196 168.584 25.4097C168.584 20.6233 164.713 16.7432 159.938 16.7432C155.164 16.7432 151.293 20.6233 151.293 25.4097C151.293 30.196 155.164 34.0762 159.938 34.0762Z" fill="#FBBEBE"/>
<path d="M179.673 61.3947C179.673 61.3947 182.68 87.771 180.425 87.771C178.169 87.771 167.269 85.5102 165.013 83.6262C162.758 81.7422 155.616 82.4958 155.616 82.4958C155.616 82.4958 150.354 86.6406 147.723 84.3798C145.091 82.119 149.602 55.7427 149.602 55.7427L148.474 39.5401C148.474 39.5401 153.361 38.0329 155.616 40.2937L156.304 39.476L158.259 37.1624L161.254 39.9169L161.288 40.045L162.382 44.0617C162.382 44.0617 163.983 38.6056 165.115 37.4677C165.192 37.3862 165.286 37.322 165.389 37.2793C166.517 36.9025 168.499 34.252 168.499 34.252L172.96 36.5369L173.283 36.9025L182.68 39.5401L179.673 61.3947Z" fill="#E6E6E6"/>
<path d="M149.977 82.8723L149.225 86.6403C149.225 86.6403 145.09 87.3939 146.218 95.3068L143.211 123.19L138.324 157.856L147.345 158.987L164.636 107.741L175.161 156.349H184.558L182.679 102.089C182.679 102.089 184.182 90.7852 178.92 85.5099C173.658 80.2346 154.487 79.8578 149.977 82.8723Z" fill="#2F2E41"/>
<path d="M141.331 168.03C141.331 168.03 142.082 165.015 140.203 164.639C138.324 164.262 136.82 165.769 136.444 166.523C136.068 167.276 127.423 177.827 127.423 177.827C127.423 177.827 121.033 185.363 130.43 184.986C139.827 184.609 140.203 180.088 140.203 180.088C140.203 180.088 140.203 179.334 142.082 179.334C143.962 179.334 148.848 176.696 148.472 174.812C148.097 172.928 144.936 166.416 144.936 166.416C144.936 166.416 142.834 171.798 141.331 168.03Z" fill="#2F2E41"/>
<path d="M183.055 163.508C183.055 163.508 179.672 161.247 177.793 162.754C175.914 164.262 175.162 164.638 175.162 164.638L175.131 164.867C174.797 167.656 175.103 170.485 176.025 173.137C176.248 173.807 175.809 174.29 175.914 174.812C176.477 177.638 177.041 181.218 182.68 179.711C188.318 178.203 183.055 163.508 183.055 163.508Z" fill="#2F2E41"/>
<path d="M180.425 91.1621C180.425 91.1621 174.035 97.9446 177.794 100.205C181.553 102.466 183.808 93.0461 183.808 93.0461L180.425 91.1621Z" fill="#FBBEBE"/>
<path d="M138.728 20.5708C138.728 20.5708 143.162 12.3684 138.949 11.1533C134.736 9.93825 134.975 19.6229 134.975 19.6229L138.728 20.5708Z" fill="#FBBEBE"/>
<path d="M177.793 40.6704L182.679 39.54C182.679 39.54 187.942 43.6849 189.821 58.0035C191.701 72.322 184.559 95.3071 184.559 95.3071L178.921 91.9158C178.921 91.9158 181.928 73.8292 181.552 71.1916C181.176 68.554 178.921 58.3803 178.921 58.3803L177.793 40.6704Z" fill="#E6E6E6"/>
<path d="M153.177 16.1007L151.604 15.5274C151.604 15.5274 154.892 12.2312 159.467 12.5179L158.181 11.2281C158.181 11.2281 161.326 10.0816 164.185 13.0911C165.688 14.6732 167.427 16.5328 168.511 18.6276H170.195L169.492 20.0369L171.953 21.4461L169.427 21.193C169.667 22.4096 169.584 23.6678 169.189 24.8427L168.617 26.4191C168.617 26.4191 166.329 21.8331 166.329 21.2599V22.693C166.329 22.693 164.757 21.4032 164.757 20.5433L163.899 21.5465L163.47 19.9701L158.181 21.5465L159.038 20.2567L155.75 20.6867L157.037 19.1102C157.037 19.1102 153.925 21.2652 153.177 22.5497C152.381 23.9166 151.175 26.1325 151.175 26.1325L150.318 24.6994C150.318 24.6994 149.031 18.2503 153.177 16.1007Z" fill="#2F2E41"/>
<path d="M150.355 40.2932L148.475 39.5396L138.514 38.2208L139.078 20.3226L134.567 16.1777C134.567 16.1777 122.163 38.786 134.943 47.0757C147.723 55.3654 151.858 56.8726 151.858 56.8726L150.355 40.2932Z" fill="#E6E6E6"/>
<path d="M248.661 137.461L252.082 131.901C250.977 129.012 249.71 126.189 248.289 123.444L246.043 125.345L247.795 122.498C246.004 119.122 244.605 117 244.605 117C244.605 117 237.749 128.368 235.621 140.3L240.293 147.252L235.196 143.279C235.045 144.667 234.981 146.063 235.004 147.459C235.286 161.534 240.084 172.852 245.72 172.738C251.357 172.623 255.698 161.121 255.417 147.046C255.329 142.682 254.257 138.137 252.819 133.942L248.661 137.461Z" fill="#E6E6E6"/>
<path d="M264.141 143.669L269.927 140.687C270.465 137.64 270.831 134.565 271.025 131.476L268.126 131.936L271.088 130.409C271.29 126.588 271.183 124.044 271.183 124.044C271.183 124.044 259.472 130.21 251.52 139.319L251.947 147.699L249.625 141.647C248.783 142.757 248.011 143.918 247.313 145.126C240.322 157.321 238.614 169.504 243.498 172.338C248.382 175.171 258.009 167.582 265 155.386C267.167 151.606 268.584 147.157 269.509 142.818L264.141 143.669Z" fill="#E6E6E6"/>
<path d="M235.093 188.68C241.759 189.108 249.023 188.655 256.75 188.68V170.882C249.941 171.948 242.68 171.839 235.093 170.882V188.68Z" fill="#E6E6E6"/>
</g>
<defs>
<clipPath id="clip0_49_1073">
<rect width="307" height="185" fill="white"/>
</clipPath>
</defs>
</svg>
