<svg xmlns="http://www.w3.org/2000/svg" viewBox="0 0 762 762" fill="none" shape-rendering="auto"><metadata xmlns:rdf="http://www.w3.org/1999/02/22-rdf-syntax-ns#" xmlns:xsi="http://www.w3.org/2001/XMLSchema-instance" xmlns:dc="http://purl.org/dc/elements/1.1/" xmlns:dcterms="http://purl.org/dc/terms/"><rdf:RDF><rdf:Description><dc:title>Adventurer</dc:title><dc:creator>Lisa Wischofsky</dc:creator><dc:source xsi:type="dcterms:URI">https://www.figma.com/community/file/1184595184137881796</dc:source><dcterms:license xsi:type="dcterms:URI">https://creativecommons.org/licenses/by/4.0/</dcterms:license><dc:rights>Remix of „Adventurer” (https://www.figma.com/community/file/1184595184137881796) by „Lisa Wischofsky”, licensed under „CC BY 4.0” (https://creativecommons.org/licenses/by/4.0/)</dc:rights></rdf:Description></rdf:RDF></metadata><mask id="viewboxMask"><rect width="762" height="762" rx="0" ry="0" x="0" y="0" fill="#fff" /></mask><g mask="url(#viewboxMask)"><path d="M396 164.8a224.8 224.8 0 0 1 104.8 42.4c6.2 4.9 12.5 9.4 18 15a225.4 225.4 0 0 1 71.8 149 58.5 58.5 0 0 1 50.9 42.2 71 71 0 0 1-27.6 76.5c-11 7.7-24.5 12-38 11.7-5 0-10-1.6-15-1.8-1.9 2.2-3.3 4.9-4.8 7.3A223.3 223.3 0 0 1 389 609.8c-11 .7-21.9 2-33 .7a223.7 223.7 0 0 1-178.8-342.3A223.4 223.4 0 0 1 352 163.5c14.6-1.4 29.4-.3 44 1.3Z" fill="#000"/><path fill-rule="evenodd" clip-rule="evenodd" d="M498.8 213.2A216 216 0 0 0 363 169c-13-.2-26.2 1.6-39 4a218 218 0 0 0-113.6 365.5 218.5 218.5 0 0 0 260.4 40.2c35-18.8 64.2-47.3 84.4-81.5l-3-1.6c-2.8-1.4-5.7-3-8-5-2.2-2-.3-5.8 2.7-4.7 1.5.7 3 1.6 4.4 2.4a55 55 0 0 0 59.6-3.6 64.5 64.5 0 0 0 25-69.8 53.1 53.1 0 0 0-24-31 52.6 52.6 0 0 0-47-2.8c-1.6.8-3.4 1.5-5 1.3-2.5-.2-2.8-4.2-.6-5.2 8-4 16.5-5.6 25.4-6.4a217 217 0 0 0-72-146.4c-4.4-4-8.7-8.1-13.9-11.3Zm107.6 196.2c2-1.2 1.3-5.1-1.4-5-2 0-4.2.8-6.2 1.6l-1.4.4a95.1 95.1 0 0 0-25.5 12.4c-2.2 2-2.2 4.4.1 6.2a92 92 0 0 0 5.2 2.8 36 36 0 0 1 13 9.2c-.2 1.9-2 3.4-3.4 4.5l-.2.2c-3.9 3-8.8 5-13.6 7-2.5 1-4.9 2-7.1 3.1-1.7.8-2.6 2.2-1.6 3.9 1 2 3.2 1.1 5 .5l.6-.2 5.4-2.3c5.4-2.3 11-4.5 15.4-8 2.7-2.1 5.1-5.1 5.4-8.7-.5-3.4-2.7-5.7-5.3-7.8a83 83 0 0 0-11.6-7.2l-1.1-.6c5.4-3 10.8-5.6 16.6-7.7l5-1.7a52 52 0 0 0 6.7-2.6Z" fill="#f2d3b1"/><g transform="translate(-161 -83)"><path fill-rule="evenodd" clip-rule="evenodd" d="M613 456a65 65 0 0 0-114.3 3.7c-3.3 6.3-5.2 13-6.5 20-4.4.4-8.8.9-13 2l.3 1.5c.3 1.4.6 2.6 2.3 3 2.3.2 4.8 0 7.1-.3l2.8-.2A65.1 65.1 0 0 0 612 524c6.5-10.2 9.8-22 10-34 .1-3.9-.3-7.5-.8-11.2l-.4-3 3-.2c2.2-.2 4.5-.4 6.8-1 1.1-.5 1.4-1.6 1.6-2.8l.4-1.4c-4.4-1.1-8.7-.8-13.2-.3l-1.4-3.5c-1.5-3.6-3-7.2-5.1-10.7Zm.6 14.7a59.9 59.9 0 0 0-106.7-13.8 58.4 58.4 0 0 0-8.8 22.5c6-.7 11.9-1 17.9-1.5l14.5-1.1 11-.7c4.8-.3 9.6-.5 14.4-1.1 16.4-1.1 32.8-2.4 49.2-3.7l8.5-.6Zm-200.2-17.1c12 6.5 21 17.4 25.6 30.1 2.6.2 5.3.4 8 .8l-.1.7-.6 3c-1 .8-2.5 1-3.9 1.3l-1.6.4a55 55 0 1 1-109 9l-7.2-.3.1-1.3c.1-1.2.2-2.7 1.2-3.2 1.5-.5 3.2-.7 4.8-1 .6 0 1.2 0 1.8-.2a55 55 0 0 1 80.9-39.4Zm19.7 30.8a49.3 49.3 0 0 0-94.7 8c7-.4 14-1 21-1.6a1133.2 1133.2 0 0 1 29.9-2.4 1075.2 1075.2 0 0 1 18-1.3c8.6-.6 17.3-1.2 25.8-2.7Z" fill="#000"/><path d="M615.1 476.4a59.8 59.8 0 0 1-67.2 71.8 59.7 59.7 0 0 1-50.7-62.9l8.4-.8c.5 6.9 2.8 13.1 8 17.8a24.6 24.6 0 0 0 41.2-21.1c4.5-.5 9-1.1 13.4-1.4 15.7-1 31.3-2.6 47-3.4ZM431 490.8l3.7-1a49.5 49.5 0 0 1-85.8 43.2 49.9 49.9 0 0 1-11.2-34.6c16.4-1.6 33-2.6 49.4-4.4.1 5.6 1.1 10.8 4.7 15.2a22.3 22.3 0 0 0 23.4 8c7-2.3 13-8 15-15.2 1.2-3.8.6-7.3.7-11.2Z" fill="#fff"/></g><g transform="translate(-161 -83)"><path d="M613.5 401.5c1.6 1 1.1 2.9 1.3 4.5l-.1 34c.3 2.8-2.5 4.2-4.7 5l-120 41.1c-2.5.2-2.9-1.7-3.5-3.6l-5-18c1 5.8 1 11.7 1.3 17.5 0 1.4.5 4-1 4.9-2 1.4-4 0-4.6-2l-10.6-38.4c-.4-1.8-.7-3.9 1.3-4.9 2.2-.5 3.5.5 4 2.5 1.3 4.5 2.6 9 3.7 13.7-.7-5.3-1-10.5-1.2-15.8 0-1.3-.1-3.7 1.7-3.8l4.4-.7 123.6-35.2c3.3-.9 6-2.1 9.4-.8ZM324 433.9c13.6 1.4 27.4 1.4 41 2.6 21 1 42.1 2.6 63.1 3.4 7.8.8 15.6 1 23.5 1.7 2.8 2.1 1 8 1.9 11.3.6-3 .2-7 2-9.5 2-1.8 5-.1 4.7 2.6-2.4 14-4.8 28.1-7 42.2-.8 2.9-4.5 2.5-5.3-.2-.3-5-.2-9.9-.3-14.8-1 4.3-1.5 8.7-2.5 13-.4 1.6-1.2 2.8-3 2.4l-119-21.3c-1.8-.2-2.8-1.5-3-3.3-1.5-8-2.6-16-4.2-24-.2-1.7-.7-3.1.6-4.6 2.1-2.2 4.7-1.6 7.5-1.5Z" fill="#000"/></g><g transform="translate(-161 -83)"><path d="M526 559.6c18 0 37.2 2.1 54 9-52.2 7.3-107.2 15.2-159 22.3 8-7 17.7-12.3 27.4-16.5A79.3 79.3 0 0 1 488 567c1 .1 1.9 0 2.7-.4 10.2-5.9 23.7-6.6 35.3-7Z" fill="#D31E1E"/><path d="M580 568.7c2.4 1 2 3.4 1.4 5.4a92 92 0 0 1-28.4 34 96.5 96.5 0 0 1-60 17.5c-26.8-1-53-12-73.4-29.3-.4-2.4-.5-3.7 1.4-5.4 51.8-7.1 106.8-15 159-22.2Z" fill="#000"/><path d="M581.4 574.1c-1.1 4.6-1.9 9.2-3.7 13.7-5.3 13.9-16 25.4-28.4 33.5a103.3 103.3 0 0 1-45.3 16 96 96 0 0 1-58-11.3 60.6 60.6 0 0 1-26.4-29.7 122.1 122.1 0 0 0 73.4 29.3 92 92 0 0 0 88.4-51.5Z" fill="#D31E1E"/><path d="M573.9 575.5c-8.2 15-21 27.5-36.4 35a89.2 89.2 0 0 1-40.5 9.2c-24.7.2-49-9-68.6-23.9 48-6.6 97.8-13.8 145.5-20.3Z" fill="#fff"/></g><g transform="translate(-161 -83)"></g><g transform="translate(-161 -83)"></g><g transform="translate(-161 -83)"><g fill="#000"><path d="M440.2 189.2c1.8-.1 3.6-1 4.7 1 1.6 2 1.1 3.4-.6 5a62.2 62.2 0 0 0-18.3 29.3c30-13.1 63.4-19.6 96-21 9.4-.7 18.6-.7 28 0a281 281 0 0 1 80.5 14.8c18.5 6.5 37 15.6 52 28.3a77.8 77.8 0 0 1 26.5 39.1c3.8-.2 7.3-.4 10.7 1.6 7.3 3.8 12.4 12 16 19.1a182.4 182.4 0 0 1 14.5 46.6c3.3 17.2 4.8 34.6 5.8 52 .1 13 .6 26.1-.8 39-.4 4.3-.3 8.7-1.3 12.9-1 3-4.4 2.7-6.9 3-8.3.3-17.8 1.7-25 6.2-1.3 2.5-1.5 5.6-2.7 8.2-2 2.3-4.8 4-7.2 5.8-6.3 4.3-12.3 9.1-18.5 13.5-1.8 1.1-4.1 2.7-6 .6-1.3-1.2-1.3-2.5-1-4.2 3.2-19.6 2.9-40.2 2.2-60 .1-7.8-.9-15.4-1.3-23.2a53.7 53.7 0 0 1-19.3-5A77.9 77.9 0 0 1 634 369c-6-11-9.4-23.4-8.2-36A1013.5 1013.5 0 0 1 466 346.2c-10.8-.3-21.5 0-32.2-1-14.4-.6-28.6-1.8-42.8-4-11.2-1.7-22.6-4-33.3-8-4.9 5-8 10.7-11.9 16.5-2.3 3.5-4 7.4-6.3 10.7-1 1.6-3.2 1.8-4.4.3-1.2-2.3-1.6-5.2-2.1-7.8a61.6 61.6 0 0 1 4-37c-2.4-4.5-4.6-9-5.8-14a62 62 0 0 1 6.5-44.3c9.3-17.8 24.9-32.5 41.6-43.4a182.2 182.2 0 0 1 61-25Z"/><path d="M340.5 321.2c3.1 4.3 7.2 7.2 11.8 9.7-5 6.6-9.6 13.5-14 20.5-1.2-9-1.5-17.8 1.2-26.6l1-3.6ZM718.2 480.6c2 1.1 1.6 3.3 0 4.6-8 6.8-16.4 13-25 19-1.5 1-3.2 2-4.6.2-1.8-1.7 0-3.3 1.3-4.5 3.7-3 7.8-5.5 11.6-8.4 4-2.9 7.9-6.2 11.8-9.2 1.6-1 3-2.3 5-1.7Z"/></g><path d="M436 196.1a63 63 0 0 0-15.4 27c-.3 2-1.3 4.7-.2 6.5 1.5.8 3 1.2 4.6 1.7 41.8-19 88.5-24.5 134-21.5 29 2.2 58.4 8.3 85.1 20.1 15.2 6.8 30.4 16 42 28a63.7 63.7 0 0 1 18 33l1.8 1.3c4.1-.7 7.6-1.8 11.5.4 6.4 3.7 10.8 11.5 14 18a198.7 198.7 0 0 1 14.4 50.4c2 12.6 3.5 25.3 4 38 .1 8 .9 16 .6 24-.4 10.5-.6 21-1.8 31.4-7.8.3-15.2 1-22.6 3.7-2.8 1-6.4 2.2-8.4 4.5-1.5 2.7-2 6-3 9L693 487.2c1.6-9.3 1.4-18.7 2.1-28.2.5-9.4-.6-18.6-.7-28-.2-5.4-.2-10.7-.8-16-.5-4.7-.5-9-2-13.5-5.7-.8-11.2-1-16.6-3.2a70.6 70.6 0 0 1-37-34.2 52 52 0 0 1-5.5-34.7c-2.6-3.4-7.3-2.2-10.9-1.7A964.5 964.5 0 0 1 447 340c-10-.1-20-.5-30-1.4-17-1.5-34.6-3.6-51-8.6a57 57 0 0 1-17-8 47.7 47.7 0 0 1-12.7-43c3-16 12.6-30.5 23.9-41.8a165 165 0 0 1 75.7-41Z" fill="#85c2c6"/></g><g transform="translate(-161 -83)"></g></g></svg>